<svg width="146" height="166" viewBox="0 0 146 166" fill="none" xmlns="http://www.w3.org/2000/svg">
<g clip-path="url(#clip0)">
<rect x="48.5" y="38" width="49" height="50" rx="2" fill="#56CCF2" fill-opacity="0.1"/>
<rect x="22.5" y="25" width="42" height="43" rx="2" fill="#56CCF2" fill-opacity="0.1"/>
<rect x="2.5" y="12" width="35" height="35" rx="2" fill="#56CCF2" fill-opacity="0.1"/>
<rect x="85.5" y="30" width="42" height="43" rx="2" fill="#56CCF2" fill-opacity="0.1"/>
<path d="M112 17C112 15.8954 112.895 15 114 15H145C146.105 15 147 15.8954 147 17V48C147 49.1046 146.105 50 145 50H114C112.895 50 112 49.1046 112 48V17Z" fill="#56CCF2" fill-opacity="0.1"/>
<path d="M48.4543 36.9571H42.1776C41.7859 36.9571 41.4102 36.8008 41.1333 36.5225C40.8563 36.2443 40.7007 35.8669 40.7007 35.4734C40.7007 35.0799 40.8563 34.7025 41.1333 34.4243C41.4102 34.1461 41.7859 33.9897 42.1776 33.9897H48.4543C48.846 33.9897 49.2217 34.1461 49.4986 34.4243C49.7756 34.7025 49.9312 35.0799 49.9312 35.4734C49.9312 35.8669 49.7756 36.2443 49.4986 36.5225C49.2217 36.8008 48.846 36.9571 48.4543 36.9571Z" fill="#E6E6E6"/>
<path d="M23.7617 20.0806H20.6234C20.2317 20.0806 19.856 19.9243 19.5791 19.646C19.3021 19.3678 19.1465 18.9904 19.1465 18.5969C19.1465 18.2034 19.3021 17.8261 19.5791 17.5478C19.856 17.2696 20.2317 17.1133 20.6234 17.1133H23.7617C24.1534 17.1133 24.5291 17.2696 24.806 17.5478C25.083 17.8261 25.2386 18.2034 25.2386 18.5969C25.2386 18.9904 25.083 19.3678 24.806 19.646C24.5291 19.9243 24.1534 20.0806 23.7617 20.0806Z" fill="#E6E6E6"/>
<path d="M49.941 70.1345H26.9685C26.1364 70.1335 25.3387 69.8011 24.7503 69.21C24.162 68.619 23.831 67.8176 23.8301 66.9817V30.4763C23.831 29.6404 24.162 28.839 24.7503 28.248C25.3387 27.6569 26.1364 27.3244 26.9685 27.3235H63.6641C64.4962 27.3244 65.2939 27.6569 65.8822 28.248C66.4706 28.839 66.8015 29.6404 66.8025 30.4763V39.5243H66.4333V30.4763C66.4324 29.7387 66.1404 29.0316 65.6213 28.5101C65.1021 27.9886 64.3983 27.6952 63.6641 27.6944H26.9685C26.2343 27.6952 25.5304 27.9886 25.0113 28.5101C24.4921 29.0316 24.2001 29.7387 24.1993 30.4763V66.9817C24.2001 67.7192 24.4921 68.4263 25.0113 68.9479C25.5304 69.4694 26.2343 69.7627 26.9685 69.7636H49.941V70.1345Z" fill="#CCCCCC"/>
<path d="M24.0144 48.2809H7.2685C6.43644 48.28 5.63873 47.9475 5.05037 47.3564C4.46202 46.7654 4.13106 45.964 4.13013 45.1281V15.444C4.13106 14.6082 4.46202 13.8068 5.05037 13.2157C5.63873 12.6247 6.43644 12.2922 7.2685 12.2913H37.1165C37.9486 12.2922 38.7463 12.6247 39.3347 13.2157C39.923 13.8068 40.254 14.6082 40.2549 15.444V27.5089H39.8857V15.444C39.8849 14.7065 39.5928 13.9994 39.0737 13.4779C38.5546 12.9564 37.8507 12.663 37.1165 12.6622H7.2685C6.53433 12.663 5.83047 12.9564 5.31133 13.4779C4.7922 13.9994 4.50018 14.7065 4.49935 15.444V45.1281C4.50018 45.8657 4.7922 46.5728 5.31133 47.0943C5.83047 47.6158 6.53433 47.9091 7.2685 47.91H24.0144V48.2809Z" fill="#CCCCCC"/>
<path d="M33.4699 84.2776L33.4388 84.2124C33.4177 84.1681 31.3286 79.716 31.523 74.5808C31.5874 72.8952 32.2905 71.2981 33.4885 70.1162C34.6864 68.9343 36.2887 68.2569 37.9674 68.2227V68.2227C39.5146 68.1923 41.0228 68.7113 42.2264 69.6883C43.43 70.6653 44.2519 72.0377 44.5472 73.5637C45.1294 76.5493 45.1148 79.3771 44.5039 81.9683L44.4903 82.0259L44.4324 82.0378L33.4699 84.2776Z" fill="#5999F1"/>
<path d="M100.199 35.4734C100.199 35.0801 100.355 34.7029 100.632 34.4248C100.909 34.1467 101.284 33.9902 101.676 33.9897H107.952C108.344 33.9897 108.72 34.1461 108.997 34.4243C109.274 34.7025 109.429 35.0799 109.429 35.4734C109.429 35.8669 109.274 36.2443 108.997 36.5225C108.72 36.8008 108.344 36.9571 107.952 36.9571H101.676C101.284 36.9566 100.909 36.8002 100.632 36.522C100.355 36.2439 100.199 35.8668 100.199 35.4734Z" fill="#E6E6E6"/>
<path d="M124.892 18.5969C124.892 18.2036 125.048 17.8265 125.325 17.5483C125.602 17.2702 125.977 17.1137 126.368 17.1133H129.507C129.899 17.1133 130.274 17.2696 130.551 17.5478C130.828 17.8261 130.984 18.2034 130.984 18.5969C130.984 18.9904 130.828 19.3678 130.551 19.646C130.274 19.9243 129.899 20.0806 129.507 20.0806H126.368C125.977 20.0802 125.602 19.9237 125.325 19.6455C125.048 19.3674 124.892 18.9903 124.892 18.5969Z" fill="#E6E6E6"/>
<path d="M100.189 70.1345H123.162C123.994 70.1335 124.792 69.8011 125.38 69.21C125.968 68.619 126.299 67.8176 126.3 66.9817V30.4763C126.299 29.6404 125.968 28.839 125.38 28.248C124.792 27.6569 123.994 27.3244 123.162 27.3235H86.4663C85.6342 27.3244 84.8365 27.6569 84.2481 28.248C83.6598 28.839 83.3288 29.6404 83.3279 30.4763V39.5243H83.6971V30.4763C83.6979 29.7387 83.9899 29.0316 84.5091 28.5101C85.0282 27.9886 85.7321 27.6952 86.4663 27.6944H123.162C123.896 27.6952 124.6 27.9886 125.119 28.5101C125.638 29.0316 125.93 29.7387 125.931 30.4763V66.9817C125.93 67.7192 125.638 68.4263 125.119 68.9479C124.6 69.4694 123.896 69.7627 123.162 69.7636H100.189V70.1345Z" fill="#CCCCCC"/>
<path d="M126.116 48.2809H142.862C143.694 48.28 144.491 47.9475 145.08 47.3564C145.668 46.7654 145.999 45.964 146 45.1281V15.444C145.999 14.6082 145.668 13.8068 145.08 13.2157C144.491 12.6247 143.694 12.2922 142.862 12.2913H113.014C112.182 12.2922 111.384 12.6247 110.795 13.2157C110.207 13.8068 109.876 14.6082 109.875 15.444V27.5089H110.244V15.444C110.245 14.7065 110.537 13.9994 111.056 13.4779C111.576 12.9564 112.279 12.663 113.014 12.6622H142.862C143.596 12.663 144.3 12.9564 144.819 13.4779C145.338 13.9994 145.63 14.7065 145.631 15.444V45.1281C145.63 45.8657 145.338 46.5728 144.819 47.0943C144.3 47.6158 143.596 47.9091 142.862 47.91H126.116V48.2809Z" fill="#CCCCCC"/>
<path d="M97.1573 39.4626H52.8952C52.0634 39.4643 51.2661 39.797 50.6779 40.3879C50.0897 40.9788 49.7585 41.7798 49.7568 42.6154V86.6597C49.7577 87.4956 50.0886 88.2971 50.677 88.8881C51.2654 89.4792 52.0631 89.8116 52.8952 89.8125H97.1573C97.9894 89.8116 98.7871 89.4792 99.3755 88.8881C99.9639 88.2971 100.295 87.4956 100.296 86.6597V42.6154C100.295 41.7795 99.9639 40.9781 99.3755 40.387C98.7871 39.796 97.9894 39.4635 97.1573 39.4626V39.4626ZM99.9264 86.6597C99.9255 87.3973 99.6335 88.1043 99.1144 88.6258C98.5953 89.1473 97.8914 89.4407 97.1573 89.4416H52.8952C52.1611 89.4407 51.4572 89.1473 50.9381 88.6258C50.419 88.1043 50.1269 87.3973 50.1261 86.6597V42.6154C50.1272 41.878 50.4193 41.1711 50.9384 40.6496C51.4574 40.1282 52.1611 39.8347 52.8952 39.8336H97.1573C97.8914 39.8345 98.5953 40.1278 99.1144 40.6493C99.6335 41.1708 99.9255 41.8779 99.9264 42.6154V86.6597Z" fill="#25518C"/>
<path d="M93.6719 56.6158H56.3807C55.989 56.6158 55.6133 56.4594 55.3364 56.1812C55.0594 55.903 54.9038 55.5256 54.9038 55.1321C54.9038 54.7386 55.0594 54.3612 55.3364 54.083C55.6133 53.8048 55.989 53.6484 56.3807 53.6484H93.6719C94.0636 53.6484 94.4393 53.8048 94.7162 54.083C94.9932 54.3612 95.1488 54.7386 95.1488 55.1321C95.1488 55.5256 94.9932 55.903 94.7162 56.1812C94.4393 56.4594 94.0636 56.6158 93.6719 56.6158Z" fill="#CCCCCC"/>
<path d="M83.0568 50.3101H66.9957C66.604 50.3101 66.2283 50.1538 65.9514 49.8755C65.6744 49.5973 65.5188 49.2199 65.5188 48.8264C65.5188 48.4329 65.6744 48.0556 65.9514 47.7773C66.2283 47.4991 66.604 47.3428 66.9957 47.3428H83.0568C83.4485 47.3428 83.8241 47.4991 84.1011 47.7773C84.3781 48.0556 84.5337 48.4329 84.5337 48.8264C84.5337 49.2199 84.3781 49.5973 84.1011 49.8755C83.8241 50.1538 83.4485 50.3101 83.0568 50.3101Z" fill="#F9A826"/>
<path d="M72.3495 65.5176H56.2884C55.8967 65.5176 55.5211 65.3613 55.2441 65.0831C54.9671 64.8048 54.8115 64.4274 54.8115 64.034C54.8115 63.6405 54.9671 63.2631 55.2441 62.9848C55.5211 62.7066 55.8967 62.5503 56.2884 62.5503H72.3495C72.7412 62.5503 73.1168 62.7066 73.3938 62.9848C73.6708 63.2631 73.8264 63.6405 73.8264 64.034C73.8264 64.4274 73.6708 64.8048 73.3938 65.0831C73.1168 65.3613 72.7412 65.5176 72.3495 65.5176Z" fill="#CCCCCC"/>
<path d="M72.3495 72.0086H56.2884C55.8967 72.0086 55.5211 71.8523 55.2441 71.5741C54.9671 71.2958 54.8115 70.9184 54.8115 70.5249C54.8115 70.1314 54.9671 69.7541 55.2441 69.4758C55.5211 69.1976 55.8967 69.0413 56.2884 69.0413H72.3495C72.7412 69.0413 73.1168 69.1976 73.3938 69.4758C73.6708 69.7541 73.8264 70.1314 73.8264 70.5249C73.8264 70.9184 73.6708 71.2958 73.3938 71.5741C73.1168 71.8523 72.7412 72.0086 72.3495 72.0086Z" fill="#CCCCCC"/>
<path d="M72.3495 78.4995H56.2884C55.8967 78.4995 55.5211 78.3432 55.2441 78.065C54.9671 77.7868 54.8115 77.4094 54.8115 77.0159C54.8115 76.6224 54.9671 76.245 55.2441 75.9668C55.5211 75.6885 55.8967 75.5322 56.2884 75.5322H72.3495C72.7412 75.5322 73.1168 75.6885 73.3938 75.9668C73.6708 76.245 73.8264 76.6224 73.8264 77.0159C73.8264 77.4094 73.6708 77.7868 73.3938 78.065C73.1168 78.3432 72.7412 78.4995 72.3495 78.4995Z" fill="#CCCCCC"/>
<path d="M92.3806 66.7894C93.9027 66.7894 95.1366 65.5498 95.1366 64.0207C95.1366 62.4916 93.9027 61.252 92.3806 61.252C90.8584 61.252 89.6245 62.4916 89.6245 64.0207C89.6245 65.5498 90.8584 66.7894 92.3806 66.7894Z" fill="#F9A826"/>
<path d="M92.1076 65.0769C92.0456 65.077 91.9852 65.0569 91.9356 65.0195L91.9326 65.0172L91.2848 64.5195C91.2242 64.4728 91.1846 64.4039 91.1746 64.3278C91.1646 64.2518 91.1851 64.1749 91.2315 64.114C91.278 64.0532 91.3466 64.0133 91.4223 64.0033C91.4979 63.9933 91.5745 64.0138 91.6351 64.0605L92.0546 64.3837L93.046 63.0844C93.069 63.0543 93.0977 63.029 93.1304 63.01C93.1631 62.991 93.1992 62.9787 93.2367 62.9737C93.2741 62.9687 93.3122 62.9712 93.3487 62.981C93.3852 62.9908 93.4194 63.0078 93.4494 63.0308L93.4495 63.0309L93.4434 63.0395L93.4497 63.0309C93.5102 63.0776 93.5497 63.1465 93.5597 63.2225C93.5697 63.2985 93.5493 63.3754 93.5029 63.4362L92.3368 64.9638C92.3098 64.999 92.2751 65.0275 92.2354 65.0471C92.1957 65.0666 92.1521 65.0767 92.1078 65.0766L92.1076 65.0769Z" fill="white"/>
<path d="M74.8914 33.132C74.7991 33.1321 74.7094 33.1022 74.6356 33.0466L74.631 33.0431L73.6676 32.3028C73.623 32.2684 73.5856 32.2256 73.5574 32.1767C73.5293 32.1278 73.511 32.0738 73.5037 32.0178C73.4963 31.9618 73.5 31.9049 73.5145 31.8503C73.5291 31.7958 73.5542 31.7446 73.5884 31.6998C73.6226 31.655 73.6652 31.6174 73.7139 31.5891C73.7626 31.5608 73.8163 31.5425 73.8721 31.5351C73.9278 31.5277 73.9844 31.5314 74.0387 31.546C74.0931 31.5606 74.144 31.5858 74.1886 31.6202L74.8126 32.1009L76.2871 30.1683C76.3213 30.1235 76.3639 30.0859 76.4126 30.0577C76.4613 30.0294 76.515 30.0111 76.5707 30.0037C76.6264 29.9963 76.683 30 76.7373 30.0146C76.7916 30.0292 76.8425 30.0544 76.8871 30.0887L76.8872 30.0888L76.8781 30.1016L76.8875 30.0888C76.9775 30.1583 77.0363 30.2608 77.0512 30.3738C77.066 30.4868 77.0356 30.6012 76.9666 30.6917L75.2323 32.9637C75.1921 33.0161 75.1405 33.0584 75.0815 33.0875C75.0224 33.1166 74.9575 33.1316 74.8917 33.1315L74.8914 33.132Z" fill="#F2994A"/>
<path d="M92.3806 73.2806C93.9027 73.2806 95.1366 72.041 95.1366 70.5119C95.1366 68.9828 93.9027 67.7432 92.3806 67.7432C90.8584 67.7432 89.6245 68.9828 89.6245 70.5119C89.6245 72.041 90.8584 73.2806 92.3806 73.2806Z" fill="#F9A826"/>
<path d="M92.1076 71.5679C92.0456 71.568 91.9852 71.5478 91.9356 71.5105L91.9326 71.5082L91.2848 71.0104C91.2548 70.9873 91.2297 70.9585 91.2107 70.9256C91.1918 70.8927 91.1795 70.8564 91.1746 70.8188C91.1696 70.7812 91.1721 70.7429 91.1819 70.7062C91.1917 70.6695 91.2085 70.6351 91.2315 70.605C91.2545 70.5749 91.2832 70.5496 91.3159 70.5306C91.3487 70.5116 91.3848 70.4992 91.4223 70.4943C91.4597 70.4893 91.4978 70.4918 91.5343 70.5016C91.5709 70.5114 91.6051 70.5283 91.6351 70.5515L92.0546 70.8746L93.046 69.5753C93.069 69.5452 93.0977 69.5199 93.1304 69.5009C93.1631 69.482 93.1992 69.4696 93.2367 69.4646C93.2741 69.4597 93.3122 69.4622 93.3487 69.472C93.3852 69.4818 93.4194 69.4987 93.4494 69.5218L93.4495 69.5219L93.4434 69.5305L93.4497 69.5219C93.5102 69.5686 93.5497 69.6375 93.5597 69.7135C93.5697 69.7895 93.5493 69.8663 93.5029 69.9272L92.3368 71.4548C92.3098 71.49 92.2751 71.5184 92.2354 71.538C92.1957 71.5576 92.1521 71.5677 92.1078 71.5675L92.1076 71.5679Z" fill="white"/>
<path d="M92.3806 79.7847C93.9027 79.7847 95.1366 78.5451 95.1366 77.016C95.1366 75.4869 93.9027 74.2473 92.3806 74.2473C90.8584 74.2473 89.6245 75.4869 89.6245 77.016C89.6245 78.5451 90.8584 79.7847 92.3806 79.7847Z" fill="#F9A826"/>
<path d="M92.1076 78.0723C92.0456 78.0724 91.9852 78.0523 91.9356 78.0149L91.9325 78.0126L91.2848 77.5148C91.2243 77.4681 91.1848 77.3992 91.1748 77.3233C91.1649 77.2473 91.1854 77.1704 91.2318 77.1096C91.2782 77.0488 91.3467 77.009 91.4224 76.9989C91.498 76.9888 91.5745 77.0093 91.6351 77.0559L92.0546 77.3791L93.046 76.0797C93.069 76.0496 93.0977 76.0243 93.1304 76.0053C93.1631 75.9863 93.1992 75.974 93.2367 75.969C93.2741 75.9641 93.3122 75.9666 93.3487 75.9764C93.3852 75.9862 93.4194 76.0031 93.4494 76.0262L93.4495 76.0263L93.4433 76.0349L93.4497 76.0263C93.5102 76.073 93.5497 76.1419 93.5597 76.2179C93.5697 76.2939 93.5492 76.3707 93.5029 76.4316L92.3368 77.9592C92.3098 77.9944 92.2751 78.0229 92.2354 78.0425C92.1957 78.062 92.1521 78.0721 92.1078 78.072L92.1076 78.0723Z" fill="white"/>
<path d="M75.0301 35.6838C72.1226 35.634 70.8014 33.418 70.8015 31.38C70.8017 29.3421 72.1231 27.1263 75.024 27.0769H75.0303C77.9316 27.1266 79.2529 29.3427 79.2528 31.3806C79.2526 33.4186 77.9311 35.6345 75.0301 35.6838ZM75.0272 27.4478C72.3777 27.4944 71.1709 29.5185 71.1707 31.38C71.1706 33.2424 72.3783 35.2675 75.0302 35.3129C77.6755 35.2678 78.8834 33.2429 78.8835 31.3806C78.8836 29.5191 77.6767 27.495 75.0272 27.4478V27.4478Z" fill="#F9A826"/>
<path d="M27.3585 96.5955C27.2464 96.3472 27.1899 96.0772 27.193 95.8046C27.196 95.532 27.2585 95.2634 27.3761 95.0176C27.4937 94.7719 27.6635 94.5551 27.8735 94.3824C28.0835 94.2097 28.3287 94.0854 28.5917 94.0182L29.1513 87.4148L31.8428 89.5478L30.8987 95.4915C30.9818 95.9428 30.8972 96.4092 30.6609 96.802C30.4246 97.1949 30.0531 97.4871 29.6167 97.6232C29.1804 97.7593 28.7094 97.7298 28.2932 97.5404C27.877 97.351 27.5444 97.0148 27.3585 96.5955H27.3585Z" fill="#FFB8B8"/>
<path d="M29.0895 93.3253C28.8959 93.2996 28.7174 93.2061 28.5856 93.0612C28.4538 92.9163 28.3771 92.7294 28.3689 92.5333L28.0573 85.0395C27.9453 82.3461 28.491 79.666 29.6467 77.2331L32.41 71.4163C32.5951 71.0664 32.8606 70.766 33.1845 70.5399C33.5083 70.3139 33.8812 70.1686 34.2721 70.1164C34.6516 70.0627 35.0384 70.1019 35.3995 70.2307C35.7606 70.3595 36.0854 70.5741 36.3462 70.8562C36.4785 70.9982 36.5974 71.1523 36.7012 71.3164C36.9097 71.6562 37.0304 72.0428 37.0524 72.4413C37.0744 72.8398 36.997 73.2375 36.8271 73.5983L32.5901 85.2265L32.2641 92.802C32.2592 92.9168 32.2307 93.0293 32.1804 93.1325C32.1302 93.2357 32.0593 93.3274 31.9721 93.4018C31.885 93.4762 31.7835 93.5317 31.674 93.5649C31.5645 93.5981 31.4494 93.6082 31.3358 93.5946L29.1005 93.3268L29.0895 93.3253Z" fill="#5999F1"/>
<path d="M21.1619 126.067L23.2343 126.981L27.7292 119.385L24.6706 118.037L21.1619 126.067Z" fill="#FFB8B8"/>
<path d="M20.93 125.154L25.0113 126.954L25.0115 126.954C25.3531 127.105 25.6617 127.321 25.9199 127.592C26.1781 127.862 26.3807 128.181 26.5162 128.53C26.6517 128.879 26.7174 129.252 26.7096 129.627C26.7018 130.001 26.6206 130.371 26.4707 130.714L26.4335 130.799L19.7512 127.852L20.93 125.154Z" fill="#85555C"/>
<path d="M48.985 128.595H51.2483L52.325 119.825L48.9846 119.825L48.985 128.595Z" fill="#FFB8B8"/>
<path d="M48.4077 127.852L52.8649 127.852H52.8651C53.2381 127.852 53.6075 127.926 53.9521 128.069C54.2967 128.213 54.6099 128.423 54.8736 128.688C55.1374 128.953 55.3466 129.268 55.4894 129.614C55.6321 129.96 55.7056 130.331 55.7056 130.706V130.799L48.4079 130.799L48.4077 127.852Z" fill="#85555C"/>
<path d="M26.1887 126.101C26.1017 126.101 26.0152 126.088 25.9323 126.061L22.0947 124.821C21.8875 124.754 21.7149 124.607 21.6139 124.413C21.513 124.219 21.4916 123.993 21.5545 123.783L34.2806 83.0721L43.8129 81.1943L43.8465 81.2492C50.1485 91.551 52.2521 107.288 53.5865 123.962C53.6029 124.179 53.5342 124.395 53.3949 124.562C53.2557 124.73 53.0569 124.837 52.8407 124.859L48.6453 125.281C48.4495 125.302 48.2528 125.251 48.0907 125.139C47.9285 125.027 47.8116 124.86 47.7609 124.669L40.079 97.3686C40.0639 97.313 40.0319 97.2634 39.9876 97.2267C39.9432 97.1901 39.8886 97.1682 39.8313 97.1642C39.774 97.1601 39.7169 97.174 39.6678 97.204C39.6187 97.234 39.5801 97.2785 39.5574 97.3315L26.9494 125.597C26.8857 125.746 26.7797 125.874 26.6445 125.964C26.5092 126.053 26.3508 126.101 26.1887 126.101V126.101Z" fill="#F2C94C"/>
<path d="M39.2056 66.7705C41.7098 66.7705 43.7398 64.7311 43.7398 62.2154C43.7398 59.6998 41.7098 57.6604 39.2056 57.6604C36.7014 57.6604 34.6714 59.6998 34.6714 62.2154C34.6714 64.7311 36.7014 66.7705 39.2056 66.7705Z" fill="#FFB8B8"/>
<path d="M56.5873 90.7034C56.3189 90.6636 56.0623 90.565 55.8359 90.4148C55.6094 90.2646 55.4185 90.0663 55.2765 89.8339C55.1346 89.6015 55.0451 89.3407 55.0143 89.0698C54.9836 88.799 55.0123 88.5246 55.0985 88.2661L49.876 84.217L53.1186 83.0994L57.5809 87.1158C58.0036 87.2901 58.348 87.6141 58.5488 88.0264C58.7496 88.4387 58.7928 88.9107 58.6703 89.3529C58.5479 89.7951 58.2682 90.1769 57.8843 90.4258C57.5004 90.6747 57.0389 90.7735 56.5873 90.7034H56.5873Z" fill="#FFB8B8"/>
<path d="M43.7711 81.7769L43.759 81.7573L38.2533 72.8001C38.0609 72.4543 37.9533 72.0674 37.9395 71.6715C37.9257 71.2755 38.0062 70.882 38.1742 70.5236C38.3347 70.174 38.577 69.8686 38.8804 69.6333C39.1838 69.3981 39.5393 69.2401 39.9166 69.1727V69.1727C40.107 69.1378 40.3002 69.1209 40.4938 69.1221C40.891 69.13 41.28 69.2375 41.6254 69.4347C41.9708 69.632 42.2616 69.9128 42.4716 70.2516L49.9071 80.1278L56.0696 84.5059C56.163 84.5722 56.2418 84.6572 56.3009 84.7556C56.3601 84.8539 56.3984 84.9634 56.4135 85.0773C56.4286 85.1912 56.4201 85.307 56.3885 85.4175C56.357 85.5279 56.3031 85.6306 56.2302 85.7192L54.7955 87.4618C54.6701 87.6151 54.4943 87.7183 54.2997 87.7528C54.1052 87.7872 53.9049 87.7507 53.7348 87.6497L43.7711 81.7769Z" fill="#5999F1"/>
<path d="M38.3951 61.9327C38.7293 61.3804 39.4668 61.2244 40.107 61.2874C40.7473 61.3504 41.37 61.5765 42.0133 61.5715C43.7996 61.5575 45.1784 59.3704 44.4274 57.7421C43.8115 56.4068 42.2732 55.8204 40.8817 55.3602C37.9641 54.3953 34.6126 53.4682 31.9651 55.0327C31.1214 55.5461 30.4294 56.2764 29.9606 57.1482C29.4918 58.02 29.2632 59.0018 29.2984 59.9921C29.358 61.2233 29.8274 62.4881 29.4304 63.6545C28.9724 65.0002 27.5203 65.7222 26.148 66.0714C23.7424 66.6837 21.206 66.5851 18.7854 67.1342C16.3648 67.6833 13.8843 69.1413 13.2318 71.5466C12.8032 73.1265 13.2504 74.8272 13.991 76.2859C14.7466 77.7742 15.7967 79.0918 17.077 80.1581C18.3572 81.2244 19.8407 82.0169 21.4365 82.4871C23.0323 82.9574 24.7068 83.0954 26.3576 82.8927C28.0083 82.6901 29.6005 82.151 31.0366 81.3086C33.963 79.592 36.0757 76.6908 37.3353 73.5304C38.0495 71.6869 38.5522 69.7676 38.8339 67.8097C39.116 65.9769 38.8766 64.1248 38.3657 62.3427C38.3415 62.2761 38.3316 62.2052 38.3367 62.1345C38.3418 62.0638 38.3617 61.995 38.3951 61.9327V61.9327Z" fill="#2F2E41"/>
</g>
<defs>
<clipPath id="clip0">
<rect width="146" height="166" fill="white"/>
</clipPath>
</defs>
</svg>
