<svg width="146" height="146" viewBox="0 0 146 146" fill="none" xmlns="http://www.w3.org/2000/svg">
<g clip-path="url(#clip0)">
<path d="M125.085 59.589C125.085 76.5081 115.149 91.476 99.9173 100.588C90.1515 106.431 78.2075 109.866 65.3111 109.866C48.1305 109.866 35.0251 103.384 25.1669 93.454C16.0803 84.3037 9.75327 72.2232 5.53751 59.589C-13.2827 3.17982 18.1567 -12.2094 65.3111 9.31169C95.3345 23.0158 125.085 31.8224 125.085 59.589Z" fill="#56CCF2" fill-opacity="0.1"/>
<path d="M99.9174 30.0583V100.721C90.1516 106.564 78.2076 110 65.3112 110C48.1307 110 35.0252 103.518 25.167 93.5877V30.0583H99.9174Z" fill="#56CCF2" fill-opacity="0.3"/>
<path d="M32.3567 64.4892C36.2705 63.2464 40.3312 62.5236 44.4341 62.3396C46.49 62.2523 48.5496 62.3328 50.5924 62.5802C52.6154 62.8473 54.614 63.2744 56.5692 63.8576C58.501 64.416 60.4061 65.0611 62.3314 65.6408C64.2873 66.2371 66.2756 66.7215 68.2867 67.0916C70.2874 67.453 72.308 67.6934 74.3377 67.8116C76.3476 67.9282 78.3771 67.9509 80.3813 67.7372C82.2533 67.5573 84.0869 67.0932 85.8188 66.3611C87.434 65.6575 88.9267 64.7016 90.2409 63.5295C90.5689 63.2372 90.8844 62.9321 91.1875 62.614C91.3663 62.4274 91.0826 62.1433 90.9033 62.3303C88.3414 65.004 84.974 66.6618 81.3215 67.2154C79.3318 67.517 77.304 67.5345 75.2968 67.4567C73.2446 67.3777 71.1993 67.1714 69.1728 66.839C67.1707 66.5075 65.1902 66.0575 63.2416 65.4912C61.3276 64.9377 59.4396 64.2994 57.5323 63.7239C55.6082 63.1208 53.644 62.6536 51.6543 62.3258C49.6588 62.0224 47.6418 61.8826 45.6235 61.9079C41.5904 61.9723 37.5833 62.5647 33.7046 63.67C33.2175 63.8066 32.7325 63.9507 32.2499 64.1023C32.0039 64.1793 32.1089 64.5667 32.3567 64.4892H32.3567Z" fill="#3F3D56"/>
<path d="M32.3567 74.6533C36.2705 73.4104 40.3312 72.6877 44.4341 72.5037C46.49 72.4164 48.5496 72.4968 50.5924 72.7442C52.6154 73.0113 54.614 73.4385 56.5692 74.0217C58.501 74.5801 60.4061 75.2251 62.3314 75.8048C64.2873 76.4012 66.2756 76.8855 68.2867 77.2556C70.2874 77.6171 72.308 77.8575 74.3377 77.9756C76.3476 78.0923 78.3771 78.115 80.3813 77.9013C82.2533 77.7213 84.0869 77.2573 85.8188 76.5252C87.434 75.8215 88.9267 74.8657 90.2409 73.6935C90.5689 73.4013 90.8844 73.0961 91.1875 72.7781C91.3663 72.5915 91.0826 72.3074 90.9033 72.4944C88.3414 75.1681 84.974 76.8259 81.3215 77.3795C79.3318 77.6811 77.304 77.6986 75.2968 77.6208C73.2446 77.5417 71.1993 77.3354 69.1728 77.0031C67.1707 76.6716 65.1902 76.2216 63.2416 75.6553C61.3276 75.1017 59.4396 74.4635 57.5323 73.888C55.6082 73.2848 53.644 72.8176 51.6543 72.4899C49.6588 72.1865 47.6418 72.0467 45.6235 72.072C41.5904 72.1364 37.5833 72.7288 33.7046 73.8341C33.2175 73.9706 32.7325 74.1147 32.2499 74.2664C32.0039 74.3434 32.1089 74.7308 32.3567 74.6533H32.3567Z" fill="#3F3D56"/>
<path d="M32.3567 55.2614C36.2705 54.0186 40.3312 53.2958 44.4341 53.1118C46.49 53.0245 48.5496 53.105 50.5924 53.3524C52.6154 53.6195 54.614 54.0467 56.5692 54.6298C58.501 55.1882 60.4061 55.8333 62.3314 56.413C64.2873 57.0093 66.2756 57.4937 68.2867 57.8638C70.2874 58.2252 72.308 58.4657 74.3377 58.5838C76.3476 58.7004 78.3771 58.7232 80.3813 58.5094C82.2533 58.3295 84.0869 57.8655 85.8188 57.1334C87.434 56.4297 88.9267 55.4738 90.2409 54.3017C90.5689 54.0094 90.8844 53.7043 91.1875 53.3863C91.3663 53.1997 91.0826 52.9155 90.9033 53.1026C88.3414 55.7762 84.974 57.434 81.3215 57.9877C79.3318 58.2892 77.304 58.3067 75.2968 58.229C73.2446 58.1499 71.1993 57.9436 69.1728 57.6112C67.1707 57.2798 65.1902 56.8297 63.2416 56.2635C61.3276 55.7099 59.4396 55.0716 57.5323 54.4961C55.6082 53.893 53.644 53.4258 51.6543 53.0981C49.6588 52.7946 47.6418 52.6548 45.6235 52.6802C41.5904 52.7445 37.5833 53.3369 33.7046 54.4422C33.2175 54.5788 32.7325 54.7229 32.2499 54.8745C32.0039 54.9515 32.1089 55.339 32.3567 55.2614H32.3567Z" fill="#3F3D56"/>
<path d="M31.8779 37.8141C32.8503 37.3841 33.9641 37.4591 34.9733 37.7084C36.0613 37.9773 37.086 38.4449 38.1571 38.7682C40.0743 39.3384 42.1109 39.377 44.0484 38.8797C45.1392 38.602 46.1801 38.1566 47.1338 37.5595C47.3522 37.4224 47.1508 37.0751 46.9309 37.213C45.231 38.2728 43.2659 38.8321 41.2617 38.8265C40.2566 38.825 39.257 38.6781 38.294 38.3903C37.2307 38.072 36.2143 37.6099 35.1372 37.3358C33.9959 37.0455 32.7721 36.9825 31.6751 37.4677C31.4391 37.572 31.6433 37.9179 31.8779 37.8141V37.8141Z" fill="#3F3D56"/>
<path d="M61.7384 99.3344C65.1417 99.3344 67.9006 96.5801 67.9006 93.1824C67.9006 89.7848 65.1417 87.0305 61.7384 87.0305C58.3351 87.0305 55.5762 89.7848 55.5762 93.1824C55.5762 96.5801 58.3351 99.3344 61.7384 99.3344Z" fill="#F9A826"/>
<path d="M11.7111 28.5481H11.46V73.3828H11.7111V28.5481Z" fill="#3F3D56"/>
<path d="M11.634 69.5407C14.3386 69.5407 16.5312 64.5456 16.5312 58.3838C16.5312 52.2219 14.3386 47.2268 11.634 47.2268C8.92936 47.2268 6.73682 52.2219 6.73682 58.3838C6.73682 64.5456 8.92936 69.5407 11.634 69.5407Z" fill="#F2C94C"/>
<path d="M11.634 44.0927C14.3386 44.0927 16.5312 39.0976 16.5312 32.9358C16.5312 26.774 14.3386 21.7788 11.634 21.7788C8.92936 21.7788 6.73682 26.774 6.73682 32.9358C6.73682 39.0976 8.92936 44.0927 11.634 44.0927Z" fill="#F2C94C"/>
<path d="M11.7544 23.8204L11.5138 23.7484C11.529 23.6977 13.0054 18.6467 10.5811 15.3951C9.2119 13.5586 6.86233 12.6274 3.59766 12.6274V12.3767C6.94657 12.3767 9.36414 13.3422 10.7833 15.2463C13.2826 18.5999 11.77 23.7686 11.7544 23.8204Z" fill="#3F3D56"/>
<path d="M3.59723 15.6361C5.33098 15.6361 6.73645 14.233 6.73645 12.5021C6.73645 10.7713 5.33098 9.36816 3.59723 9.36816C1.86349 9.36816 0.458008 10.7713 0.458008 12.5021C0.458008 14.233 1.86349 15.6361 3.59723 15.6361Z" fill="#F2C94C"/>
<path d="M103.25 83.5428L100.901 105.115H117.107L117.811 103.473L118.751 105.115H134.017C134.017 105.115 132.843 82.8394 130.729 82.136C128.615 81.4326 103.25 83.5428 103.25 83.5428Z" fill="#25518C"/>
<path d="M117.106 36.1787C121.646 36.1787 125.326 32.5044 125.326 27.972C125.326 23.4396 121.646 19.7654 117.106 19.7654C112.566 19.7654 108.886 23.4396 108.886 27.972C108.886 32.5044 112.566 36.1787 117.106 36.1787Z" fill="#FFB8B8"/>
<path d="M112.409 33.1304C112.409 33.1304 113.113 40.6336 112.409 41.1026C111.704 41.5715 123.682 41.3371 123.682 41.3371C123.682 41.3371 122.038 34.5373 123.682 31.2546L112.409 33.1304Z" fill="#FFB8B8"/>
<path d="M116.637 39.4614C116.637 39.4614 122.68 40.4011 123.181 38.5244L126.266 42.7441L126.501 84.9496C126.501 84.9496 101.37 87.9978 100.431 83.0738C99.4912 78.1499 110.06 39.2269 110.06 39.2269L112.721 39.055C112.721 39.055 116.167 39.4614 116.637 39.4614Z" fill="#D0CDE1"/>
<path d="M112.681 37.1294L108.651 38.5235L97.1428 41.3372L97.6126 69.4743C97.6126 69.4743 87.7481 97.6114 92.2106 99.7216C96.6731 101.832 103.015 96.9079 104.893 93.3908C106.772 89.8737 113.349 41.1028 113.349 40.1649C113.349 39.227 112.681 37.1294 112.681 37.1294Z" fill="#5999F1"/>
<path d="M123.031 37.1294L124.622 38.5235L135.896 43.682L130.259 72.0535C130.259 72.0535 137.775 97.8458 134.957 99.2526C132.138 100.659 127.911 104.646 126.971 102.301C126.032 99.9561 120.499 39.7213 123.031 37.1294Z" fill="#5999F1"/>
<path d="M129.555 74.6327C129.555 74.6327 118.986 70.1777 118.751 74.1638C118.516 78.1499 130.729 80.9636 130.729 79.7912C130.729 78.6188 129.555 74.6327 129.555 74.6327Z" fill="#FFB8B8"/>
<path d="M103.719 72.9915C103.719 72.9915 115.932 82.136 111.235 84.4807C106.537 86.8255 100.431 76.2741 100.431 76.2741L103.719 72.9915Z" fill="#FFB8B8"/>
<path d="M120.756 15.9508C120.794 15.8692 120.857 15.801 120.934 15.7549C121.012 15.7089 121.102 15.6871 121.192 15.6923C117.429 15.4676 113.465 15.9055 110.316 17.9759C109.434 18.5558 108.611 19.2648 107.607 19.5916L108.422 20.2295L107.448 20.5258L108.881 21.4503C108.736 21.6145 108.551 21.7376 108.343 21.8071C108.135 21.8765 107.913 21.8899 107.698 21.8459C108.321 22.0275 108.779 22.5807 109.012 23.1851C109.245 23.7896 109.287 24.4479 109.326 25.0943C109.567 24.1616 110.587 23.6126 111.55 23.5568C112.513 23.501 113.452 23.8182 114.39 24.0463C116.431 24.5416 118.552 24.623 120.625 24.2858C119.921 25.6966 120.515 27.3793 121.113 28.8382L122.306 31.7512C122.969 31.8177 123.437 31.1599 123.937 30.7198C124.391 30.3187 122.58 33.8461 122.861 33.7169C123.225 33.549 127.07 29.3111 127.25 28.953C128.071 27.3195 128.564 25.4976 128.49 23.6713C128.416 21.845 127.747 20.0178 126.486 18.6925C125.63 17.7929 124.445 17.6353 123.572 16.8876C123.229 16.5933 123.228 16.3634 122.756 16.1918C122.599 16.1348 120.782 15.8933 120.756 15.9508Z" fill="#85555C"/>
<path d="M98.7871 42.0406L97.143 41.3372L83.9904 62.9089C83.9904 62.9089 81.6418 68.5363 85.8694 71.1155C90.097 73.6948 99.9614 81.4325 99.9614 81.4325L105.598 72.7569C105.598 72.7569 94.0898 67.3639 94.7944 65.2537C95.499 63.1434 99.2568 57.516 99.2568 57.516L98.7871 42.0406Z" fill="#5999F1"/>
<path d="M132.842 43.2129L135.896 43.6818C135.896 43.6818 148.579 68.5362 145.525 73.2258C142.472 77.9153 130.024 84.4806 130.024 84.4806C130.024 84.4806 129.789 76.7429 127.675 73.9292L134.956 71.1155L130.963 55.6401L132.842 43.2129Z" fill="#5999F1"/>
</g>
<defs>
<clipPath id="clip0">
<rect width="146" height="146" fill="white"/>
</clipPath>
</defs>
</svg>
