<svg width="136" height="146" viewBox="0 0 136 146" fill="none" xmlns="http://www.w3.org/2000/svg">
<g clip-path="url(#clip0)">
<path d="M86.019 81.8673L27.2333 96.9706L27.2322 96.9709C25.4943 97.415 23.6509 97.1533 22.1063 96.2434C20.5617 95.3335 19.4425 93.85 18.9935 92.1187C18.9934 92.1185 18.9934 92.1183 18.9933 92.1182L1.21491 23.2369C1.21485 23.2367 1.21479 23.2365 1.21472 23.2362C0.769923 21.504 1.0318 19.6664 1.94326 18.1262C2.85478 16.586 4.34181 15.4686 6.07871 15.0201C6.07892 15.0201 6.07913 15.02 6.07933 15.02L60.4327 1.05539L73.6728 6.96894L90.8834 73.6503C90.8835 73.6507 90.8836 73.651 90.8837 73.6513C91.3284 75.3835 91.0665 77.221 90.1551 78.761C89.2434 80.3015 87.7561 81.4189 86.019 81.8673Z" stroke="#56CCF2" stroke-opacity="0.1" stroke-width="2"/>
<path d="M3.76172 18.2127C2.30396 18.5884 1.05533 19.5249 0.289762 20.8167C-0.47581 22.1085 -0.695799 23.6501 -0.321945 25.1033L17.9394 95.7541C18.3165 97.2065 19.2565 98.4504 20.5531 99.2132C21.8497 99.9759 23.397 100.195 24.8556 99.8226L85.2383 84.3312C86.696 83.9554 87.9447 83.019 88.7102 81.7272C89.4758 80.4354 89.6958 78.8938 89.3219 77.4406L71.7962 9.63576L59.1602 4L3.76172 18.2127Z" fill="#56CCF2" fill-opacity="0.1"/>
<path d="M74.3707 6.60764L65.2725 8.94517C64.6083 9.11582 63.9033 9.01623 63.3127 8.66831C62.7221 8.3204 62.2943 7.75265 62.1232 7.08998L60.3928 0.385552C60.3852 0.3562 60.3861 0.325312 60.3953 0.29643C60.4045 0.267548 60.4217 0.241843 60.4449 0.22226C60.4681 0.202677 60.4963 0.19001 60.5264 0.185712C60.5565 0.181414 60.5872 0.185658 60.6149 0.197959L74.396 6.3041C74.4266 6.31769 74.4523 6.34047 74.4694 6.36927C74.4865 6.39807 74.4942 6.43147 74.4914 6.46484C74.4887 6.4982 74.4756 6.52988 74.4539 6.55547C74.4323 6.58106 74.4032 6.59929 74.3707 6.60764V6.60764Z" fill="#25518C"/>
<path d="M69.5849 65.4327L42.8196 72.3093C42.6551 72.3515 42.484 72.361 42.3158 72.3373C42.1477 72.3135 41.9859 72.257 41.8397 72.1708C41.6935 72.0847 41.5657 71.9707 41.4637 71.8353C41.3616 71.6999 41.2873 71.5457 41.2449 71.3817C41.2026 71.2176 41.1931 71.0468 41.2169 70.8791C41.2407 70.7114 41.2974 70.5499 41.3837 70.4041C41.47 70.2582 41.5843 70.1307 41.72 70.0289C41.8558 69.927 42.0102 69.8529 42.1747 69.8107L68.94 62.9341C69.1044 62.8918 69.2756 62.8823 69.4437 62.9061C69.6118 62.9298 69.7736 62.9864 69.9198 63.0725C70.0661 63.1586 70.1938 63.2727 70.2959 63.4081C70.3979 63.5435 70.4722 63.6976 70.5146 63.8617C70.5569 64.0257 70.5665 64.1965 70.5427 64.3642C70.5189 64.532 70.4622 64.6934 70.3758 64.8393C70.2895 64.9852 70.1752 65.1127 70.0395 65.2145C69.9038 65.3163 69.7493 65.3904 69.5849 65.4327Z" fill="#CCCCCC"/>
<path d="M75.8385 68.3221L43.908 76.5257C43.5759 76.611 43.2234 76.5612 42.9281 76.3873C42.6328 76.2133 42.4189 75.9294 42.3333 75.5981C42.2478 75.2668 42.2977 74.9151 42.4721 74.6205C42.6464 74.3259 42.931 74.1124 43.2631 74.0271L75.1936 65.8234C75.5256 65.7385 75.8778 65.7885 76.1728 65.9624C76.4679 66.1364 76.6816 66.4202 76.7671 66.7513C76.8526 67.0825 76.8028 67.4339 76.6286 67.7285C76.4545 68.023 76.1703 68.2365 75.8385 68.3221V68.3221Z" fill="#CCCCCC"/>
<path d="M31.8953 80.5915C34.4193 80.5915 36.4655 78.5501 36.4655 76.0318C36.4655 73.5136 34.4193 71.4722 31.8953 71.4722C29.3713 71.4722 27.3252 73.5136 27.3252 76.0318C27.3252 78.5501 29.3713 80.5915 31.8953 80.5915Z" fill="#F2994A"/>
<path d="M66.7391 53.4998L31.1921 62.6292C30.1648 62.8918 29.075 62.7371 28.1619 62.1991C27.2487 61.661 26.5868 60.7836 26.3212 59.7592L18.8719 30.8866C18.6087 29.8616 18.7637 28.7744 19.303 27.8633C19.8423 26.9522 20.7217 26.2918 21.7485 26.0269L57.2954 16.8975C58.3228 16.6349 59.4125 16.7896 60.3257 17.3276C61.2388 17.8656 61.9008 18.7431 62.1663 19.7675L69.6156 48.6401C69.8789 49.665 69.7238 50.7523 69.1845 51.6634C68.6453 52.5744 67.7658 53.2349 66.7391 53.4998Z" fill="#EAF5FB"/>
<path d="M55.4914 26.6057L37.5513 31.2132C37.3945 31.2569 37.2268 31.2395 37.0823 31.1646C36.9378 31.0897 36.8272 30.9629 36.7728 30.8097C36.7475 30.7297 36.7388 30.6454 36.7473 30.562C36.7557 30.4785 36.7811 30.3976 36.8219 30.3243C36.8627 30.2509 36.918 30.1866 36.9845 30.1353C37.0511 30.084 37.1274 30.0467 37.2088 30.0258L55.4707 25.3357C56.2084 25.7086 56.0143 26.4714 55.4912 26.6057L55.4914 26.6057Z" fill="#CCCCCC"/>
<path d="M56.3019 29.7453L38.3618 34.3528C38.205 34.3965 38.0374 34.3791 37.8929 34.3043C37.7484 34.2294 37.6377 34.1025 37.5834 33.9494C37.5581 33.8694 37.5494 33.7851 37.5578 33.7016C37.5662 33.6181 37.5916 33.5373 37.6324 33.4639C37.6732 33.3906 37.7286 33.3263 37.7951 33.2749C37.8616 33.2236 37.9379 33.1864 38.0193 33.1655L56.2813 28.4753C57.019 28.8483 56.8248 29.611 56.3017 29.7454L56.3019 29.7453Z" fill="#CCCCCC"/>
<path d="M34.945 37.1362L29.4699 38.5424C29.291 38.5881 29.1013 38.5612 28.9424 38.4675C28.7835 38.3739 28.6682 38.2212 28.622 38.0428L26.9588 31.5965C26.913 31.4181 26.94 31.2289 27.0339 31.0703C27.1277 30.9117 27.2808 30.7967 27.4595 30.7506L32.9347 29.3445C33.1135 29.2988 33.3032 29.3258 33.4621 29.4194C33.621 29.513 33.7362 29.6658 33.7825 29.844L35.4457 36.2904C35.4915 36.4688 35.4645 36.658 35.3707 36.8166C35.2768 36.9752 35.1237 37.0901 34.945 37.1362V37.1362Z" fill="#F2994A"/>
<path d="M57.9082 36.1871L30.5283 43.2189C30.3715 43.2626 30.2039 43.2452 30.0594 43.1703C29.9149 43.0955 29.8043 42.9686 29.7499 42.8155C29.7246 42.7355 29.7159 42.6512 29.7243 42.5677C29.7327 42.4842 29.7581 42.4034 29.7989 42.33C29.8397 42.2566 29.8951 42.1924 29.9616 42.141C30.0281 42.0897 30.1044 42.0525 30.1858 42.0316L57.8878 34.917C58.6254 35.2899 58.4313 36.0527 57.9082 36.187L57.9082 36.1871Z" fill="#CCCCCC"/>
<path d="M58.7178 39.3274L31.3379 46.3593C31.1811 46.403 31.0135 46.3856 30.869 46.3107C30.7244 46.2358 30.6138 46.109 30.5595 45.9559C30.5342 45.8759 30.5255 45.7916 30.5339 45.7081C30.5423 45.6246 30.5677 45.5437 30.6085 45.4704C30.6493 45.397 30.7046 45.3327 30.7712 45.2814C30.8377 45.2301 30.914 45.1929 30.9954 45.172L58.6973 38.0574C59.435 38.4303 59.2409 39.1931 58.7178 39.3274V39.3274Z" fill="#CCCCCC"/>
<path d="M59.5279 42.4659L32.148 49.4977C31.9911 49.5414 31.8235 49.5241 31.679 49.4492C31.5345 49.3743 31.4239 49.2474 31.3695 49.0943C31.3442 49.0143 31.3355 48.93 31.3439 48.8465C31.3524 48.7631 31.3778 48.6822 31.4186 48.6088C31.4593 48.5355 31.5147 48.4712 31.5812 48.4199C31.6477 48.3686 31.7241 48.3313 31.8055 48.3104L59.5074 41.1958C60.2451 41.5687 60.051 42.3315 59.5279 42.4659V42.4659Z" fill="#CCCCCC"/>
<path d="M60.3379 45.6062L32.958 52.6381C32.8012 52.6818 32.6336 52.6644 32.4891 52.5895C32.3446 52.5146 32.2339 52.3878 32.1796 52.2346C32.1543 52.1546 32.1456 52.0703 32.154 51.9869C32.1624 51.9034 32.1878 51.8225 32.2286 51.7492C32.2694 51.6758 32.3248 51.6115 32.3913 51.5602C32.4578 51.5089 32.5341 51.4717 32.6155 51.4507L60.3174 44.3362C61.0551 44.7091 60.861 45.4719 60.3379 45.6062L60.3379 45.6062Z" fill="#CCCCCC"/>
<path d="M61.148 48.7449L33.7681 55.7768C33.6112 55.8205 33.4436 55.8031 33.2991 55.7282C33.1546 55.6533 33.044 55.5265 32.9896 55.3733C32.9643 55.2933 32.9556 55.209 32.9641 55.1256C32.9725 55.0421 32.9979 54.9612 33.0387 54.8879C33.0795 54.8145 33.1348 54.7502 33.2013 54.6989C33.2679 54.6476 33.3442 54.6104 33.4256 54.5894L61.1275 47.4749C61.8652 47.8478 61.6711 48.6106 61.148 48.7449V48.7449Z" fill="#CCCCCC"/>
<path d="M32.232 77.6301C32.1325 77.6558 32.0273 77.6486 31.9323 77.6095L31.9264 77.607L30.6814 77.0804C30.6236 77.056 30.5712 77.0205 30.5272 76.9759C30.4832 76.9313 30.4484 76.8784 30.4249 76.8204C30.4014 76.7624 30.3896 76.7003 30.3902 76.6377C30.3907 76.5751 30.4036 76.5132 30.4282 76.4556C30.4527 76.398 30.4884 76.3458 30.5332 76.3019C30.578 76.2581 30.631 76.2235 30.6893 76.2001C30.7475 76.1768 30.8097 76.1651 30.8725 76.1657C30.9352 76.1664 30.9972 76.1794 31.0549 76.204L31.8616 76.5463L32.9188 74.0651C32.9433 74.0076 32.9789 73.9555 33.0237 73.9117C33.0684 73.8679 33.1213 73.8333 33.1794 73.8099C33.2375 73.7866 33.2997 73.7748 33.3623 73.7754C33.425 73.776 33.4869 73.7889 33.5445 73.8133L33.5447 73.8134L33.5383 73.8296L33.545 73.8133C33.6613 73.8629 33.7532 73.9564 33.8005 74.0735C33.8479 74.1906 33.8467 74.3216 33.7973 74.4378L32.5535 77.3551C32.5247 77.4224 32.4807 77.4821 32.425 77.5297C32.3693 77.5773 32.3034 77.6114 32.2323 77.6294L32.232 77.6301Z" fill="white"/>
<path opacity="0.1" d="M43.3298 106.106C42.0618 104.841 41.3489 103.126 41.3467 101.338V30.2082C41.3489 28.42 42.0618 26.7053 43.3298 25.4402C44.5979 24.175 46.3176 23.4629 48.1119 23.4607H104.239L115.582 32.4809V101.337C115.58 103.125 114.867 104.84 113.599 106.106C112.33 107.371 110.611 108.083 108.816 108.085H48.1125C46.318 108.083 44.598 107.371 43.3298 106.106Z" fill="white" stroke="#56CCF2" stroke-width="2"/>
<path d="M49.2787 26C47.7466 26.0017 46.2778 26.6035 45.1944 27.6735C44.1111 28.7434 43.5017 30.194 43.5 31.7071V105.293C43.5017 106.806 44.1111 108.257 45.1944 109.327C46.2778 110.396 47.7466 110.998 49.2787 111H112.721C114.253 110.998 115.722 110.396 116.806 109.327C117.889 108.257 118.498 106.806 118.5 105.293V34.6714L107.485 26H49.2787Z" fill="#56CCF2" fill-opacity="0.1"/>
<path d="M97.0101 45.3738H69.3716C69.0287 45.3738 68.6998 45.2379 68.4573 44.996C68.2148 44.754 68.0786 44.4259 68.0786 44.0838C68.0786 43.7416 68.2148 43.4135 68.4573 43.1716C68.6998 42.9296 69.0287 42.7937 69.3716 42.7937H97.0101C97.3531 42.7937 97.6819 42.9296 97.9244 43.1716C98.1669 43.4135 98.3031 43.7416 98.3031 44.0838C98.3031 44.4259 98.1669 44.754 97.9244 44.996C97.6819 45.2379 97.3531 45.3738 97.0101 45.3738V45.3738Z" fill="#F9A826"/>
<path d="M102.344 49.7278H69.3714C69.0287 49.7274 68.7003 49.5913 68.4582 49.3494C68.2161 49.1075 68.0801 48.7796 68.0801 48.4378C68.0801 48.0959 68.2161 47.7681 68.4582 47.5262C68.7003 47.2843 69.0287 47.1482 69.3714 47.1477H102.344C102.514 47.1475 102.682 47.1807 102.839 47.2454C102.996 47.3101 103.139 47.4051 103.259 47.5249C103.379 47.6448 103.475 47.787 103.54 47.9437C103.605 48.1003 103.638 48.2682 103.638 48.4378C103.638 48.6073 103.605 48.7752 103.54 48.9319C103.475 49.0885 103.379 49.2308 103.259 49.3506C103.139 49.4704 102.996 49.5654 102.839 49.6301C102.682 49.6949 102.514 49.7281 102.344 49.7278V49.7278Z" fill="#F9A826"/>
<path d="M97.0101 62.3052H69.3725C69.0296 62.3052 68.7008 62.4411 68.4583 62.683C68.2158 62.9249 68.0796 63.253 68.0796 63.5952C68.0796 63.9373 68.2158 64.2654 68.4583 64.5073C68.7008 64.7492 69.0296 64.8851 69.3725 64.8851H97.0101C97.353 64.8851 97.6819 64.7492 97.9244 64.5073C98.1668 64.2654 98.3031 63.9373 98.3031 63.5952C98.3031 63.253 98.1668 62.9249 97.9244 62.683C97.6819 62.4411 97.353 62.3052 97.0101 62.3052V62.3052Z" fill="#CCCCCC"/>
<path d="M102.345 66.6599H69.373C69.0301 66.6599 68.7012 66.7958 68.4588 67.0377C68.2163 67.2797 68.0801 67.6078 68.0801 67.9499C68.0801 68.292 68.2163 68.6201 68.4588 68.862C68.7012 69.104 69.0301 69.2399 69.373 69.2399H102.345C102.688 69.2399 103.016 69.104 103.259 68.862C103.501 68.6201 103.638 68.292 103.638 67.9499C103.638 67.6078 103.501 67.2797 103.259 67.0377C103.016 66.7958 102.688 66.6599 102.345 66.6599Z" fill="#CCCCCC"/>
<path d="M97.0101 84.3982H69.3716C69.0287 84.3982 68.6998 84.2623 68.4573 84.0204C68.2148 83.7785 68.0786 83.4503 68.0786 83.1082C68.0786 82.766 68.2148 82.4379 68.4573 82.196C68.6998 81.954 69.0287 81.8181 69.3716 81.8181H97.0101C97.3531 81.8181 97.6819 81.954 97.9244 82.196C98.1669 82.4379 98.3031 82.766 98.3031 83.1082C98.3031 83.4503 98.1669 83.7785 97.9244 84.0204C97.6819 84.2623 97.3531 84.3982 97.0101 84.3982V84.3982Z" fill="#CCCCCC"/>
<path d="M102.344 88.7523H69.3714C69.0287 88.7518 68.7003 88.6157 68.4582 88.3738C68.2161 88.1319 68.0801 87.804 68.0801 87.4622C68.0801 87.1203 68.2161 86.7925 68.4582 86.5506C68.7003 86.3087 69.0287 86.1726 69.3714 86.1721H102.344C102.514 86.1719 102.682 86.2051 102.839 86.2698C102.996 86.3346 103.139 86.4295 103.259 86.5494C103.379 86.6692 103.475 86.8115 103.54 86.9681C103.605 87.1247 103.638 87.2926 103.638 87.4622C103.638 87.6318 103.605 87.7997 103.54 87.9563C103.475 88.1129 103.379 88.2552 103.259 88.375C103.139 88.4948 102.996 88.5898 102.839 88.6546C102.682 88.7193 102.514 88.7525 102.344 88.7523Z" fill="#CCCCCC"/>
<path d="M57.8626 50.8205C60.3866 50.8205 62.4328 48.7791 62.4328 46.2609C62.4328 43.7426 60.3866 41.7012 57.8626 41.7012C55.3386 41.7012 53.2925 43.7426 53.2925 46.2609C53.2925 48.7791 55.3386 50.8205 57.8626 50.8205Z" fill="#F9A826"/>
<path d="M57.4094 48.0001C57.3066 48.0003 57.2066 47.9671 57.1243 47.9055L57.1192 47.9017L56.0451 47.082C55.9952 47.044 55.9534 46.9966 55.9219 46.9424C55.8904 46.8882 55.8699 46.8284 55.8616 46.7663C55.8533 46.7042 55.8574 46.6411 55.8736 46.5806C55.8897 46.5201 55.9177 46.4634 55.9559 46.4137C55.9941 46.364 56.0418 46.3223 56.0961 46.291C56.1505 46.2597 56.2105 46.2394 56.2727 46.2313C56.335 46.2231 56.3982 46.2273 56.4588 46.2436C56.5194 46.2599 56.5762 46.2879 56.6259 46.3261L57.3216 46.8584L58.9655 44.7186C59.0037 44.669 59.0512 44.6274 59.1054 44.5961C59.1597 44.5648 59.2196 44.5445 59.2817 44.5363C59.3438 44.5281 59.4069 44.5322 59.4675 44.5484C59.528 44.5645 59.5847 44.5924 59.6345 44.6305L59.6346 44.6306L59.6244 44.6447L59.6349 44.6306C59.7352 44.7075 59.8008 44.821 59.8174 44.9461C59.8339 45.0713 59.8 45.1978 59.7231 45.2981L57.7895 47.8138C57.7448 47.8718 57.6873 47.9187 57.6214 47.9509C57.5556 47.9831 57.4832 47.9997 57.4099 47.9995L57.4094 48.0001Z" fill="white"/>
<path d="M62.902 65.7724C62.9022 66.3713 62.7842 66.9643 62.5546 67.5177C62.3251 68.071 61.9886 68.5738 61.5643 68.9974C61.1399 69.421 60.6361 69.757 60.0816 69.9863C59.5271 70.2155 58.9328 70.3336 58.3326 70.3337C58.2933 70.3345 58.254 70.3329 58.2149 70.329C57.3163 70.306 56.4445 70.0191 55.7085 69.5042C54.9725 68.9893 54.405 68.2693 54.0771 67.4343C53.7492 66.5992 53.6754 65.6862 53.865 64.8096C54.0545 63.9329 54.499 63.1315 55.1429 62.5056C55.7867 61.8797 56.6012 61.4571 57.4845 61.2908C58.3678 61.1244 59.2807 61.2217 60.1088 61.5704C60.937 61.9191 61.6437 62.5037 62.1406 63.2511C62.6374 63.9985 62.9022 64.8756 62.902 65.7724Z" fill="#CCCCCC"/>
<path d="M57.8626 89.8449C60.3866 89.8449 62.4328 87.8035 62.4328 85.2852C62.4328 82.767 60.3866 80.7256 57.8626 80.7256C55.3386 80.7256 53.2925 82.767 53.2925 85.2852C53.2925 87.8035 55.3386 89.8449 57.8626 89.8449Z" fill="#CCCCCC"/>
<path d="M116.349 32.3054H106.954C106.268 32.3054 105.61 32.0336 105.125 31.5497C104.64 31.0658 104.368 30.4096 104.368 29.7253V22.8021C104.368 22.7718 104.376 22.7421 104.392 22.7164C104.409 22.6908 104.432 22.6701 104.459 22.657C104.486 22.6438 104.517 22.6385 104.547 22.6418C104.577 22.6452 104.606 22.6569 104.63 22.6757L116.449 32.0178C116.475 32.0385 116.495 32.067 116.504 32.0991C116.513 32.1313 116.512 32.1655 116.501 32.1972C116.49 32.2288 116.47 32.2562 116.442 32.2756C116.415 32.295 116.382 32.3054 116.349 32.3054Z" fill="#56CCF2" fill-opacity="0.35"/>
<path d="M62.9025 65.7724C62.9027 66.3713 62.7847 66.9643 62.5552 67.5177C62.3257 68.071 61.9891 68.5738 61.5648 68.9974C61.1405 69.421 60.6367 69.757 60.0822 69.9863C59.5277 70.2155 58.9334 70.3336 58.3331 70.3337C58.2939 70.3345 58.2546 70.3329 58.2155 70.329C57.6251 68.8597 57.3975 67.2704 57.5518 65.6949C57.7062 64.1195 58.2381 62.6042 59.1025 61.2769C60.1656 61.4587 61.1301 62.0096 61.8254 62.8322C62.5208 63.6549 62.9023 64.6963 62.9025 65.7724V65.7724Z" fill="#F9A826"/>
<path d="M68.0786 63.5963C68.0792 63.2541 68.2158 62.926 68.4583 62.684C68.7009 62.442 69.0297 62.3058 69.3727 62.3052H76.2598C76.662 63.1215 76.9479 63.9899 77.1091 64.8851H69.3727C69.0299 64.885 68.7012 64.7493 68.4586 64.5077C68.216 64.2661 68.0793 63.9383 68.0786 63.5963V63.5963Z" fill="#F9A826"/>
<path d="M77.269 66.6599C77.2695 67.5313 77.154 68.3988 76.9255 69.2399H69.3725C69.0296 69.2399 68.7008 69.104 68.4583 68.862C68.2158 68.6201 68.0796 68.292 68.0796 67.9499C68.0796 67.6078 68.2158 67.2797 68.4583 67.0377C68.7008 66.7958 69.0296 66.6599 69.3725 66.6599H77.269Z" fill="#F9A826"/>
<path d="M94.3094 82.5711C94.1144 82.89 93.8004 83.1186 93.4366 83.2066C93.0727 83.2945 92.6887 83.2347 92.369 83.0401L75.8973 73.016C75.739 72.9197 75.6013 72.7932 75.492 72.6438C75.3828 72.4944 75.304 72.325 75.2604 72.1452C75.2167 71.9654 75.209 71.7788 75.2376 71.5961C75.2663 71.4133 75.3307 71.238 75.4272 71.0801C75.5238 70.9222 75.6505 70.7848 75.8003 70.6757C75.95 70.5667 76.1199 70.4882 76.3001 70.4446C76.4802 70.4011 76.6673 70.3934 76.8504 70.4219C77.0336 70.4505 77.2093 70.5148 77.3676 70.6111L93.8393 80.6352C94.159 80.8297 94.3881 81.143 94.4762 81.506C94.5644 81.8691 94.5044 82.2522 94.3094 82.5711V82.5711Z" fill="#3F3D56"/>
<path d="M77.8379 72.5469C76.6747 74.4495 74.9722 75.9653 72.9455 76.9025C70.9189 77.8397 68.6592 78.1563 66.4522 77.8122C64.2452 77.4681 62.1901 76.4788 60.5467 74.9694C58.9032 73.46 57.7453 71.4983 57.2194 69.3323C56.6934 67.1663 56.8231 64.8933 57.5919 62.8008C58.3607 60.7084 59.7341 58.8903 61.5386 57.5766C63.343 56.263 65.4974 55.5126 67.7292 55.4205C69.9611 55.3284 72.1702 55.8987 74.0772 57.0592C76.6317 58.6178 78.4623 61.1237 79.1674 64.0272C79.8724 66.9307 79.3943 69.9946 77.8379 72.5469ZM60.9645 62.2783C60.0921 63.7053 59.6634 65.3583 59.7326 67.0284C59.8019 68.6984 60.3659 70.3105 61.3534 71.6607C62.3409 73.0109 63.7076 74.0387 65.2806 74.614C66.8535 75.1892 68.5621 75.2862 70.1904 74.8927C71.8186 74.4991 73.2933 73.6327 74.4279 72.4029C75.5626 71.1732 76.3063 69.6354 76.5649 67.9839C76.8236 66.3325 76.5856 64.6416 75.8811 63.1251C75.1765 61.6086 74.0371 60.3346 72.6069 59.4642C70.6883 58.2996 68.3851 57.9418 66.2024 58.4694C64.0198 58.997 62.1361 60.3668 60.9645 62.2783V62.2783Z" fill="#3F3D56"/>
<path d="M114.024 68.4858C117.216 68.4858 119.803 65.9043 119.803 62.7199C119.803 59.5355 117.216 56.9541 114.024 56.9541C110.832 56.9541 108.245 59.5355 108.245 62.7199C108.245 65.9043 110.832 68.4858 114.024 68.4858Z" fill="#A0616A"/>
<path d="M113.651 95.0437C113.539 94.6973 113.502 94.3312 113.543 93.9696C113.583 93.6079 113.699 93.2588 113.884 92.9452C114.069 92.6315 114.318 92.3604 114.615 92.1495C114.913 91.9387 115.251 91.7929 115.609 91.7216C115.722 91.6996 115.837 91.6855 115.952 91.6795L122.04 81.9316L116.479 76.6574C116.267 76.4559 116.096 76.2144 115.978 75.9469C115.86 75.6793 115.795 75.391 115.789 75.0986C115.783 74.8062 115.835 74.5154 115.942 74.2432C116.05 73.971 116.21 73.7226 116.414 73.5125C116.618 73.3023 116.861 73.1346 117.13 73.0189C117.4 72.9032 117.689 72.8419 117.982 72.8385C118.275 72.8351 118.566 72.8897 118.838 72.9991C119.11 73.1085 119.358 73.2705 119.566 73.4759L127.244 81.0288L127.259 81.0476C127.497 81.4082 127.611 81.8355 127.586 82.2662C127.561 82.6969 127.397 83.108 127.119 83.4385L118.59 93.5032C118.615 93.5838 118.637 93.6658 118.654 93.7487C118.725 94.1056 118.72 94.4734 118.639 94.8282C118.558 95.183 118.402 95.5167 118.183 95.8074C117.964 96.0981 117.685 96.3393 117.366 96.5151C117.046 96.691 116.693 96.7975 116.33 96.8278C116.257 96.8342 116.183 96.8374 116.111 96.8374C115.564 96.8351 115.031 96.6605 114.589 96.3384C114.148 96.0163 113.819 95.5632 113.651 95.0437V95.0437Z" fill="#A0616A"/>
<path d="M104.506 142.966L101.621 142.966L100.249 131.865L104.506 131.865L104.506 142.966Z" fill="#A0616A"/>
<path d="M105.241 145.756L95.9399 145.755V145.638C95.9399 145.164 96.0336 144.694 96.2155 144.256C96.3974 143.818 96.6641 143.419 97.0003 143.084C97.3365 142.749 97.7356 142.483 98.1748 142.301C98.6141 142.12 99.0849 142.026 99.5603 142.026H99.5605L105.241 142.026L105.241 145.756Z" fill="#2F2E41"/>
<path d="M133.178 138.987L130.699 140.459L123.828 131.621L127.486 129.448L133.178 138.987Z" fill="#A0616A"/>
<path d="M135.24 141.008L127.248 145.755L127.188 145.655C126.945 145.247 126.784 144.796 126.716 144.326C126.647 143.857 126.672 143.379 126.789 142.919C126.906 142.459 127.113 142.027 127.397 141.647C127.681 141.266 128.038 140.946 128.446 140.703L128.447 140.703L133.328 137.803L135.24 141.008Z" fill="#2F2E41"/>
<path d="M99.8853 138.077C97.9529 115.375 96.8033 94.2846 103.867 85.6812L103.922 85.6145L115.81 90.3591L115.83 90.4015C115.87 90.4886 119.824 99.1656 118.902 105.002L121.834 118.46L131.395 134.433C131.472 134.562 131.521 134.705 131.538 134.854C131.555 135.003 131.541 135.153 131.495 135.296C131.449 135.439 131.374 135.57 131.274 135.681C131.173 135.793 131.05 135.882 130.913 135.942L126.758 137.766C126.523 137.868 126.26 137.882 126.016 137.806C125.772 137.73 125.563 137.568 125.429 137.351L115.028 120.43L109.153 107.452C109.121 107.381 109.067 107.323 108.999 107.286C108.93 107.25 108.852 107.237 108.775 107.249C108.699 107.261 108.628 107.298 108.575 107.354C108.522 107.41 108.489 107.482 108.48 107.559L105.224 138.1C105.197 138.36 105.074 138.6 104.879 138.774C104.685 138.949 104.432 139.045 104.171 139.045H100.941C100.676 139.043 100.421 138.943 100.226 138.764C100.03 138.585 99.9092 138.34 99.8853 138.077Z" fill="#25518C"/>
<path d="M103.907 85.8614L103.851 85.8343L103.842 85.7722C103.398 82.6711 103.923 79.2254 105.404 75.531C106.134 73.7229 107.491 72.2365 109.227 71.3427C110.963 70.4489 112.963 70.2071 114.863 70.6615V70.6615C115.958 70.9305 116.984 71.4234 117.878 72.1089C118.771 72.7944 119.512 73.6576 120.054 74.6438C120.589 75.6199 120.914 76.6961 121.011 77.8044C121.107 78.9126 120.971 80.0287 120.612 81.0819C118.745 86.5283 116.324 91.6241 116.3 91.675L116.249 91.7813L103.907 85.8614Z" fill="#F2C94C"/>
<path d="M90.9363 78.1371C91.2225 77.9116 91.5533 77.749 91.9069 77.66C92.2605 77.5709 92.629 77.5574 92.9882 77.6204C93.3474 77.6833 93.6893 77.8213 93.9913 78.0252C94.2934 78.2291 94.5488 78.4945 94.7409 78.8038C94.8013 78.9019 94.8547 79.0042 94.9007 79.1099L106.184 81.3851L109.188 74.3417C109.303 74.0725 109.47 73.8288 109.68 73.6244C109.89 73.4201 110.138 73.2592 110.41 73.1511C110.683 73.043 110.974 72.9899 111.267 72.9947C111.56 72.9995 111.849 73.0622 112.118 73.1792C112.387 73.2961 112.629 73.465 112.832 73.6761C113.035 73.8873 113.194 74.1364 113.3 74.4091C113.406 74.6819 113.457 74.9728 113.449 75.2652C113.442 75.5576 113.376 75.8456 113.256 76.1126L108.854 85.9324L108.842 85.9535C108.586 86.3017 108.225 86.5584 107.812 86.6857C107.399 86.813 106.956 86.804 106.548 86.66L94.1123 82.2136C94.0455 82.2656 93.976 82.3141 93.904 82.3589C93.594 82.5505 93.2469 82.6746 92.8854 82.7231C92.5239 82.7715 92.1562 82.7432 91.8065 82.64C91.4567 82.5368 91.1328 82.361 90.8559 82.1242C90.579 81.8874 90.3553 81.5949 90.1996 81.2658C90.1679 81.1994 90.1393 81.1322 90.1138 81.0642C89.9243 80.552 89.9018 79.9933 90.0495 79.4677C90.1972 78.942 90.5076 78.4763 90.9363 78.1371V78.1371Z" fill="#A0616A"/>
<path d="M134.901 68.8947C134.345 67.9107 133.534 67.0094 132.461 66.6456C131.077 66.1759 129.578 66.676 128.154 67.01C127.057 67.2673 125.911 67.4247 124.806 67.2076C123.7 66.9905 122.634 66.3486 122.131 65.3427C121.391 63.8629 122.014 62.0983 121.969 60.4451C121.946 59.5452 121.718 58.6623 121.303 57.8629C120.889 57.0635 120.297 56.3685 119.574 55.8303C118.851 55.2921 118.014 54.9247 117.128 54.7559C116.242 54.587 115.329 54.6211 114.458 54.8555C113.095 54.463 111.86 54.4267 111.017 55.4722C109.956 55.4722 108.939 55.8927 108.189 56.6411C107.439 57.3895 107.017 58.4046 107.017 59.463H110.842C110.661 60.4361 110.868 61.4413 111.419 62.2639C112.095 63.2536 113.269 63.9695 113.495 65.1453C113.714 66.2847 112.937 67.3658 112.123 68.194C111.309 69.0222 110.364 69.8429 110.11 70.975C109.954 71.8344 110.131 72.7207 110.605 73.4551C111.078 74.1805 111.665 74.8254 112.343 75.365C115.398 77.9766 119.029 79.83 122.94 80.7738C125.694 81.4353 128.706 81.6068 131.262 80.3899C132.285 79.9031 133.197 79.2117 133.94 78.3586C134.684 77.5055 135.243 76.509 135.585 75.4309C135.926 74.3529 136.041 73.2164 135.924 72.092C135.806 70.9675 135.458 69.8793 134.901 68.8947V68.8947Z" fill="#2F2E41"/>
</g>
<defs>
<clipPath id="clip0">
<rect width="136" height="146" fill="white"/>
</clipPath>
</defs>
</svg>
