<svg width="158" height="146" viewBox="0 0 158 146" fill="none" xmlns="http://www.w3.org/2000/svg">
<g clip-path="url(#clip0)">
<path opacity="0.1" d="M67.2179 4.23017C60.7953 1.79981 54.0084 -0.230327 47.0801 0.0248899C36.8931 0.399015 27.1142 6.10225 22.3253 14.4766C18.2622 21.5719 17.7608 29.8882 16.0106 37.7622C13.8566 47.4619 9.72349 56.6831 5.31059 65.6983C2.94092 70.5416 0.440088 75.4894 0.0509725 80.7982C-0.488252 88.169 3.29652 95.5138 9.23236 100.417C15.1682 105.319 23.0511 107.906 30.9631 108.47C35.1734 108.771 39.5732 108.492 43.3128 106.668C47.2695 104.738 50.1537 101.25 54.1264 99.3478C57.8077 97.5845 62.1142 97.338 66.2473 97.5671C71.6437 97.8662 76.9708 98.9206 82.0714 100.699C87.8483 102.718 93.2202 105.643 98.9768 107.69C104.733 109.738 111.181 110.88 117.071 109.172C122.609 107.567 126.981 103.669 130.924 99.7219C137.37 93.2794 143.278 86.3255 148.59 78.929C152.147 73.9682 155.458 68.7348 157.031 62.9533C160.039 51.8992 155.9 39.4284 146.72 31.8792C139.114 25.6249 128.907 22.9103 118.915 21.263C109.804 19.7607 99.2682 19.6679 90.8811 15.7526C82.8831 12.0143 75.605 7.40588 67.2179 4.23017Z" fill="#2D9CDB"/>
<path d="M79.6309 89.7575V95.0257H81.1363L80.8448 89.3704L79.6309 89.7575Z" fill="#AAABB0"/>
<path d="M57.0171 88.6945V93.9627H58.524L58.2325 88.3074L57.0171 88.6945Z" fill="#AAABB0"/>
<path d="M83.323 80.9611C83.323 80.4269 82.8881 79.9939 82.3517 79.9939C81.8152 79.9939 81.3804 80.4269 81.3804 80.9611V88.4045C81.3804 88.9386 81.8152 89.3717 82.3517 89.3717C82.8881 89.3717 83.323 88.9386 83.323 88.4045V80.9611Z" fill="#AAABB0"/>
<path d="M58.4017 78.8818C58.4017 78.3476 57.9668 77.9146 57.4303 77.9146C56.8939 77.9146 56.459 78.3476 56.459 78.8818V88.4031C56.459 88.9373 56.8939 89.3703 57.4303 89.3703C57.9668 89.3703 58.4017 88.9373 58.4017 88.4031V78.8818Z" fill="#AAABB0"/>
<path d="M85.8018 23.8752C85.8018 23.8752 87.7444 23.053 88.0359 23.8752C88.3274 24.6974 88.4731 31.8029 88.4731 31.8029H86.6266L85.8018 23.8752Z" fill="#AAABB0"/>
<path d="M64.5244 23.8752C64.5244 23.8752 62.5802 23.053 62.2888 23.8752C61.9973 24.6974 61.8516 31.8029 61.8516 31.8029H63.698L64.5244 23.8752Z" fill="#AAABB0"/>
<path d="M64.8139 16.8176L64.5225 22.7152H65.8341V16.6726L64.8139 16.8176Z" fill="#AAABB0"/>
<path d="M63.6973 31.803L64.0864 23.2953C64.0864 23.2953 63.9406 21.4102 68.5547 21.9902C73.1687 22.5703 86.6755 23.7304 86.6755 23.7304V31.803H63.6973Z" fill="#25518C"/>
<path d="M82.158 76.6108L81.4293 89.6124C81.4293 89.6124 70.741 95.5099 57.7705 89.9024L58.9364 76.2236L82.158 76.6108Z" fill="#25518C"/>
<path d="M72.0044 25.421L72.2463 33.8315H87.3067L86.4323 22.7151L72.0044 25.421Z" fill="#444053"/>
<path d="M73.5346 71.0513H59.3486V88.9353H73.5346V71.0513Z" fill="#4C4981"/>
<path d="M68.3135 78.351C68.3135 78.351 70.3538 76.7559 70.6934 77.2388C71.033 77.7216 69.4809 79.8011 68.8484 79.5589C68.2159 79.3168 68.3135 78.351 68.3135 78.351Z" fill="#FFB9B9"/>
<path d="M124.94 31.3186H31.8193V77.7217H124.94V31.3186Z" fill="#F2C94C"/>
<path d="M63.7462 16.4797C63.7462 16.4797 63.0175 9.71212 63.7462 8.89137C64.4749 8.07061 76.7168 0.286492 88.0361 9.4221C88.0361 9.4221 89.1043 9.47141 88.9105 11.8873C88.7963 13.4163 88.8041 14.9519 88.9338 16.4797C88.9338 16.4797 64.5725 18.2198 63.7462 16.4797Z" fill="#3F3D56"/>
<path opacity="0.1" d="M63.7462 16.4797C63.7462 16.4797 63.0175 9.71212 63.7462 8.89137C64.4749 8.07061 76.7168 0.286493 88.0361 9.4221C88.0361 9.4221 89.1043 9.47141 88.9105 11.8873C88.7963 13.4163 88.8041 14.9519 88.9338 16.4797C88.9338 16.4797 64.5725 18.2198 63.7462 16.4797Z" fill="#3F3D56"/>
<path d="M63.7462 17.3496C63.7462 17.3496 63.0175 10.582 63.7462 9.76124C64.4749 8.94049 76.7167 1.15636 88.0361 10.292C88.0361 10.292 89.1043 10.3413 88.9105 12.7571C88.7963 14.2862 88.8041 15.8218 88.9338 17.3496C88.9338 17.3496 64.5725 19.0897 63.7462 17.3496Z" fill="#25518C"/>
<path d="M89.3474 14.2566C89.3474 14.2566 90.1242 17.1568 89.8823 17.6397C89.6404 18.1225 89.6841 19.4769 89.6841 19.4769C89.6841 19.4769 89.7366 20.347 89.3474 20.4427C88.9583 20.5384 88.6188 20.5877 88.9336 20.8777C89.2483 21.1678 88.9336 21.6028 88.9336 21.6028C88.9336 21.6028 88.763 22.28 88.9336 22.715C89.1041 23.15 87.9367 23.3313 88.0358 23.8751C88.1349 24.4189 88.4614 25.9531 88.0358 26.0024C87.6103 26.0517 88.1816 27.9353 87.7983 27.9353C87.415 27.9353 87.1425 31.3184 87.1425 31.3184C87.1425 31.3184 84.4463 29.0476 82.6494 29.6755C82.6494 29.6755 82.7952 27.7903 83.3781 27.1131C83.961 26.4359 83.7847 24.6973 83.7847 24.6973L86.6761 16.0446L89.3474 14.2566Z" fill="#5999F1"/>
<path d="M74.9196 54.2475C74.2886 54.9421 73.608 51.2327 73.608 51.2327C73.608 51.2327 71.8111 53.6979 70.6452 52.0549C69.8378 50.9166 70.4747 47.6916 70.9367 45.8195C71.1436 44.9871 71.3185 44.4216 71.3185 44.4216L73.9418 43.9866C73.9418 43.9866 73.9505 44.555 74.0088 45.2453C74.0875 46.1777 74.258 47.3348 74.6209 47.6118C75.2607 48.0918 75.5521 53.5471 74.9196 54.2475Z" fill="#AE6E79"/>
<path opacity="0.1" d="M73.56 10.8245C73.56 10.8245 68.9926 10.7766 67.8763 13.1925C66.7599 15.6083 66.7104 16.432 66.2732 16.8177C65.836 17.2034 71.0329 19.235 71.0329 19.235L71.2763 27.5484C71.2763 27.5484 72.2965 26.5203 73.9477 26.9858C75.5988 27.4513 77.6887 26.9858 77.6887 26.9858C77.6887 26.9858 77.5911 26.8103 78.9522 26.9858C80.3134 27.1613 84.636 24.8904 84.636 24.8904C84.636 24.8904 84.7074 21.2536 84.6112 20.4792C84.515 19.7049 87.695 14.0147 87.695 14.0147C87.695 14.0147 90.1725 11.6467 87.5988 10.8245C87.5988 10.8245 86.6879 9.45848 84.3445 9.47153C82.001 9.48458 73.56 10.8245 73.56 10.8245Z" fill="black"/>
<path d="M73.56 10.6792C73.56 10.6792 68.9926 10.6314 67.8763 13.0472C66.7599 15.4631 66.7104 16.2867 66.2732 16.6725C65.836 17.0582 71.0329 19.0898 71.0329 19.0898L71.2763 27.4032C71.2763 27.4032 72.2965 26.3751 73.9477 26.8405C75.5988 27.306 77.6887 26.8405 77.6887 26.8405C77.6887 26.8405 77.5911 26.6651 78.9522 26.8405C80.3134 27.016 84.636 24.7451 84.636 24.7451C84.636 24.7451 86.3352 21.99 86.239 21.2171C86.1429 20.4442 89.6391 14.5945 89.6391 14.5945C89.6391 14.5945 90.1739 11.5014 87.5988 10.6792C87.5988 10.6792 86.6879 9.31321 84.3445 9.32626C82.001 9.33932 73.56 10.6792 73.56 10.6792Z" fill="#5999F1"/>
<path opacity="0.1" d="M74.0199 45.2409C73.0187 44.9306 71.4476 45.615 70.9478 45.821C71.1547 44.9886 71.3296 44.4231 71.3296 44.4231L73.9528 43.988C73.9528 43.988 73.9572 44.5565 74.0199 45.2409Z" fill="black"/>
<path d="M67.6809 16.6726H66.2731C66.2731 16.6726 65.9816 19.6221 66.2731 20.4922C66.5646 21.3622 66.7103 21.2361 66.6127 21.8799C66.515 22.5237 67.2933 23.5098 67.2933 23.5098C67.2933 23.5098 67.3894 25.9402 67.8762 26.845C68.363 27.7499 67.3413 31.8073 67.3413 31.8073C67.62 32.5077 68.0322 33.1478 68.5553 33.6924C69.3817 34.5131 69.8189 37.5583 69.5755 38.7184C69.3321 39.8785 70.2561 40.3135 70.2561 40.3135C70.2561 40.3135 70.6452 45.7282 70.7909 45.7282C70.9367 45.7282 73.7537 44.2781 74.6282 45.5339L73.9476 40.5557L73.9971 30.9372C73.9971 30.9372 73.0732 29.7278 73.5599 28.6649C74.0467 27.602 73.1708 25.0875 73.1708 25.0875L71.9073 19.4814L67.6809 16.6726Z" fill="#5999F1"/>
<path d="M58.9369 93.0925C58.9369 93.0925 56.8966 92.6575 56.8485 93.0925C56.8004 93.5275 54.4191 97.975 57.3834 99.2801C60.3477 100.585 68.2641 103.388 81.1384 99.763C81.1384 99.763 81.9633 100.053 81.7694 98.265C81.5756 96.477 81.5756 94.4948 81.5756 94.4948C81.5756 94.4948 79.6315 93.9626 78.1741 94.1569C76.7168 94.3512 64.0377 96.9121 58.9369 93.0925Z" fill="#3F3D56"/>
<path opacity="0.1" d="M58.9369 93.0925C58.9369 93.0925 56.8966 92.6575 56.8485 93.0925C56.8004 93.5275 54.4191 97.975 57.3834 99.2801C60.3477 100.585 68.2641 103.388 81.1384 99.763C81.1384 99.763 81.9633 100.053 81.7694 98.265C81.5756 96.477 81.5756 94.4948 81.5756 94.4948C81.5756 94.4948 79.6315 93.9626 78.1741 94.1569C76.7168 94.3512 64.0377 96.9121 58.9369 93.0925Z" fill="#3F3D56"/>
<path d="M58.9369 92.5124C58.9369 92.5124 56.8966 92.0774 56.8485 92.5124C56.8004 92.9475 54.4191 97.3949 57.3834 98.7C60.3477 100.005 68.2641 102.808 81.1384 99.1829C81.1384 99.1829 81.9633 99.4729 81.7694 97.6849C81.5756 95.897 81.5756 93.9147 81.5756 93.9147C81.5756 93.9147 79.6315 93.3825 78.1741 93.5768C76.7168 93.7711 64.0377 96.332 58.9369 92.5124Z" fill="#25518C"/>
<path d="M70.8341 18.4099C70.7088 19.119 70.4246 19.8005 70.3809 20.5183C70.3372 21.2361 70.6155 22.0525 71.2815 22.3339C71.4674 22.3891 71.6475 22.4619 71.8193 22.5514C72.0758 22.7239 72.1807 23.0488 72.2347 23.3533C72.3062 23.7464 72.3234 24.1475 72.2857 24.5453C72.2492 24.9455 72.1632 25.3762 72.3614 25.7256C72.7098 26.3448 73.6177 26.2535 74.3085 26.0795L74.0709 27.9109C74.052 28.0559 74.0403 28.2198 74.1467 28.3184C74.197 28.3536 74.2538 28.3785 74.3139 28.3914C74.374 28.4044 74.4361 28.4052 74.4965 28.3938C75.0969 28.3561 75.7148 28.2735 76.2293 27.9588C76.7437 27.6441 77.127 27.0583 77.0294 26.4681C76.9157 25.7836 76.2045 25.2399 76.3007 24.5525C76.375 24.0203 76.8982 23.6824 77.2422 23.2735C77.8645 22.5253 77.898 21.3884 77.4098 20.5415C76.9215 19.6947 75.9786 19.1697 75.008 19.074C74.4703 19.0204 73.9106 19.0856 73.4049 18.9C73.229 18.8358 73.0703 18.732 72.9414 18.5966C72.8125 18.4613 72.7167 18.2981 72.6617 18.1199" fill="#444053"/>
<path d="M53.8853 82.894L54.3939 81.7919C54.3939 81.7919 57.1395 79.247 57.7706 79.0686C58.4016 78.8903 60.9768 78.113 61.3659 78.113C61.755 78.113 68.848 77.7258 68.848 77.7258L69.6729 79.6603L60.7713 81.6048L57.7706 83.78L53.8853 82.894Z" fill="#5999F1"/>
<path d="M75.2716 53.2149L74.8067 56.7749L74.6275 58.1453L72.5391 58.4353C72.5391 58.4353 72.3132 57.9539 71.994 57.2143C71.0249 54.9696 69.2003 50.3409 70.2583 49.5418C71.6647 48.4775 72.0072 52.007 72.0072 52.007L73.6103 51.2327L75.2716 53.2149Z" fill="#FFB9B9"/>
<path d="M74.9239 59.8376H64.377V75.6916H74.9239V59.8376Z" fill="white"/>
<path opacity="0.1" d="M74.9239 59.8376H64.377V75.6916H74.9239V59.8376Z" fill="black"/>
<path d="M79.6645 60.696L69.231 59.1611L66.9006 74.8446L77.3342 76.3794L79.6645 60.696Z" fill="white"/>
<path d="M75.5832 61.447L70.2129 60.657L69.0135 68.7289L74.3838 69.5189L75.5832 61.447Z" fill="#F9A826"/>
<path d="M74.9443 71.9833L68.438 71.0261L68.1775 72.7791L74.6838 73.7362L74.9443 71.9833Z" fill="#F9A826"/>
<path opacity="0.1" d="M77.6884 19.8381C81.0553 19.8381 83.7846 17.1223 83.7846 13.7723C83.7846 10.4223 81.0553 7.70654 77.6884 7.70654C74.3216 7.70654 71.5923 10.4223 71.5923 13.7723C71.5923 17.1223 74.3216 19.8381 77.6884 19.8381Z" fill="black"/>
<path d="M77.6884 19.693C81.0553 19.693 83.7846 16.9773 83.7846 13.6273C83.7846 10.2773 81.0553 7.56152 77.6884 7.56152C74.3216 7.56152 71.5923 10.2773 71.5923 13.6273C71.5923 16.9773 74.3216 19.693 77.6884 19.693Z" fill="#AE6E79"/>
<path d="M72.6622 18.1227C72.6207 17.9665 72.6357 17.8007 72.7045 17.6543C72.9362 17.1743 73.5964 17.1323 74.1312 17.1569C75.3889 17.2149 76.769 17.2222 77.7528 16.4319C78.1608 16.1071 78.617 15.2907 79.2101 15.4458C79.7377 15.5836 79.9577 16.2956 80.5072 16.4536C80.905 16.5682 81.3175 16.3855 81.7226 16.3086C82.3056 16.1941 82.9031 16.2898 83.4948 16.2941C84.0865 16.2985 84.7292 16.1868 85.1328 15.7561C85.6779 15.1761 85.589 14.2698 85.5409 13.4751C85.4811 12.4487 85.5511 11.4188 85.7493 10.4096C85.9475 9.40617 86.2521 8.28379 85.6954 7.42389C85.1649 6.60458 84.0661 6.37982 83.3155 5.75192C82.6131 5.17189 82.2414 4.24237 81.4996 3.70439C80.5655 3.02719 79.2961 3.12435 78.1477 3.24181L75.6556 3.50572C75.0129 3.57388 74.344 3.65073 73.815 4.03211C72.8604 4.71946 72.7292 6.1478 71.8257 6.9004C71.4234 7.23392 70.909 7.39923 70.4499 7.64865C69.9908 7.89807 69.5478 8.29249 69.4953 8.80873C69.4516 9.24376 69.6877 9.64543 69.8028 10.0645C70.0754 11.0651 69.6498 12.0946 69.3773 13.1025C69.1048 14.1103 69.0523 15.3342 69.8437 16.0027C70.004 16.139 70.1905 16.2434 70.3464 16.3855C70.8813 16.8713 70.9542 17.6906 70.8303 18.3982" fill="#444053"/>
<path d="M78.1858 21.2041C78.2663 21.2041 78.3315 21.0417 78.3315 20.8415C78.3315 20.6413 78.2663 20.479 78.1858 20.479C78.1053 20.479 78.04 20.6413 78.04 20.8415C78.04 21.0417 78.1053 21.2041 78.1858 21.2041Z" fill="#444053"/>
<path d="M78.1858 22.7153C78.2663 22.7153 78.3315 22.553 78.3315 22.3528C78.3315 22.1525 78.2663 21.9902 78.1858 21.9902C78.1053 21.9902 78.04 22.1525 78.04 22.3528C78.04 22.553 78.1053 22.7153 78.1858 22.7153Z" fill="#444053"/>
<path d="M74.9527 54.2372C75.1086 54.0588 75.2121 53.6006 75.2719 52.9959L73.5347 50.8411C73.5347 50.8411 74.2706 55.0188 74.9527 54.2372Z" fill="#AE6E79"/>
<path opacity="0.1" d="M76.912 89.8546C76.912 89.8546 74.0614 94.2397 65.1555 93.7699C56.7655 93.3349 52.6703 89.2267 52.8656 87.7766C53.0608 86.3265 52.3307 82.797 54.1276 81.7819C55.1696 81.1946 56.541 81.5427 57.5087 81.94C57.843 82.0751 58.209 82.1132 58.5642 82.0498C58.9194 81.9864 59.2492 81.8241 59.5155 81.5818C60.4001 80.7886 62.0498 79.8954 64.6542 80.5986C64.9893 80.6876 65.3428 80.6811 65.6743 80.5798C66.7586 80.2506 69.3396 79.6793 71.2123 80.9481C71.5083 81.1511 71.8562 81.2661 72.2154 81.2797C72.5746 81.2933 72.9303 81.205 73.2409 81.025L73.2672 81.009C74.1416 80.4768 78.2222 85.5043 78.2222 85.5043C78.2222 85.5043 78.4175 89.3717 76.912 89.8546Z" fill="black"/>
<path d="M76.912 89.9996C76.912 89.9996 74.0614 94.3847 65.1555 93.9149C56.7655 93.4799 52.6703 89.3717 52.8656 87.9216C53.0608 86.4715 52.3307 82.942 54.1276 81.927C55.1696 81.3397 56.541 81.6877 57.5087 82.085C57.843 82.2201 58.209 82.2582 58.5642 82.1948C58.9194 82.1314 59.2492 81.9691 59.5155 81.7268C60.4001 80.9336 62.0498 80.0404 64.6542 80.7437C64.9893 80.8326 65.3428 80.8261 65.6743 80.7248C66.7586 80.3956 69.3396 79.8243 71.2123 81.0931C71.5083 81.2961 71.8562 81.4111 72.2154 81.4248C72.5746 81.4384 72.9303 81.35 73.2409 81.17L73.2672 81.154C74.1416 80.6219 78.2222 85.6493 78.2222 85.6493C78.2222 85.6493 78.4175 89.5168 76.912 89.9996Z" fill="#5999F1"/>
<path opacity="0.1" d="M65.1548 91.7165C68.3614 91.7165 70.9609 89.1299 70.9609 85.9393C70.9609 82.7486 68.3614 80.1621 65.1548 80.1621C61.9481 80.1621 59.3486 82.7486 59.3486 85.9393C59.3486 89.1299 61.9481 91.7165 65.1548 91.7165Z" fill="black"/>
<path d="M65.1548 91.8615C68.3614 91.8615 70.9609 89.275 70.9609 86.0843C70.9609 82.8937 68.3614 80.3071 65.1548 80.3071C61.9481 80.3071 59.3486 82.8937 59.3486 86.0843C59.3486 89.275 61.9481 91.8615 65.1548 91.8615Z" fill="#FFB9B9"/>
<path d="M63.4909 81.09C62.8817 81.2539 62.2813 81.5671 61.984 82.0819C61.8047 82.3922 61.742 82.7649 61.4826 83.023C61.1154 83.3899 60.496 83.3971 59.999 83.603C59.5021 83.8089 59.1742 84.534 59.6609 84.7631C59.1538 84.7892 58.7778 85.2547 58.7151 85.7173C58.6524 86.1798 58.8288 86.641 58.9993 87.0818C59.556 88.5087 60.155 89.9979 61.3821 91.013C63.3816 92.669 66.3954 92.5922 69.0813 92.4167C69.3008 92.4239 69.5183 92.374 69.7124 92.2717C70.0038 92.0803 70.0403 91.7134 70.0884 91.3915C70.2909 90.0168 71.04 88.7683 71.5297 87.4559C72.0194 86.1436 72.2205 84.6021 71.3956 83.4406C70.1816 81.7179 65.5341 80.539 63.4909 81.09Z" fill="#B96B6B"/>
<path opacity="0.1" d="M74.8073 56.7748L74.6281 58.1452L72.5397 58.4352C72.5397 58.4352 72.3138 57.9537 71.9946 57.2142L74.7738 56.6951L74.8073 56.7748Z" fill="black"/>
<path d="M77.0082 87.0514L78.2237 85.6492L77.9803 77.9158C78.1 77.3579 78.1813 76.7925 78.2237 76.2235C78.2718 75.4013 77.6159 73.5655 77.6159 73.5655C77.7177 73.198 77.8558 72.8415 78.0284 72.5011C78.3198 71.9211 77.6174 70.616 77.6174 70.616C77.6174 70.616 76.571 67.2329 77.0082 65.5407C77.4454 63.8484 76.9018 62.8826 76.9018 62.8826C76.9018 62.8826 76.4748 60.9975 76.5229 60.2246C76.571 59.4517 75.5509 58.7252 75.5509 58.7252L74.7741 56.8401L71.6655 57.4201V63.9456C71.6655 63.9456 71.8594 70.181 71.6655 71.3904C71.4717 72.5997 72.0532 73.7584 72.0532 73.7584C72.0532 73.7584 71.7136 75.5463 72.0051 76.2235C72.2966 76.9007 72.8795 78.5437 72.8795 78.5437C72.7713 79.1309 72.8048 79.7352 72.9772 80.307C73.2686 81.1538 72.9772 81.6367 72.9772 81.6367L77.0082 87.0514Z" fill="#5999F1"/>
<g opacity="0.1">
<path opacity="0.1" d="M85.754 9.93255C85.5896 10.7814 85.5159 11.6451 85.5339 12.5094C85.5464 11.7907 85.622 11.0746 85.7598 10.369C85.888 9.72519 86.0513 9.03204 86.0163 8.38965C85.9626 8.90907 85.8749 9.42446 85.754 9.93255V9.93255Z" fill="black"/>
<path opacity="0.1" d="M70.351 15.9186C70.1951 15.7736 70.0085 15.6721 69.8482 15.5343C69.4227 15.1733 69.2434 14.6498 69.2084 14.0842C69.1662 14.8093 69.3148 15.5111 69.8482 15.9694C70.0085 16.1071 70.1951 16.2115 70.351 16.3536C70.677 16.6746 70.8659 17.1083 70.8786 17.5645C70.9208 16.9554 70.797 16.3217 70.351 15.9186Z" fill="black"/>
<path opacity="0.1" d="M69.8863 10.504C69.9118 10.1977 69.8852 9.88938 69.8076 9.59191C69.7231 9.28159 69.5715 8.97852 69.5162 8.66675C69.5162 8.7001 69.5045 8.7349 69.5001 8.77116C69.4579 9.20618 69.6939 9.60786 69.8076 10.0269C69.8495 10.183 69.8758 10.3428 69.8863 10.504V10.504Z" fill="black"/>
<path opacity="0.1" d="M85.1376 15.279C84.7339 15.714 84.0912 15.8213 83.4995 15.817C82.9078 15.8126 82.3088 15.7169 81.7273 15.8329C81.3222 15.9142 80.9097 16.0954 80.5119 15.978C79.9625 15.8199 79.7424 15.1079 79.2163 14.9701C78.6173 14.8135 78.1612 15.6299 77.7589 15.9548C76.7752 16.7378 75.3951 16.7306 74.1374 16.6798C73.6025 16.6552 72.9423 16.6972 72.7121 17.1786C72.6418 17.3246 72.6268 17.4909 72.6698 17.647L70.8889 17.9254C70.8822 18.0713 70.8661 18.2166 70.8408 18.3605L72.6698 18.0704C72.6268 17.9143 72.6418 17.7481 72.7121 17.6021C72.9423 17.1206 73.6025 17.0786 74.1374 17.1032C75.3951 17.1612 76.7752 17.1685 77.7589 16.3782C78.167 16.0534 78.6231 15.237 79.2163 15.3936C79.7424 15.5299 79.9625 16.2433 80.5119 16.4014C80.9097 16.5145 81.3222 16.3332 81.7273 16.2564C82.3103 16.1404 82.9078 16.2361 83.4995 16.2404C84.0912 16.2448 84.7339 16.1331 85.1376 15.7024C85.5413 15.2718 85.5995 14.6294 85.5748 14.0029C85.5573 14.4887 85.4567 14.9382 85.1376 15.279Z" fill="black"/>
</g>
<g opacity="0.1">
<path opacity="0.1" d="M71.646 22.2439C71.4743 22.154 71.2942 22.0811 71.1082 22.0264C70.7919 21.8834 70.5409 21.6279 70.4043 21.3101C70.5136 21.8103 70.7905 22.2657 71.2539 22.4614C71.4399 22.5162 71.6201 22.589 71.7917 22.679C71.9014 22.7561 71.9901 22.8593 72.0496 22.9791C71.9913 22.6949 71.885 22.4049 71.646 22.2439Z" fill="black"/>
<path opacity="0.1" d="M74.1352 25.772C73.4633 25.9417 72.586 26.0301 72.2173 25.4631C72.2288 25.5998 72.2684 25.7326 72.3339 25.8532C72.6487 26.4115 73.4182 26.3926 74.0725 26.2549L74.1352 25.772Z" fill="black"/>
<path opacity="0.1" d="M76.8577 26.1692C76.951 26.7579 76.5662 27.3452 76.0561 27.6541C75.5461 27.963 74.9238 28.0485 74.3233 28.0891C74.2279 28.1014 74.1309 28.0905 74.0406 28.0572C74.0132 28.1185 74.0044 28.1864 74.0152 28.2526C74.026 28.3189 74.056 28.3805 74.1015 28.43C74.1469 28.4796 74.2059 28.5149 74.2712 28.5316C74.3365 28.5483 74.4052 28.5457 74.4691 28.5242C75.0695 28.4864 75.6874 28.4038 76.2019 28.0891C76.7163 27.7744 77.1011 27.1886 77.002 26.5984C76.974 26.4494 76.9254 26.305 76.8577 26.1692V26.1692Z" fill="black"/>
<path opacity="0.1" d="M77.5049 20.9199C77.5939 21.2725 77.6007 21.6406 77.525 21.9962C77.4492 22.3518 77.2928 22.6855 77.0677 22.9718C76.7238 23.3865 76.2006 23.7186 76.1262 24.2508C76.1014 24.4955 76.1523 24.7418 76.272 24.957C76.2588 24.8671 76.2588 24.7757 76.272 24.6858C76.3463 24.1536 76.8695 23.8158 77.2134 23.4068C77.7789 22.7267 77.8576 21.7247 77.5049 20.9199Z" fill="black"/>
</g>
<g opacity="0.1">
<path opacity="0.1" d="M59.9998 83.8266C60.4953 83.6221 61.1147 83.6149 61.4834 83.2466C61.7428 82.9884 61.8054 82.6158 61.9847 82.3069C62.2762 81.7907 62.881 81.4789 63.4902 81.315C65.5305 80.764 70.1824 81.9415 71.3949 83.6482C71.7503 84.1646 71.944 84.7742 71.9516 85.3999C71.9983 84.6775 71.803 83.96 71.3964 83.3597C70.1838 81.6529 65.5363 80.4754 63.4916 81.0265C62.8824 81.1903 62.282 81.5021 61.9862 82.0183C61.8069 82.3272 61.7442 82.6999 61.4848 82.958C61.1161 83.3249 60.4967 83.3321 60.0012 83.538C59.6238 83.6932 59.344 84.1514 59.446 84.4588C59.4866 84.3198 59.5572 84.1912 59.6529 84.082C59.7485 83.9728 59.8669 83.8857 59.9998 83.8266V83.8266Z" fill="black"/>
<path opacity="0.1" d="M58.7174 85.9336C58.7786 85.4696 59.1546 85.0055 59.6632 84.9794C59.6098 84.9573 59.562 84.9235 59.5235 84.8806C59.4849 84.8377 59.4564 84.7867 59.4402 84.7314C59.2468 84.803 59.0766 84.9257 58.9482 85.0865C58.8198 85.2473 58.7379 85.4399 58.7116 85.6436C58.6977 85.7616 58.6977 85.8808 58.7116 85.9988C58.7174 85.9771 58.7174 85.9553 58.7174 85.9336Z" fill="black"/>
</g>
<path d="M89.5892 33.3835H76.3271V50.5918H89.5892V33.3835Z" fill="white"/>
<path opacity="0.1" d="M89.5892 33.3835H76.3271V50.5918H89.5892V33.3835Z" fill="black"/>
<path d="M94.6565 34.3929L81.5864 36.6299L84.5182 53.5891L97.5883 51.3521L94.6565 34.3929Z" fill="white"/>
<path d="M87.8247 47.6656L84.7539 48.1912L85.4427 52.1755L88.5134 51.6499L87.8247 47.6656Z" fill="#F9A826"/>
<path d="M92.0737 46.9376L89.0029 47.4631L89.6917 51.4475L92.7625 50.9219L92.0737 46.9376Z" fill="#F9A826"/>
<path d="M95.0766 41.0999L84.3076 42.9399L84.9984 46.9424L95.7674 45.1024L95.0766 41.0999Z" fill="#F9A826"/>
<path d="M94.1787 36.3231L83.4097 38.1631L83.5638 39.056L94.3328 37.216L94.1787 36.3231Z" fill="#F9A826"/>
<path d="M94.5322 37.9657L83.7632 39.8057L83.9173 40.6986L94.6863 38.8586L94.5322 37.9657Z" fill="#F9A826"/>
<path d="M83.7844 28.7085C83.7844 28.7085 77.6882 34.7989 80.7487 36.3462C83.8091 37.8934 85.8014 31.1983 85.8014 31.1983L86.2852 29.6757L83.7844 28.7085Z" fill="#AE6E79"/>
<path opacity="0.1" d="M83.251 28.1705L82.4976 29.8265C82.4976 29.8265 86.2139 30.3457 86.9906 31.4637L86.5301 28.5418L85.9836 27.2947L83.251 28.1705Z" fill="black"/>
<path d="M83.3975 28.0253L82.644 29.6813C82.644 29.6813 86.3603 30.2004 87.1371 31.3184L86.6766 28.3965L86.1301 27.1494L83.3975 28.0253Z" fill="#4C4981"/>
<path d="M105.893 58.4731L105.812 58.5282L105.923 58.5775L106.043 58.5674L106.057 58.4847L105.893 58.4731Z" fill="#464A5F"/>
<path opacity="0.1" d="M105.893 58.4731L105.812 58.5282L105.923 58.5775L106.043 58.5674L106.057 58.4847L105.893 58.4731Z" fill="black"/>
<path d="M105.893 58.4731L105.811 58.5253L105.747 58.447L105.786 58.3832L105.823 58.3716L105.893 58.4731Z" fill="#9C9CA1"/>
<path opacity="0.1" d="M105.893 58.4731L105.811 58.5253L105.747 58.447L105.786 58.3832L105.823 58.3716L105.893 58.4731Z" fill="black"/>
<path d="M120.238 48.4515L114.271 39.8771C114.218 39.8005 114.151 39.7351 114.072 39.6846C113.994 39.634 113.907 39.5993 113.815 39.5825C113.723 39.5657 113.629 39.567 113.538 39.5864C113.446 39.6059 113.36 39.643 113.283 39.6958L99.9831 48.7792C99.8276 48.8855 99.7207 49.0488 99.686 49.2334C99.6513 49.418 99.6916 49.6088 99.7981 49.7638L105.748 58.447L120.238 48.4515Z" fill="#9C9CA1"/>
<path opacity="0.1" d="M120.238 48.4515L114.271 39.8771C114.218 39.8005 114.151 39.7351 114.072 39.6846C113.994 39.634 113.907 39.5993 113.815 39.5825C113.723 39.5657 113.629 39.567 113.538 39.5864C113.446 39.6059 113.36 39.643 113.283 39.6958L99.9831 48.7792C99.8276 48.8855 99.7207 49.0488 99.686 49.2334C99.6513 49.418 99.6916 49.6088 99.7981 49.7638L105.748 58.447L120.238 48.4515Z" fill="black"/>
<path d="M120.383 48.4716L114.417 39.8972C114.364 39.8206 114.296 39.7552 114.218 39.7046C114.14 39.654 114.052 39.6193 113.96 39.6025C113.868 39.5857 113.774 39.587 113.682 39.6065C113.591 39.626 113.504 39.6631 113.428 39.7159L100.129 48.8051C99.9736 48.9114 99.8667 49.0747 99.8317 49.2592C99.7967 49.4436 99.8366 49.6344 99.9425 49.7897L105.893 58.4773L120.383 48.4716Z" fill="#9C9CA1"/>
<path d="M125.37 50.1668L120.415 48.5833L105.923 58.5788L110.957 60.2174C111.07 60.2538 111.189 60.2636 111.307 60.246C111.424 60.2283 111.535 60.1838 111.632 60.1159L125.411 50.435C125.437 50.4206 125.458 50.3987 125.471 50.3722C125.484 50.3458 125.488 50.316 125.484 50.2869C125.48 50.2577 125.466 50.2306 125.446 50.2092C125.426 50.1877 125.399 50.1729 125.37 50.1668Z" fill="#464A5F"/>
<path opacity="0.1" d="M125.37 50.1668L120.415 48.5833L105.923 58.5788L110.957 60.2174C111.07 60.2538 111.189 60.2636 111.307 60.246C111.424 60.2283 111.535 60.1838 111.632 60.1159L125.411 50.435C125.437 50.4206 125.458 50.3987 125.471 50.3722C125.484 50.3458 125.488 50.316 125.484 50.2869C125.48 50.2577 125.466 50.2306 125.446 50.2092C125.426 50.1877 125.399 50.1729 125.37 50.1668Z" fill="black"/>
<path d="M125.34 50.0669L120.385 48.4819L105.893 58.4775L110.926 60.1132C111.039 60.1502 111.158 60.1605 111.276 60.1431C111.393 60.1257 111.504 60.0812 111.601 60.0131L125.38 50.3323C125.405 50.3175 125.425 50.2956 125.437 50.2696C125.45 50.2435 125.454 50.2144 125.45 50.1859C125.445 50.1575 125.432 50.131 125.413 50.1098C125.393 50.0886 125.368 50.0736 125.34 50.0669V50.0669Z" fill="#464A5F"/>
<g opacity="0.1">
<path opacity="0.1" d="M118.042 48.0887L117.677 47.5667C117.655 47.5364 117.622 47.5157 117.585 47.509C117.548 47.5022 117.51 47.5099 117.478 47.5304L116.935 47.8915C116.904 47.9129 116.883 47.9452 116.876 47.9816C116.869 48.018 116.876 48.0558 116.895 48.0873L117.232 48.6021C117.253 48.6329 117.285 48.6545 117.322 48.6623C117.359 48.6701 117.397 48.6636 117.429 48.6441L118.002 48.2859C118.033 48.2647 118.054 48.2323 118.062 48.1955C118.07 48.1587 118.063 48.1205 118.042 48.0887V48.0887Z" fill="black"/>
<path opacity="0.1" d="M117.066 48.7616L116.699 48.241C116.677 48.2107 116.644 48.1901 116.607 48.1833C116.57 48.1765 116.532 48.1842 116.5 48.2048L115.958 48.5687C115.928 48.5899 115.906 48.6221 115.899 48.6585C115.891 48.6949 115.898 48.7329 115.917 48.7645L116.254 49.2793C116.275 49.3104 116.307 49.3322 116.344 49.3403C116.38 49.3484 116.419 49.3421 116.451 49.3228L117.025 48.9646C117.041 48.9541 117.055 48.9404 117.066 48.9244C117.077 48.9085 117.085 48.8905 117.088 48.8716C117.092 48.8527 117.092 48.8333 117.088 48.8144C117.084 48.7955 117.077 48.7775 117.066 48.7616Z" fill="black"/>
<path opacity="0.1" d="M116.04 49.4676L115.673 48.9471C115.651 48.9168 115.618 48.8961 115.581 48.8894C115.544 48.8826 115.506 48.8903 115.475 48.9108L114.931 49.2748C114.9 49.2962 114.879 49.3287 114.871 49.3655C114.864 49.4023 114.871 49.4404 114.892 49.472L115.228 49.9868C115.249 50.0176 115.282 50.0392 115.318 50.047C115.355 50.0548 115.393 50.0483 115.425 50.0288L115.998 49.6707C116.014 49.6602 116.028 49.6467 116.039 49.6308C116.05 49.6148 116.058 49.5969 116.062 49.578C116.066 49.5591 116.066 49.5396 116.062 49.5206C116.058 49.5017 116.051 49.4837 116.04 49.4676V49.4676Z" fill="black"/>
<path opacity="0.1" d="M115.001 50.184L114.634 49.662C114.612 49.6321 114.579 49.6117 114.543 49.605C114.506 49.5982 114.468 49.6057 114.437 49.6257L113.893 49.9912C113.863 50.0126 113.842 50.0448 113.834 50.0812C113.827 50.1177 113.834 50.1555 113.854 50.1869L114.191 50.7017C114.211 50.7324 114.243 50.754 114.28 50.7621C114.316 50.7702 114.354 50.7641 114.386 50.7452L114.96 50.3856C114.976 50.3751 114.99 50.3615 115.001 50.3456C115.011 50.3298 115.019 50.312 115.023 50.2932C115.026 50.2745 115.026 50.2552 115.023 50.2365C115.019 50.2177 115.012 50.1999 115.001 50.184Z" fill="black"/>
<path opacity="0.1" d="M113.963 50.899L113.596 50.3785C113.574 50.3482 113.541 50.3275 113.504 50.3207C113.467 50.314 113.429 50.3217 113.398 50.3422L112.856 50.7062C112.825 50.7274 112.804 50.7595 112.796 50.7959C112.788 50.8324 112.795 50.8703 112.815 50.9019L113.152 51.4167C113.172 51.4478 113.205 51.4697 113.241 51.4778C113.278 51.4859 113.316 51.4796 113.348 51.4602L113.923 51.1006C113.939 51.0901 113.952 51.0765 113.963 51.0606C113.974 51.0448 113.981 51.027 113.985 51.0083C113.989 50.9895 113.989 50.9702 113.985 50.9515C113.981 50.9328 113.974 50.9149 113.963 50.899Z" fill="black"/>
<path opacity="0.1" d="M112.971 51.6791L112.515 51.0324C112.51 51.0252 112.503 51.019 112.496 51.0143C112.489 51.0095 112.481 51.0062 112.472 51.0046C112.464 51.003 112.455 51.003 112.446 51.0048C112.438 51.0066 112.43 51.0101 112.423 51.015L111.755 51.4631C111.748 51.4678 111.742 51.4739 111.737 51.481C111.732 51.4882 111.728 51.4963 111.726 51.5048C111.725 51.5133 111.725 51.5221 111.726 51.5306C111.728 51.5391 111.731 51.5472 111.736 51.5544L112.155 52.1939C112.164 52.2086 112.179 52.219 112.196 52.2228C112.213 52.2266 112.231 52.2235 112.246 52.2142L112.952 51.7792C112.96 51.7744 112.968 51.7679 112.973 51.76C112.979 51.7521 112.983 51.7431 112.985 51.7335C112.986 51.724 112.986 51.7142 112.984 51.7048C112.981 51.6954 112.977 51.6867 112.971 51.6791V51.6791Z" fill="black"/>
<path opacity="0.1" d="M111.933 52.3941L111.474 51.7474C111.469 51.7401 111.463 51.7339 111.456 51.7291C111.448 51.7243 111.44 51.721 111.431 51.7194C111.423 51.7178 111.414 51.7179 111.405 51.7197C111.397 51.7215 111.388 51.725 111.381 51.73L110.714 52.178C110.699 52.188 110.69 52.2031 110.686 52.2202C110.683 52.2372 110.687 52.2549 110.696 52.2694L111.114 52.9089C111.119 52.9165 111.125 52.9231 111.132 52.9282C111.139 52.9334 111.147 52.9371 111.156 52.939C111.164 52.9409 111.173 52.941 111.182 52.9393C111.191 52.9376 111.199 52.9342 111.206 52.9292L111.91 52.4942C111.919 52.49 111.927 52.4838 111.933 52.4761C111.94 52.4684 111.944 52.4594 111.946 52.4498C111.948 52.4401 111.949 52.4301 111.946 52.4205C111.944 52.4108 111.94 52.4018 111.933 52.3941V52.3941Z" fill="black"/>
<path opacity="0.1" d="M111.013 53.0278L110.557 52.3868C110.547 52.3728 110.532 52.3633 110.514 52.3604C110.497 52.3574 110.48 52.3612 110.465 52.3709L109.798 52.8175C109.783 52.8275 109.773 52.8428 109.769 52.8601C109.766 52.8774 109.769 52.8954 109.779 52.9103L110.197 53.5498C110.207 53.5642 110.222 53.5743 110.239 53.5781C110.256 53.5819 110.274 53.579 110.289 53.5701L110.994 53.1351C111.004 53.1305 111.012 53.1237 111.019 53.1152C111.025 53.1067 111.03 53.0968 111.032 53.0863C111.033 53.0758 111.033 53.065 111.03 53.0548C111.026 53.0446 111.021 53.0353 111.013 53.0278V53.0278Z" fill="black"/>
<path opacity="0.1" d="M109.985 53.7355L109.529 53.0887C109.519 53.0747 109.503 53.0652 109.486 53.0623C109.469 53.0593 109.451 53.0631 109.437 53.0728L108.769 53.5194C108.762 53.5242 108.756 53.5305 108.751 53.5378C108.746 53.5451 108.742 53.5533 108.741 53.5619C108.739 53.5705 108.739 53.5794 108.741 53.588C108.742 53.5967 108.746 53.6049 108.751 53.6122L109.169 54.2517C109.179 54.2661 109.194 54.2762 109.211 54.28C109.228 54.2838 109.246 54.2809 109.261 54.272L109.966 53.837C109.975 53.832 109.982 53.8253 109.988 53.8173C109.993 53.8093 109.997 53.8002 109.999 53.7905C110.001 53.7809 110 53.771 109.998 53.7615C109.996 53.752 109.991 53.7431 109.985 53.7355V53.7355Z" fill="black"/>
<path opacity="0.1" d="M108.988 54.4169L108.532 53.7702C108.527 53.763 108.521 53.7568 108.513 53.7521C108.506 53.7473 108.498 53.744 108.489 53.7424C108.481 53.7407 108.472 53.7408 108.464 53.7426C108.455 53.7444 108.447 53.7479 108.44 53.7528L107.772 54.2009C107.765 54.2056 107.759 54.2117 107.754 54.2188C107.749 54.226 107.745 54.2341 107.744 54.2426C107.742 54.2511 107.742 54.2599 107.743 54.2684C107.745 54.2769 107.748 54.285 107.753 54.2922L108.172 54.9317C108.181 54.9464 108.196 54.9568 108.213 54.9606C108.231 54.9644 108.249 54.9613 108.263 54.952L108.969 54.517C108.977 54.5122 108.985 54.5056 108.99 54.4978C108.996 54.4899 109 54.4809 109.002 54.4713C109.003 54.4618 109.003 54.452 109.001 54.4426C108.998 54.4332 108.994 54.4245 108.988 54.4169V54.4169Z" fill="black"/>
<path opacity="0.1" d="M107.991 55.1102L107.539 54.462C107.529 54.448 107.513 54.4385 107.496 54.4356C107.479 54.4326 107.462 54.4364 107.447 54.4461L106.78 54.8927C106.772 54.8975 106.766 54.9038 106.761 54.9111C106.756 54.9183 106.753 54.9265 106.751 54.9352C106.749 54.9438 106.749 54.9527 106.751 54.9613C106.752 54.97 106.756 54.9782 106.761 54.9855L107.179 55.625C107.189 55.6394 107.204 55.6495 107.221 55.6533C107.238 55.6571 107.256 55.6542 107.271 55.6453L107.976 55.2103C107.984 55.2051 107.991 55.1983 107.997 55.1902C108.002 55.1821 108.005 55.1731 108.007 55.1636C108.008 55.1541 108.007 55.1444 108.005 55.1352C108.002 55.126 107.997 55.1174 107.991 55.1102Z" fill="black"/>
<path opacity="0.1" d="M106.994 55.7958L106.538 55.1491C106.533 55.1419 106.527 55.1357 106.52 55.131C106.512 55.1262 106.504 55.1229 106.496 55.1213C106.487 55.1197 106.478 55.1197 106.47 55.1215C106.461 55.1233 106.453 55.1268 106.446 55.1317L105.779 55.5769C105.771 55.5816 105.765 55.5877 105.76 55.5948C105.755 55.602 105.752 55.6101 105.75 55.6186C105.748 55.6271 105.748 55.6359 105.75 55.6444C105.751 55.6529 105.755 55.661 105.76 55.6682L106.178 56.3077C106.188 56.3224 106.203 56.3328 106.22 56.3366C106.237 56.3404 106.255 56.3373 106.27 56.328L106.975 55.893C106.983 55.8882 106.99 55.8817 106.995 55.8741C107.001 55.8664 107.005 55.8578 107.006 55.8486C107.008 55.8395 107.008 55.83 107.006 55.8209C107.004 55.8119 107 55.8033 106.994 55.7958V55.7958Z" fill="black"/>
<path opacity="0.1" d="M117.387 47.1446L117.019 46.6226C116.997 46.5923 116.965 46.5716 116.928 46.5649C116.891 46.5581 116.853 46.5658 116.821 46.5863L116.283 46.9518C116.253 46.973 116.231 47.0051 116.224 47.0415C116.216 47.078 116.223 47.1159 116.243 47.1475L116.579 47.6623C116.6 47.6931 116.633 47.7147 116.669 47.7225C116.706 47.7304 116.744 47.7239 116.776 47.7044L117.35 47.3462C117.382 47.3242 117.404 47.2907 117.41 47.2529C117.417 47.2151 117.409 47.1762 117.387 47.1446Z" fill="black"/>
<path opacity="0.1" d="M115.951 45.0812L115.584 44.5563C115.562 44.5264 115.529 44.506 115.493 44.4993C115.456 44.4925 115.418 44.4999 115.387 44.52L114.844 44.884C114.813 44.9052 114.791 44.9373 114.784 44.9738C114.776 45.0102 114.783 45.0482 114.803 45.0798L115.139 45.5946C115.16 45.6256 115.192 45.6475 115.229 45.6556C115.266 45.6637 115.304 45.6574 115.336 45.6381L115.91 45.2799C115.942 45.2586 115.964 45.226 115.971 45.1888C115.979 45.1517 115.972 45.1131 115.951 45.0812V45.0812Z" fill="black"/>
<path opacity="0.1" d="M116.409 47.8176L116.042 47.297C116.02 47.2671 115.987 47.2467 115.951 47.24C115.914 47.2332 115.876 47.2407 115.845 47.2608L115.301 47.6247C115.271 47.6461 115.25 47.6784 115.243 47.7148C115.235 47.7512 115.242 47.7891 115.262 47.8205L115.597 48.3353C115.618 48.3663 115.65 48.3882 115.687 48.3963C115.724 48.4044 115.762 48.3981 115.794 48.3788L116.368 48.0206C116.385 48.0101 116.398 47.9964 116.409 47.9805C116.42 47.9645 116.428 47.9465 116.432 47.9276C116.435 47.9087 116.435 47.8892 116.431 47.8704C116.428 47.8515 116.42 47.8335 116.409 47.8176Z" fill="black"/>
<path opacity="0.1" d="M115.383 48.5238L115.016 48.0032C114.994 47.9729 114.961 47.9523 114.924 47.9455C114.887 47.9388 114.849 47.9464 114.817 47.967L114.275 48.3266C114.244 48.3478 114.223 48.3802 114.215 48.417C114.207 48.4538 114.214 48.4921 114.235 48.5238L114.571 49.0386C114.592 49.0694 114.624 49.091 114.661 49.0988C114.698 49.1067 114.736 49.1001 114.768 49.0806L115.342 48.7225C115.374 48.7012 115.396 48.6685 115.403 48.6314C115.411 48.5943 115.404 48.5556 115.383 48.5238V48.5238Z" fill="black"/>
<path opacity="0.1" d="M114.344 49.2401L113.978 48.7181C113.956 48.6878 113.923 48.6671 113.886 48.6603C113.849 48.6536 113.811 48.6613 113.78 48.6818L113.236 49.0516C113.206 49.073 113.184 49.1052 113.177 49.1416C113.17 49.1781 113.177 49.2159 113.197 49.2473L113.533 49.7621C113.554 49.793 113.587 49.8145 113.623 49.8224C113.66 49.8302 113.698 49.8237 113.73 49.8042L114.303 49.446C114.32 49.4355 114.334 49.4217 114.345 49.4055C114.356 49.3893 114.364 49.371 114.368 49.3517C114.371 49.3325 114.371 49.3127 114.367 49.2935C114.363 49.2743 114.355 49.2561 114.344 49.2401Z" fill="black"/>
<path opacity="0.1" d="M114.997 45.7873L114.629 45.2667C114.607 45.2368 114.575 45.2164 114.538 45.2097C114.502 45.203 114.464 45.2104 114.433 45.2305L113.889 45.5945C113.858 45.6156 113.837 45.6478 113.829 45.6842C113.822 45.7207 113.828 45.7586 113.848 45.7902L114.185 46.305C114.206 46.3361 114.238 46.358 114.274 46.3661C114.311 46.3742 114.349 46.3679 114.382 46.3485L114.956 45.9903C114.972 45.9798 114.986 45.9661 114.997 45.9502C115.008 45.9342 115.015 45.9163 115.019 45.8974C115.023 45.8784 115.023 45.859 115.019 45.8401C115.015 45.8212 115.007 45.8033 114.997 45.7873Z" fill="black"/>
<path opacity="0.1" d="M113.971 46.495L113.603 45.9729C113.581 45.9427 113.549 45.922 113.512 45.9152C113.475 45.9085 113.437 45.9162 113.405 45.9367L112.863 46.2963C112.832 46.3175 112.811 46.3496 112.803 46.3861C112.796 46.4225 112.803 46.4605 112.822 46.4921L113.159 47.0069C113.18 47.0377 113.212 47.0593 113.249 47.0671C113.285 47.0749 113.324 47.0684 113.356 47.0489L113.93 46.6907C113.961 46.6696 113.982 46.6374 113.99 46.601C113.997 46.5645 113.99 46.5266 113.971 46.495Z" fill="black"/>
<path opacity="0.1" d="M112.932 47.2099L112.564 46.6893C112.543 46.6592 112.51 46.6385 112.473 46.6315C112.437 46.6245 112.399 46.6317 112.368 46.6516L111.824 47.0214C111.793 47.0428 111.772 47.0751 111.765 47.1115C111.758 47.1479 111.765 47.1857 111.785 47.2172L112.121 47.732C112.142 47.763 112.174 47.7849 112.211 47.793C112.248 47.8011 112.286 47.7948 112.318 47.7755L112.891 47.4158C112.907 47.4053 112.922 47.3915 112.933 47.3753C112.944 47.3591 112.952 47.3408 112.955 47.3216C112.959 47.3023 112.959 47.2825 112.955 47.2633C112.951 47.2441 112.943 47.226 112.932 47.2099Z" fill="black"/>
<path opacity="0.1" d="M113.306 49.9548L112.939 49.4342C112.917 49.4041 112.885 49.3834 112.848 49.3764C112.811 49.3694 112.774 49.3766 112.742 49.3965L112.203 49.7619C112.172 49.7834 112.151 49.8156 112.144 49.852C112.137 49.8884 112.144 49.9263 112.164 49.9577L112.494 50.4725C112.515 50.5032 112.547 50.5248 112.583 50.5329C112.62 50.541 112.658 50.5349 112.69 50.516L113.264 50.1564C113.28 50.146 113.294 50.1325 113.305 50.1167C113.316 50.1009 113.323 50.0831 113.327 50.0644C113.331 50.0456 113.331 50.0263 113.328 50.0075C113.324 49.9887 113.317 49.9708 113.306 49.9548Z" fill="black"/>
<path opacity="0.1" d="M112.269 50.6698L111.901 50.1492C111.879 50.1189 111.846 50.0983 111.809 50.0915C111.773 50.0847 111.734 50.0924 111.703 50.113L111.161 50.4769C111.13 50.4981 111.109 50.5303 111.101 50.5667C111.094 50.6031 111.1 50.6411 111.12 50.6727L111.457 51.1875C111.478 51.2185 111.51 51.2404 111.546 51.2485C111.583 51.2566 111.621 51.2503 111.654 51.231L112.228 50.8728C112.244 50.8623 112.258 50.8486 112.269 50.8326C112.28 50.8167 112.287 50.7987 112.291 50.7798C112.295 50.7609 112.295 50.7414 112.291 50.7226C112.287 50.7037 112.279 50.6857 112.269 50.6698Z" fill="black"/>
<path opacity="0.1" d="M111.276 51.4501L110.82 50.8034C110.815 50.7962 110.809 50.79 110.801 50.7853C110.794 50.7805 110.786 50.7772 110.777 50.7756C110.769 50.7739 110.76 50.774 110.752 50.7758C110.743 50.7776 110.735 50.7811 110.728 50.786L110.06 51.2341C110.053 51.2388 110.047 51.2449 110.042 51.252C110.037 51.2592 110.033 51.2673 110.032 51.2758C110.03 51.2843 110.03 51.2931 110.032 51.3016C110.033 51.3101 110.037 51.3182 110.041 51.3254L110.46 51.9649C110.464 51.9724 110.47 51.9788 110.478 51.9838C110.485 51.9889 110.493 51.9925 110.501 51.9944C110.51 51.9963 110.519 51.9964 110.527 51.9949C110.536 51.9933 110.544 51.99 110.552 51.9852L111.257 51.5502C111.265 51.5454 111.273 51.5389 111.278 51.531C111.284 51.5231 111.288 51.5141 111.29 51.5045C111.291 51.495 111.291 51.4852 111.289 51.4758C111.286 51.4664 111.282 51.4577 111.276 51.4501V51.4501Z" fill="black"/>
<path opacity="0.1" d="M110.357 52.0838L109.9 51.4356C109.89 51.4217 109.875 51.4122 109.858 51.4092C109.841 51.4062 109.823 51.41 109.809 51.4197L109.142 51.8663C109.128 51.8763 109.118 51.8916 109.114 51.9089C109.111 51.9262 109.114 51.9442 109.124 51.9591L109.542 52.5986C109.552 52.613 109.567 52.6232 109.584 52.6269C109.601 52.6307 109.619 52.6278 109.634 52.6189L110.339 52.1839C110.348 52.1794 110.355 52.1729 110.361 52.165C110.367 52.157 110.371 52.1479 110.373 52.1382C110.374 52.1285 110.374 52.1186 110.371 52.1091C110.368 52.0997 110.363 52.091 110.357 52.0838V52.0838Z" fill="black"/>
<path opacity="0.1" d="M109.327 52.7914L108.871 52.1446C108.861 52.1306 108.845 52.1212 108.828 52.1182C108.811 52.1152 108.794 52.119 108.779 52.1287L108.112 52.5753C108.104 52.58 108.098 52.5861 108.093 52.5933C108.088 52.6004 108.085 52.6085 108.083 52.617C108.081 52.6255 108.081 52.6343 108.083 52.6428C108.084 52.6514 108.088 52.6595 108.093 52.6667L108.511 53.3076C108.521 53.322 108.536 53.3321 108.553 53.3359C108.57 53.3397 108.588 53.3368 108.603 53.3279L109.308 52.8929C109.317 52.8879 109.324 52.8812 109.33 52.8732C109.335 52.8652 109.339 52.8561 109.341 52.8464C109.343 52.8368 109.343 52.8269 109.34 52.8174C109.338 52.8079 109.333 52.799 109.327 52.7914V52.7914Z" fill="black"/>
<path opacity="0.1" d="M108.331 53.4787L107.874 52.832C107.87 52.8248 107.863 52.8186 107.856 52.8138C107.849 52.809 107.841 52.8057 107.832 52.8041C107.824 52.8025 107.815 52.8026 107.806 52.8044C107.798 52.8062 107.79 52.8096 107.783 52.8146L107.115 53.2568C107.108 53.2615 107.101 53.2676 107.096 53.2748C107.092 53.282 107.088 53.29 107.086 53.2986C107.085 53.3071 107.085 53.3158 107.086 53.3244C107.088 53.3329 107.091 53.341 107.096 53.3482L107.514 53.9877C107.524 54.0024 107.539 54.0128 107.556 54.0166C107.573 54.0203 107.591 54.0173 107.606 54.008L108.312 53.573C108.319 53.5681 108.326 53.5618 108.331 53.5544C108.336 53.547 108.339 53.5386 108.341 53.5298C108.343 53.521 108.343 53.512 108.341 53.5032C108.339 53.4944 108.336 53.4861 108.331 53.4787V53.4787Z" fill="black"/>
<path opacity="0.1" d="M114.699 47.542L114.332 47.0214C114.31 46.9915 114.277 46.9711 114.241 46.9643C114.204 46.9576 114.166 46.965 114.135 46.9851L113.592 47.3505C113.561 47.3719 113.54 47.4042 113.533 47.4406C113.525 47.477 113.532 47.5149 113.552 47.5463L113.889 48.0611C113.91 48.0915 113.942 48.1128 113.978 48.1207C114.014 48.1285 114.052 48.1222 114.084 48.1031L114.658 47.745C114.675 47.7344 114.689 47.7208 114.699 47.7048C114.71 47.6888 114.718 47.6709 114.722 47.652C114.725 47.6331 114.725 47.6136 114.722 47.5947C114.718 47.5758 114.71 47.5579 114.699 47.542Z" fill="black"/>
<path opacity="0.1" d="M113.66 48.2584L113.293 47.7364C113.271 47.7061 113.238 47.6854 113.201 47.6787C113.164 47.6719 113.126 47.6796 113.095 47.7001L112.553 48.0655C112.522 48.0867 112.5 48.1189 112.493 48.1553C112.485 48.1918 112.492 48.2297 112.512 48.2613L112.848 48.7761C112.869 48.8072 112.901 48.829 112.938 48.8371C112.975 48.8452 113.013 48.839 113.045 48.8196L113.619 48.46C113.635 48.4494 113.649 48.4359 113.66 48.42C113.671 48.4042 113.678 48.3864 113.682 48.3676C113.686 48.3489 113.686 48.3296 113.682 48.3109C113.678 48.2921 113.671 48.2743 113.66 48.2584Z" fill="black"/>
<path opacity="0.1" d="M112.624 48.9733L112.257 48.4527C112.235 48.4224 112.202 48.4017 112.165 48.395C112.128 48.3882 112.09 48.3959 112.058 48.4164L111.515 48.7804C111.484 48.8018 111.463 48.834 111.456 48.8705C111.449 48.9069 111.456 48.9447 111.476 48.9762L111.812 49.4909C111.833 49.522 111.865 49.5439 111.902 49.552C111.938 49.5601 111.977 49.5538 112.009 49.5344L112.582 49.1748C112.598 49.1644 112.612 49.1509 112.623 49.1351C112.633 49.1193 112.641 49.1015 112.645 49.0828C112.649 49.0641 112.649 49.0447 112.645 49.0259C112.642 49.0071 112.635 48.9892 112.624 48.9733V48.9733Z" fill="black"/>
<path opacity="0.1" d="M111.585 49.6882L111.218 49.1676C111.196 49.1377 111.163 49.1173 111.127 49.1106C111.09 49.1038 111.052 49.1113 111.021 49.1314L110.477 49.4953C110.447 49.5167 110.426 49.549 110.418 49.5854C110.411 49.6218 110.418 49.6597 110.438 49.6911L110.775 50.2117C110.795 50.2424 110.827 50.264 110.864 50.2721C110.9 50.2801 110.938 50.2741 110.97 50.2552L111.544 49.897C111.561 49.8865 111.576 49.8726 111.587 49.8561C111.599 49.8397 111.606 49.8211 111.61 49.8015C111.614 49.7819 111.614 49.7617 111.609 49.7422C111.605 49.7227 111.597 49.7043 111.585 49.6882Z" fill="black"/>
<path opacity="0.1" d="M110.6 50.4685L110.144 49.8217C110.139 49.8145 110.133 49.8083 110.126 49.8036C110.118 49.7988 110.11 49.7955 110.102 49.7939C110.093 49.7923 110.084 49.7923 110.076 49.7941C110.067 49.7959 110.059 49.7994 110.052 49.8043L109.385 50.2524C109.37 50.2621 109.36 50.2772 109.356 50.2942C109.353 50.3113 109.356 50.3291 109.366 50.3437L109.784 50.9847C109.789 50.992 109.795 50.9983 109.802 51.0032C109.809 51.0081 109.817 51.0116 109.826 51.0133C109.834 51.0151 109.843 51.0151 109.852 51.0134C109.86 51.0118 109.868 51.0084 109.876 51.0035L110.581 50.5685C110.59 50.5637 110.597 50.5572 110.603 50.5493C110.608 50.5414 110.612 50.5324 110.614 50.5229C110.616 50.5133 110.615 50.5035 110.613 50.4941C110.611 50.4847 110.606 50.476 110.6 50.4685Z" fill="black"/>
<path opacity="0.1" d="M109.674 51.102L109.218 50.4538C109.208 50.4397 109.192 50.4302 109.175 50.4273C109.157 50.4243 109.14 50.4281 109.125 50.4379L108.459 50.8845C108.444 50.8945 108.434 50.9098 108.431 50.9271C108.427 50.9444 108.43 50.9624 108.44 50.9773L108.858 51.6168C108.868 51.6315 108.883 51.6419 108.9 51.6457C108.917 51.6495 108.935 51.6464 108.95 51.6371L109.655 51.2021C109.664 51.1973 109.671 51.1907 109.677 51.1829C109.683 51.175 109.686 51.1659 109.688 51.1564C109.69 51.1469 109.69 51.1371 109.687 51.1277C109.685 51.1183 109.68 51.1096 109.674 51.102Z" fill="black"/>
<path opacity="0.1" d="M108.646 51.8066L108.189 51.1584C108.179 51.1443 108.163 51.1348 108.146 51.1318C108.129 51.1289 108.111 51.1327 108.096 51.1425L107.429 51.5891C107.414 51.5993 107.404 51.6146 107.401 51.6318C107.397 51.649 107.4 51.6669 107.41 51.6819L107.829 52.3214C107.839 52.3361 107.854 52.3465 107.871 52.3503C107.888 52.3541 107.906 52.351 107.921 52.3417L108.625 51.9067C108.634 51.9022 108.642 51.8958 108.648 51.888C108.653 51.8802 108.658 51.8711 108.66 51.8615C108.662 51.8519 108.661 51.842 108.659 51.8325C108.656 51.823 108.652 51.8141 108.646 51.8066V51.8066Z" fill="black"/>
<path opacity="0.1" d="M107.649 52.4971L107.193 51.8504C107.188 51.8431 107.181 51.8369 107.174 51.8321C107.167 51.8274 107.158 51.824 107.15 51.8224C107.141 51.8208 107.132 51.8209 107.123 51.8227C107.115 51.8245 107.107 51.828 107.099 51.833L106.432 52.2811C106.418 52.291 106.408 52.3061 106.405 52.3232C106.401 52.3403 106.405 52.3579 106.414 52.3724L106.833 53.0119C106.837 53.0195 106.843 53.0261 106.85 53.0313C106.857 53.0364 106.865 53.0401 106.874 53.042C106.883 53.0439 106.892 53.044 106.9 53.0423C106.909 53.0406 106.917 53.0372 106.924 53.0322L107.628 52.5972C107.637 52.5927 107.645 52.5863 107.651 52.5785C107.657 52.5707 107.661 52.5617 107.663 52.552C107.665 52.5424 107.665 52.5325 107.662 52.523C107.66 52.5135 107.655 52.5046 107.649 52.4971V52.4971Z" fill="black"/>
<path opacity="0.1" d="M107.333 54.1647L106.877 53.5179C106.867 53.5039 106.852 53.4944 106.835 53.4915C106.818 53.4885 106.8 53.4923 106.786 53.502L106.118 53.9486C106.111 53.9533 106.104 53.9594 106.099 53.9666C106.094 53.9737 106.091 53.9818 106.089 53.9903C106.087 53.9988 106.087 54.0076 106.089 54.0161C106.091 54.0246 106.094 54.0328 106.099 54.04L106.517 54.6809C106.527 54.6953 106.542 54.7054 106.559 54.7092C106.576 54.713 106.594 54.7101 106.609 54.7012L107.315 54.2662C107.323 54.2612 107.33 54.2545 107.336 54.2465C107.342 54.2385 107.346 54.2294 107.347 54.2197C107.349 54.2101 107.349 54.2002 107.346 54.1907C107.344 54.1812 107.34 54.1723 107.333 54.1647V54.1647Z" fill="black"/>
<path opacity="0.1" d="M106.337 54.852L105.881 54.2053C105.876 54.1981 105.87 54.1919 105.862 54.1871C105.855 54.1823 105.847 54.179 105.838 54.1774C105.83 54.1758 105.821 54.1759 105.813 54.1777C105.804 54.1795 105.796 54.1829 105.789 54.1879L105.121 54.6359C105.114 54.6406 105.108 54.6467 105.103 54.6539C105.098 54.6611 105.094 54.6691 105.093 54.6776C105.091 54.6861 105.091 54.6949 105.093 54.7034C105.094 54.712 105.098 54.7201 105.103 54.7273L105.521 55.3668C105.53 55.3815 105.545 55.3918 105.562 55.3956C105.58 55.3994 105.598 55.3964 105.613 55.3871L106.318 54.952C106.326 54.9473 106.334 54.9407 106.339 54.9328C106.345 54.9249 106.349 54.9159 106.351 54.9064C106.353 54.8969 106.352 54.8871 106.35 54.8777C106.347 54.8683 106.343 54.8595 106.337 54.852Z" fill="black"/>
<path opacity="0.1" d="M107.902 50.7424L107.465 50.1334C107.452 50.1145 107.431 50.1016 107.408 50.0976C107.385 50.0935 107.361 50.0986 107.341 50.1117L106.712 50.5336C106.702 50.5401 106.694 50.5484 106.687 50.5581C106.68 50.5678 106.676 50.5787 106.674 50.5901C106.671 50.6016 106.671 50.6134 106.674 50.6248C106.676 50.6363 106.68 50.6472 106.687 50.6569L107.081 51.2587C107.087 51.2686 107.095 51.2772 107.104 51.284C107.114 51.2908 107.124 51.2957 107.136 51.2982C107.147 51.3008 107.159 51.3011 107.171 51.299C107.182 51.2969 107.193 51.2926 107.203 51.2862L107.869 50.8701C107.88 50.8642 107.89 50.8562 107.897 50.8464C107.905 50.8367 107.911 50.8255 107.914 50.8135C107.917 50.8016 107.918 50.7891 107.916 50.7768C107.914 50.7646 107.909 50.7529 107.902 50.7424V50.7424Z" fill="black"/>
<path opacity="0.1" d="M106.905 51.4298L106.475 50.8207C106.469 50.8111 106.46 50.8028 106.451 50.7965C106.441 50.7901 106.43 50.7857 106.418 50.7835C106.407 50.7814 106.395 50.7815 106.384 50.7839C106.372 50.7863 106.361 50.7909 106.352 50.7975L105.722 51.2268C105.712 51.2331 105.704 51.2412 105.697 51.2508C105.691 51.2604 105.686 51.2711 105.684 51.2825C105.682 51.2938 105.682 51.3055 105.684 51.3169C105.686 51.3282 105.691 51.339 105.697 51.3486L106.091 51.9518C106.104 51.9713 106.123 51.985 106.146 51.9902C106.169 51.9953 106.193 51.9914 106.213 51.9794L106.879 51.5632C106.89 51.5568 106.9 51.548 106.908 51.5375C106.915 51.5271 106.92 51.5151 106.923 51.5024C106.925 51.4898 106.925 51.4767 106.922 51.4642C106.919 51.4517 106.913 51.4399 106.905 51.4298V51.4298Z" fill="black"/>
<path opacity="0.1" d="M105.909 52.1169L105.479 51.5065C105.465 51.4875 105.445 51.4747 105.421 51.4706C105.398 51.4665 105.375 51.4716 105.355 51.4847L104.725 51.9067C104.716 51.9131 104.707 51.9214 104.701 51.9311C104.694 51.9408 104.69 51.9517 104.687 51.9632C104.685 51.9746 104.685 51.9864 104.687 51.9979C104.69 52.0094 104.694 52.0202 104.701 52.0299L105.094 52.6317C105.1 52.6417 105.108 52.6503 105.118 52.6571C105.127 52.6639 105.138 52.6687 105.15 52.6713C105.161 52.6738 105.173 52.6741 105.184 52.672C105.196 52.67 105.207 52.6656 105.217 52.6593L105.883 52.2431C105.893 52.2368 105.902 52.2284 105.909 52.2186C105.916 52.2087 105.921 52.1975 105.923 52.1857C105.926 52.1738 105.926 52.1617 105.923 52.1498C105.921 52.138 105.916 52.1268 105.909 52.1169V52.1169Z" fill="black"/>
<path opacity="0.1" d="M104.925 52.8219L104.469 52.1737C104.458 52.1597 104.443 52.1502 104.426 52.1472C104.409 52.1443 104.391 52.148 104.377 52.1577L103.709 52.6044C103.695 52.6144 103.685 52.6296 103.681 52.647C103.678 52.6643 103.681 52.6823 103.69 52.6972L104.109 53.3367C104.118 53.3511 104.133 53.3612 104.151 53.365C104.168 53.3688 104.185 53.3659 104.2 53.357L104.906 52.9219C104.915 52.9176 104.922 52.9112 104.928 52.9033C104.934 52.8954 104.938 52.8863 104.94 52.8766C104.942 52.8669 104.942 52.8569 104.939 52.8474C104.936 52.8379 104.931 52.8292 104.925 52.8219V52.8219Z" fill="black"/>
<path opacity="0.1" d="M116.721 46.1296L116.326 45.5713C116.304 45.5413 116.271 45.5209 116.234 45.5144C116.197 45.5079 116.159 45.5159 116.128 45.5365L114.586 46.611C114.556 46.6326 114.536 46.6647 114.529 46.7008C114.522 46.7368 114.529 46.7742 114.548 46.8054L114.92 47.3767C114.93 47.3925 114.944 47.4061 114.96 47.4166C114.976 47.4271 114.994 47.4344 115.013 47.4381C115.032 47.4417 115.051 47.4416 115.07 47.4378C115.089 47.434 115.106 47.4265 115.122 47.4158L116.687 46.3268C116.717 46.3045 116.738 46.2716 116.744 46.2349C116.75 46.1982 116.742 46.1605 116.721 46.1296V46.1296Z" fill="black"/>
<path opacity="0.1" d="M106.649 53.1627L106.165 52.4826C106.16 52.4753 106.154 52.4691 106.146 52.4643C106.139 52.4595 106.13 52.4563 106.122 52.4548C106.113 52.4533 106.104 52.4536 106.095 52.4556C106.087 52.4576 106.079 52.4614 106.072 52.4666L104.407 53.6267C104.393 53.6364 104.383 53.6513 104.38 53.6681C104.377 53.6849 104.38 53.7023 104.39 53.7166L104.845 54.417C104.849 54.4246 104.856 54.4311 104.863 54.4361C104.871 54.4412 104.879 54.4447 104.888 54.4465C104.897 54.4482 104.906 54.4482 104.915 54.4464C104.924 54.4445 104.932 54.441 104.939 54.4358L106.631 53.2569C106.646 53.2467 106.656 53.231 106.659 53.2134C106.663 53.1957 106.659 53.1775 106.649 53.1627V53.1627Z" fill="black"/>
<path opacity="0.1" d="M111.943 47.9613L111.497 47.3116C111.487 47.2974 111.472 47.2876 111.455 47.2844C111.438 47.2811 111.42 47.2847 111.406 47.2942L107.71 49.7768C107.695 49.7865 107.685 49.8016 107.682 49.8186C107.678 49.8357 107.681 49.8535 107.691 49.8681L108.147 50.5642C108.152 50.5718 108.158 50.5783 108.166 50.5833C108.173 50.5884 108.181 50.5919 108.19 50.5937C108.199 50.5954 108.208 50.5954 108.217 50.5936C108.226 50.5917 108.234 50.5882 108.242 50.583L111.926 48.0541C111.933 48.0491 111.939 48.0428 111.944 48.0355C111.949 48.0281 111.952 48.0199 111.954 48.0113C111.956 48.0027 111.956 47.9938 111.954 47.9852C111.952 47.9766 111.948 47.9685 111.943 47.9613V47.9613Z" fill="black"/>
</g>
<path d="M118.141 48.1063L117.774 47.5843C117.752 47.554 117.719 47.5333 117.682 47.5266C117.645 47.5198 117.607 47.5275 117.576 47.548L117.033 47.9134C117.003 47.9346 116.981 47.9668 116.974 48.0032C116.966 48.0397 116.973 48.0776 116.993 48.1092L117.329 48.624C117.35 48.6551 117.382 48.6769 117.419 48.685C117.456 48.6932 117.494 48.6869 117.526 48.6675L118.1 48.3079C118.116 48.2973 118.13 48.2838 118.141 48.2679C118.151 48.2521 118.159 48.2343 118.163 48.2155C118.167 48.1968 118.167 48.1775 118.163 48.1588C118.159 48.14 118.152 48.1222 118.141 48.1063Z" fill="#464A5F"/>
<path d="M117.158 48.7793L116.791 48.2587C116.769 48.2288 116.736 48.2084 116.7 48.2016C116.663 48.1949 116.625 48.2023 116.594 48.2224L116.051 48.5864C116.02 48.6076 115.998 48.6397 115.991 48.6762C115.983 48.7126 115.99 48.7506 116.01 48.7822L116.346 49.2969C116.367 49.328 116.399 49.3499 116.436 49.358C116.473 49.3661 116.511 49.3598 116.543 49.3404L117.117 48.9823C117.134 48.9717 117.148 48.9581 117.158 48.9421C117.169 48.9262 117.177 48.9082 117.181 48.8893C117.184 48.8704 117.184 48.8509 117.181 48.832C117.177 48.8131 117.169 48.7952 117.158 48.7793Z" fill="#464A5F"/>
<path d="M116.138 49.4867L115.771 48.9661C115.749 48.9358 115.716 48.9151 115.679 48.9084C115.642 48.9016 115.604 48.9093 115.573 48.9298L115.031 49.2953C115 49.3165 114.978 49.3486 114.971 49.385C114.963 49.4215 114.97 49.4594 114.99 49.491L115.326 50.0058C115.347 50.0366 115.38 50.0582 115.416 50.0661C115.453 50.0739 115.491 50.0674 115.523 50.0479L116.097 49.6897C116.114 49.6792 116.128 49.6655 116.138 49.6495C116.149 49.6336 116.157 49.6156 116.161 49.5967C116.164 49.5778 116.164 49.5583 116.161 49.5395C116.157 49.5206 116.149 49.5026 116.138 49.4867Z" fill="#464A5F"/>
<path d="M115.098 50.2016L114.731 49.6796C114.709 49.6497 114.676 49.6293 114.64 49.6225C114.603 49.6158 114.565 49.6232 114.534 49.6433L113.99 50.0087C113.974 50.0195 113.961 50.0333 113.95 50.0494C113.94 50.0655 113.932 50.0835 113.929 50.1024C113.925 50.1213 113.925 50.1407 113.93 50.1594C113.934 50.1782 113.941 50.196 113.952 50.2118L114.289 50.7265C114.31 50.7576 114.342 50.7795 114.379 50.7876C114.415 50.7957 114.454 50.7894 114.486 50.77L115.059 50.4104C115.076 50.3998 115.09 50.3858 115.101 50.3693C115.113 50.3528 115.12 50.3341 115.124 50.3145C115.128 50.2949 115.127 50.2748 115.123 50.2554C115.118 50.2359 115.11 50.2176 115.098 50.2016Z" fill="#464A5F"/>
<path d="M114.06 50.9165L113.693 50.3959C113.671 50.366 113.639 50.3456 113.602 50.3389C113.565 50.3321 113.528 50.3395 113.496 50.3596L112.953 50.7236C112.922 50.745 112.901 50.7773 112.894 50.8137C112.887 50.8501 112.894 50.8879 112.914 50.9194L113.249 51.4342C113.27 51.4652 113.302 51.4871 113.338 51.4952C113.375 51.5033 113.413 51.497 113.445 51.4777L114.02 51.118C114.036 51.1075 114.049 51.0939 114.06 51.0781C114.071 51.0622 114.078 51.0444 114.082 51.0257C114.086 51.007 114.086 50.9877 114.082 50.9689C114.079 50.9502 114.071 50.9324 114.06 50.9165Z" fill="#464A5F"/>
<path d="M113.068 51.6967L112.612 51.05C112.607 51.0428 112.601 51.0366 112.593 51.0318C112.586 51.0271 112.578 51.0238 112.569 51.0221C112.561 51.0205 112.552 51.0206 112.544 51.0224C112.535 51.0242 112.527 51.0277 112.52 51.0326L111.852 51.4807C111.845 51.4854 111.839 51.4915 111.834 51.4986C111.829 51.5058 111.825 51.5139 111.824 51.5224C111.822 51.5309 111.822 51.5397 111.824 51.5482C111.825 51.5567 111.829 51.5648 111.833 51.572L112.252 52.2115C112.261 52.2262 112.276 52.2366 112.293 52.2404C112.311 52.2442 112.329 52.2411 112.344 52.2318L113.049 51.7968C113.057 51.792 113.065 51.7854 113.07 51.7775C113.076 51.7697 113.08 51.7606 113.082 51.7511C113.083 51.7416 113.083 51.7318 113.081 51.7224C113.078 51.713 113.074 51.7042 113.068 51.6967V51.6967Z" fill="#464A5F"/>
<path d="M112.03 52.4117L111.574 51.7649C111.569 51.7577 111.563 51.7515 111.555 51.7467C111.548 51.7419 111.54 51.7386 111.531 51.737C111.522 51.7354 111.514 51.7355 111.505 51.7373C111.496 51.7391 111.488 51.7426 111.481 51.7475L110.815 52.1956C110.807 52.2003 110.801 52.2064 110.796 52.2136C110.791 52.2207 110.788 52.2288 110.786 52.2373C110.784 52.2458 110.784 52.2546 110.786 52.2631C110.788 52.2717 110.791 52.2798 110.796 52.287L111.214 52.9279C111.219 52.9352 111.225 52.9415 111.232 52.9464C111.239 52.9513 111.247 52.9548 111.256 52.9565C111.265 52.9583 111.273 52.9583 111.282 52.9567C111.291 52.955 111.299 52.9516 111.306 52.9468L112.011 52.5117C112.02 52.5068 112.027 52.5001 112.032 52.4922C112.038 52.4843 112.042 52.4754 112.043 52.4659C112.045 52.4565 112.045 52.4468 112.043 52.4374C112.04 52.4281 112.036 52.4193 112.03 52.4117V52.4117Z" fill="#464A5F"/>
<path d="M111.11 53.0455L110.654 52.3973C110.644 52.3833 110.629 52.3738 110.612 52.3709C110.594 52.3679 110.577 52.3717 110.562 52.3814L109.895 52.8222C109.88 52.8322 109.87 52.8475 109.867 52.8648C109.863 52.8821 109.866 52.9001 109.876 52.915L110.294 53.5545C110.304 53.5689 110.319 53.579 110.336 53.5828C110.353 53.5866 110.371 53.5837 110.386 53.5748L111.091 53.1398C111.099 53.1349 111.106 53.1286 111.111 53.1212C111.116 53.1138 111.119 53.1054 111.121 53.0966C111.123 53.0878 111.123 53.0788 111.121 53.07C111.119 53.0612 111.116 53.0529 111.11 53.0455V53.0455Z" fill="#464A5F"/>
<path d="M110.082 53.7546L109.625 53.1122C109.615 53.0982 109.6 53.0887 109.583 53.0857C109.566 53.0827 109.548 53.0865 109.534 53.0962L108.866 53.5428C108.859 53.5477 108.852 53.5539 108.847 53.5612C108.842 53.5685 108.839 53.5767 108.837 53.5853C108.836 53.5939 108.835 53.6028 108.837 53.6115C108.839 53.6201 108.842 53.6283 108.847 53.6356L109.265 54.2751C109.275 54.2895 109.29 54.2997 109.307 54.3034C109.324 54.3072 109.342 54.3044 109.357 54.2954L110.063 53.8604C110.072 53.8558 110.08 53.849 110.087 53.8407C110.093 53.8323 110.097 53.8226 110.099 53.8123C110.101 53.8019 110.1 53.7914 110.097 53.7813C110.094 53.7713 110.089 53.7621 110.082 53.7546V53.7546Z" fill="#464A5F"/>
<path d="M109.085 54.4404L108.629 53.7936C108.624 53.7864 108.618 53.7803 108.61 53.7755C108.603 53.7707 108.595 53.7674 108.587 53.7658C108.578 53.7642 108.569 53.7643 108.561 53.7661C108.552 53.7678 108.544 53.7713 108.537 53.7762L107.869 54.2243C107.862 54.229 107.856 54.2351 107.851 54.2423C107.846 54.2494 107.842 54.2575 107.841 54.266C107.839 54.2745 107.839 54.2833 107.841 54.2918C107.842 54.3004 107.846 54.3085 107.851 54.3157L108.269 54.9552C108.273 54.9626 108.279 54.969 108.287 54.9741C108.294 54.9791 108.302 54.9827 108.31 54.9846C108.319 54.9865 108.328 54.9867 108.336 54.9851C108.345 54.9835 108.353 54.9802 108.361 54.9755L109.066 54.5404C109.074 54.5356 109.082 54.5291 109.087 54.5212C109.093 54.5133 109.097 54.5043 109.099 54.4948C109.101 54.4852 109.1 54.4754 109.098 54.4661C109.095 54.4567 109.091 54.4479 109.085 54.4404V54.4404Z" fill="#464A5F"/>
<path d="M108.088 55.1278L107.632 54.4796C107.622 54.4656 107.606 54.4561 107.589 54.4531C107.572 54.4502 107.554 54.4539 107.54 54.4636L106.872 54.9103C106.858 54.9203 106.848 54.9356 106.844 54.9529C106.841 54.9702 106.844 54.9882 106.854 55.0031L107.272 55.6426C107.282 55.657 107.297 55.6671 107.314 55.6709C107.331 55.6747 107.349 55.6718 107.364 55.6629L108.069 55.2278C108.077 55.2231 108.085 55.2165 108.09 55.2086C108.096 55.2007 108.1 55.1917 108.102 55.1822C108.104 55.1727 108.103 55.1629 108.101 55.1535C108.098 55.1441 108.094 55.1353 108.088 55.1278V55.1278Z" fill="#464A5F"/>
<path d="M107.09 55.8137L106.634 55.1669C106.629 55.1597 106.623 55.1536 106.616 55.1488C106.609 55.144 106.6 55.1407 106.592 55.1391C106.583 55.1375 106.575 55.1376 106.566 55.1393C106.558 55.1411 106.549 55.1446 106.542 55.1495L105.875 55.5976C105.868 55.6023 105.861 55.6084 105.856 55.6156C105.851 55.6227 105.848 55.6308 105.846 55.6393C105.844 55.6478 105.844 55.6566 105.846 55.6651C105.848 55.6737 105.851 55.6818 105.856 55.689L106.274 56.3285C106.279 56.3359 106.285 56.3423 106.292 56.3474C106.299 56.3524 106.307 56.356 106.316 56.3579C106.324 56.3598 106.333 56.36 106.342 56.3584C106.35 56.3568 106.359 56.3535 106.366 56.3488L107.071 55.9137C107.08 55.9089 107.087 55.9024 107.093 55.8945C107.098 55.8866 107.102 55.8776 107.104 55.8681C107.106 55.8585 107.106 55.8487 107.103 55.8394C107.101 55.83 107.096 55.8212 107.09 55.8137V55.8137Z" fill="#464A5F"/>
<path d="M117.483 47.1667L117.116 46.6447C117.094 46.6148 117.061 46.5944 117.025 46.5876C116.988 46.5809 116.951 46.5883 116.919 46.6084L116.376 46.9738C116.345 46.9952 116.324 47.0275 116.317 47.0639C116.309 47.1003 116.316 47.1382 116.336 47.1696L116.672 47.6844C116.692 47.7154 116.724 47.7373 116.761 47.7454C116.798 47.7535 116.836 47.7472 116.868 47.7279L117.442 47.3683C117.459 47.3577 117.472 47.3441 117.483 47.3283C117.494 47.3124 117.501 47.2946 117.505 47.2759C117.509 47.2572 117.509 47.2379 117.505 47.2191C117.501 47.2004 117.494 47.1826 117.483 47.1667Z" fill="#464A5F"/>
<path d="M116.048 45.0988L115.681 44.5783C115.659 44.5484 115.626 44.528 115.589 44.5212C115.553 44.5145 115.515 44.5219 115.484 44.542L114.94 44.906C114.91 44.9274 114.889 44.9596 114.881 44.996C114.874 45.0325 114.881 45.0703 114.901 45.1017L115.237 45.6165C115.258 45.6472 115.29 45.6688 115.326 45.6769C115.363 45.685 115.401 45.6789 115.433 45.66L116.007 45.3018C116.023 45.2913 116.037 45.2777 116.048 45.2617C116.059 45.2457 116.066 45.2278 116.07 45.2089C116.074 45.19 116.074 45.1705 116.07 45.1516C116.066 45.1327 116.059 45.1148 116.048 45.0988Z" fill="#464A5F"/>
<path d="M116.506 47.8351L116.139 47.3117C116.117 47.2818 116.084 47.2614 116.047 47.2546C116.011 47.2479 115.973 47.2553 115.942 47.2754L115.398 47.6394C115.368 47.6608 115.347 47.693 115.339 47.7294C115.332 47.7659 115.339 47.8037 115.359 47.8351L115.695 48.3499C115.716 48.3806 115.748 48.4022 115.784 48.4103C115.821 48.4184 115.859 48.4123 115.891 48.3934L116.465 48.0352C116.497 48.014 116.519 47.981 116.527 47.9435C116.534 47.9061 116.527 47.8671 116.506 47.8351Z" fill="#464A5F"/>
<path d="M115.479 48.5415L115.117 48.0209C115.095 47.991 115.063 47.9706 115.026 47.9639C114.989 47.9571 114.952 47.9645 114.92 47.9846L114.377 48.3486C114.346 48.37 114.325 48.4026 114.317 48.4393C114.31 48.4761 114.317 48.5143 114.337 48.5458L114.673 49.0606C114.694 49.0914 114.726 49.113 114.763 49.1208C114.799 49.1287 114.837 49.1222 114.869 49.1027L115.444 48.7445C115.459 48.7335 115.473 48.7195 115.483 48.7033C115.493 48.6872 115.5 48.6691 115.504 48.6502C115.507 48.6314 115.506 48.612 115.502 48.5934C115.498 48.5747 115.49 48.5571 115.479 48.5415Z" fill="#464A5F"/>
<path d="M114.441 49.2577L114.074 48.7356C114.052 48.7054 114.019 48.6847 113.982 48.6779C113.945 48.6712 113.907 48.6789 113.876 48.6994L113.334 49.0648C113.303 49.086 113.282 49.1181 113.274 49.1546C113.266 49.191 113.273 49.229 113.293 49.2606L113.63 49.7754C113.65 49.8064 113.683 49.8283 113.719 49.8364C113.756 49.8445 113.794 49.8382 113.826 49.8189L114.401 49.4592C114.417 49.4487 114.43 49.4351 114.441 49.4193C114.452 49.4034 114.459 49.3856 114.463 49.3669C114.467 49.3482 114.467 49.3289 114.463 49.3101C114.459 49.2914 114.452 49.2736 114.441 49.2577Z" fill="#464A5F"/>
<path d="M115.093 45.8049L114.726 45.2814C114.704 45.2515 114.671 45.2311 114.635 45.2243C114.598 45.2176 114.56 45.225 114.529 45.2451L113.986 45.6091C113.955 45.6305 113.934 45.6627 113.927 45.6992C113.919 45.7356 113.926 45.7734 113.946 45.8049L114.283 46.3196C114.304 46.3503 114.336 46.3719 114.372 46.38C114.408 46.3881 114.446 46.3821 114.478 46.3631L115.052 46.005C115.084 45.9837 115.107 45.9508 115.114 45.9133C115.122 45.8758 115.114 45.8368 115.093 45.8049V45.8049Z" fill="#464A5F"/>
<path d="M114.067 46.5126L113.7 45.9906C113.678 45.9607 113.646 45.9403 113.609 45.9336C113.572 45.9268 113.535 45.9343 113.503 45.9544L112.96 46.3198C112.929 46.341 112.908 46.3731 112.9 46.4095C112.892 46.446 112.899 46.4839 112.919 46.5155L113.256 47.0303C113.276 47.0614 113.309 47.0833 113.345 47.0914C113.382 47.0995 113.42 47.0932 113.452 47.0738L114.027 46.7142C114.043 46.7037 114.056 46.6901 114.067 46.6742C114.078 46.6584 114.085 46.6406 114.089 46.6219C114.093 46.6031 114.093 46.5838 114.089 46.5651C114.085 46.5464 114.078 46.5285 114.067 46.5126Z" fill="#464A5F"/>
<path d="M113.029 47.2274L112.662 46.7068C112.64 46.6765 112.607 46.6559 112.57 46.6491C112.533 46.6424 112.495 46.6501 112.464 46.6706L111.922 47.0346C111.891 47.0557 111.87 47.0879 111.862 47.1243C111.854 47.1608 111.861 47.1987 111.881 47.2303L112.217 47.7466C112.238 47.7776 112.27 47.7995 112.307 47.8076C112.344 47.8157 112.382 47.8094 112.414 47.7901L112.987 47.4304C113.003 47.42 113.017 47.4064 113.028 47.3905C113.039 47.3746 113.047 47.3567 113.051 47.3378C113.055 47.3189 113.055 47.2994 113.051 47.2804C113.048 47.2615 113.04 47.2434 113.029 47.2274V47.2274Z" fill="#464A5F"/>
<path d="M113.402 49.9726L113.035 49.452C113.013 49.4221 112.98 49.4017 112.944 49.395C112.907 49.3883 112.87 49.3957 112.838 49.4158L112.295 49.7769C112.264 49.7983 112.243 49.8305 112.236 49.8669C112.228 49.9034 112.235 49.9412 112.255 49.9726L112.592 50.4874C112.613 50.5181 112.645 50.5397 112.681 50.5478C112.717 50.5559 112.755 50.5498 112.787 50.5309L113.361 50.1713C113.393 50.15 113.415 50.1174 113.423 50.0802C113.43 50.0431 113.423 50.0045 113.402 49.9726V49.9726Z" fill="#464A5F"/>
<path d="M112.365 50.6875L111.997 50.1669C111.975 50.137 111.943 50.1166 111.906 50.1098C111.87 50.1031 111.832 50.1105 111.801 50.1306L111.257 50.5019C111.226 50.523 111.205 50.5552 111.197 50.5916C111.19 50.6281 111.197 50.666 111.216 50.6976L111.553 51.2124C111.574 51.2435 111.606 51.2654 111.643 51.2735C111.679 51.2816 111.718 51.2753 111.75 51.2559L112.324 50.8977C112.341 50.8872 112.356 50.8732 112.368 50.8567C112.379 50.8401 112.387 50.8213 112.391 50.8016C112.395 50.7818 112.394 50.7614 112.39 50.7418C112.385 50.7221 112.377 50.7036 112.365 50.6875Z" fill="#464A5F"/>
<path d="M111.373 51.4677L110.916 50.821C110.912 50.8138 110.905 50.8076 110.898 50.8028C110.891 50.7981 110.883 50.7948 110.874 50.7931C110.866 50.7915 110.857 50.7916 110.848 50.7934C110.84 50.7952 110.832 50.7986 110.825 50.8036L110.163 51.2517C110.156 51.2564 110.149 51.2625 110.144 51.2696C110.139 51.2768 110.136 51.2849 110.134 51.2934C110.132 51.3019 110.132 51.3107 110.134 51.3192C110.136 51.3277 110.139 51.3358 110.144 51.343L110.562 51.9825C110.567 51.9899 110.573 51.9964 110.58 52.0014C110.587 52.0065 110.595 52.0101 110.604 52.012C110.612 52.0138 110.621 52.014 110.63 52.0124C110.639 52.0109 110.647 52.0076 110.654 52.0028L111.359 51.5678C111.367 51.5623 111.374 51.5554 111.379 51.5472C111.384 51.5391 111.387 51.5301 111.388 51.5206C111.39 51.5112 111.389 51.5016 111.386 51.4925C111.383 51.4834 111.379 51.475 111.373 51.4677V51.4677Z" fill="#464A5F"/>
<path d="M110.454 52.0969L109.998 51.4487C109.987 51.4346 109.972 51.4251 109.955 51.4221C109.937 51.4192 109.919 51.423 109.905 51.4328L109.237 51.8794C109.223 51.8896 109.213 51.9049 109.209 51.9221C109.206 51.9393 109.209 51.9572 109.218 51.9722L109.638 52.6117C109.648 52.6264 109.663 52.6367 109.68 52.6405C109.697 52.6443 109.715 52.6413 109.73 52.632L110.434 52.197C110.442 52.1925 110.45 52.1861 110.456 52.1783C110.462 52.1705 110.466 52.1614 110.468 52.1518C110.47 52.1422 110.47 52.1323 110.467 52.1228C110.465 52.1133 110.46 52.1044 110.454 52.0969V52.0969Z" fill="#464A5F"/>
<path d="M109.424 52.8104L108.968 52.1622C108.958 52.1482 108.943 52.1387 108.926 52.1358C108.908 52.1328 108.891 52.1365 108.876 52.1463L108.209 52.5929C108.194 52.6029 108.184 52.6182 108.181 52.6355C108.177 52.6528 108.18 52.6708 108.19 52.6857L108.608 53.3252C108.618 53.3396 108.633 53.3497 108.65 53.3535C108.667 53.3573 108.685 53.3544 108.7 53.3455L109.405 52.9105C109.414 52.9061 109.422 52.8997 109.428 52.8918C109.434 52.884 109.438 52.8748 109.44 52.8651C109.442 52.8554 109.441 52.8454 109.439 52.8359C109.436 52.8265 109.431 52.8177 109.424 52.8104V52.8104Z" fill="#464A5F"/>
<path d="M108.429 53.4963L107.977 52.8495C107.972 52.8423 107.966 52.8362 107.959 52.8314C107.951 52.8266 107.943 52.8233 107.935 52.8217C107.926 52.8201 107.917 52.8202 107.909 52.822C107.9 52.8238 107.892 52.8272 107.885 52.8321L107.218 53.2802C107.203 53.29 107.193 53.305 107.189 53.3221C107.186 53.3391 107.189 53.3569 107.199 53.3716L107.617 54.0111C107.626 54.0258 107.641 54.0361 107.659 54.0399C107.676 54.0437 107.694 54.0407 107.709 54.0314L108.414 53.5963C108.422 53.5914 108.43 53.5846 108.435 53.5765C108.44 53.5685 108.444 53.5593 108.445 53.5498C108.447 53.5402 108.446 53.5304 108.443 53.5212C108.44 53.5119 108.435 53.5034 108.429 53.4963V53.4963Z" fill="#464A5F"/>
<path d="M114.795 47.5611L114.43 47.0391C114.408 47.0088 114.375 46.9881 114.338 46.9814C114.301 46.9746 114.263 46.9823 114.231 47.0028L113.688 47.3683C113.657 47.3897 113.636 47.4219 113.629 47.4583C113.621 47.4948 113.628 47.5326 113.648 47.564L113.985 48.0788C114.006 48.1097 114.038 48.1312 114.075 48.1391C114.112 48.1469 114.15 48.1404 114.182 48.1209L114.755 47.7627C114.771 47.7522 114.784 47.7386 114.795 47.7227C114.806 47.7069 114.813 47.6891 114.817 47.6704C114.821 47.6516 114.821 47.6323 114.817 47.6136C114.813 47.5948 114.806 47.577 114.795 47.5611V47.5611Z" fill="#464A5F"/>
<path d="M113.758 48.2761L113.391 47.7555C113.369 47.7254 113.337 47.7047 113.3 47.6977C113.264 47.6907 113.226 47.6979 113.194 47.7178L112.651 48.0832C112.62 48.1046 112.599 48.1369 112.592 48.1733C112.584 48.2097 112.591 48.2476 112.611 48.279L112.948 48.7938C112.969 48.8245 113.001 48.8461 113.037 48.8542C113.073 48.8622 113.111 48.8562 113.143 48.8373L113.717 48.4777C113.733 48.4671 113.747 48.4535 113.758 48.4377C113.769 48.4219 113.776 48.4041 113.78 48.3853C113.784 48.3666 113.784 48.3473 113.78 48.3286C113.776 48.3098 113.769 48.292 113.758 48.2761Z" fill="#464A5F"/>
<path d="M112.72 48.9908L112.349 48.4717C112.327 48.4414 112.294 48.4208 112.257 48.414C112.22 48.4073 112.182 48.4149 112.15 48.4355L111.62 48.798C111.589 48.8192 111.568 48.8513 111.56 48.8878C111.553 48.9242 111.559 48.9621 111.579 48.9938L111.916 49.5085C111.937 49.5396 111.969 49.5615 112.005 49.5696C112.042 49.5777 112.08 49.5714 112.112 49.552L112.687 49.1939C112.702 49.1828 112.716 49.1687 112.726 49.1525C112.736 49.1362 112.743 49.1182 112.746 49.0993C112.749 49.0804 112.748 49.0611 112.744 49.0425C112.74 49.0239 112.731 49.0063 112.72 48.9908V48.9908Z" fill="#464A5F"/>
<path d="M111.681 49.7058L111.314 49.1852C111.292 49.1553 111.259 49.1349 111.223 49.1282C111.186 49.1214 111.148 49.1289 111.117 49.1489L110.573 49.5129C110.543 49.5343 110.522 49.5666 110.515 49.603C110.507 49.6394 110.514 49.6772 110.534 49.7087L110.871 50.2235C110.892 50.2541 110.923 50.2758 110.96 50.2838C110.996 50.2919 111.034 50.2859 111.066 50.267L111.64 49.9088C111.656 49.8983 111.67 49.8846 111.681 49.8686C111.692 49.8527 111.7 49.8347 111.703 49.8158C111.707 49.7969 111.707 49.7774 111.703 49.7585C111.7 49.7397 111.692 49.7217 111.681 49.7058Z" fill="#464A5F"/>
<path d="M110.69 50.4859L110.234 49.8391C110.229 49.8319 110.223 49.8257 110.215 49.8209C110.208 49.8161 110.2 49.8128 110.191 49.8112C110.182 49.8096 110.174 49.8097 110.165 49.8115C110.156 49.8133 110.148 49.8168 110.141 49.8217L109.473 50.2698C109.459 50.2796 109.449 50.2946 109.445 50.3117C109.442 50.3287 109.445 50.3465 109.454 50.3612L109.873 51.0021C109.878 51.0095 109.884 51.0158 109.891 51.0207C109.899 51.0257 109.907 51.0291 109.915 51.0309C109.924 51.0326 109.933 51.0326 109.942 51.0309C109.95 51.0292 109.959 51.0259 109.966 51.021L110.67 50.5859C110.678 50.5813 110.686 50.5748 110.692 50.567C110.698 50.5592 110.702 50.5502 110.704 50.5406C110.705 50.5311 110.705 50.5213 110.703 50.5118C110.701 50.5023 110.696 50.4935 110.69 50.4859Z" fill="#464A5F"/>
<path d="M109.771 51.1196L109.314 50.4728C109.31 50.4656 109.303 50.4595 109.296 50.4547C109.289 50.4499 109.281 50.4466 109.272 50.445C109.264 50.4434 109.255 50.4435 109.246 50.4453C109.238 50.447 109.23 50.4505 109.223 50.4554L108.559 50.9021C108.545 50.9121 108.535 50.9273 108.531 50.9446C108.528 50.962 108.531 50.98 108.541 50.9949L108.959 51.6343C108.969 51.6488 108.984 51.6589 109.001 51.6627C109.018 51.6664 109.036 51.6636 109.051 51.6547L109.756 51.2196C109.764 51.2145 109.771 51.2076 109.776 51.1996C109.782 51.1915 109.785 51.1824 109.786 51.1729C109.788 51.1634 109.787 51.1537 109.784 51.1445C109.782 51.1353 109.777 51.1268 109.771 51.1196V51.1196Z" fill="#464A5F"/>
<path d="M108.742 51.8286L108.286 51.1804C108.276 51.1663 108.26 51.1568 108.243 51.1538C108.225 51.1508 108.207 51.1547 108.193 51.1644L107.527 51.6111C107.512 51.6211 107.502 51.6364 107.498 51.6537C107.495 51.671 107.498 51.689 107.508 51.7039L107.926 52.3434C107.936 52.3581 107.951 52.3684 107.968 52.3722C107.985 52.376 108.003 52.373 108.018 52.3637L108.723 51.9286C108.732 51.9239 108.739 51.9173 108.745 51.9094C108.75 51.9015 108.754 51.8925 108.756 51.883C108.758 51.8735 108.758 51.8637 108.755 51.8543C108.753 51.8449 108.748 51.8361 108.742 51.8286V51.8286Z" fill="#464A5F"/>
<path d="M107.745 52.5145L107.288 51.8677C107.283 51.8605 107.277 51.8543 107.27 51.8495C107.262 51.8447 107.254 51.8414 107.245 51.8398C107.237 51.8381 107.228 51.8382 107.219 51.8401C107.211 51.8419 107.202 51.8454 107.195 51.8503L106.529 52.2984C106.522 52.3031 106.515 52.3092 106.511 52.3164C106.506 52.3235 106.502 52.3316 106.5 52.3401C106.499 52.3486 106.499 52.3574 106.5 52.3659C106.502 52.3744 106.505 52.3825 106.51 52.3897L106.928 53.0307C106.933 53.038 106.939 53.0443 106.947 53.0492C106.954 53.0541 106.962 53.0576 106.97 53.0593C106.979 53.0611 106.988 53.0611 106.996 53.0594C107.005 53.0578 107.013 53.0544 107.02 53.0495L107.726 52.6145C107.734 52.6096 107.741 52.6029 107.747 52.595C107.752 52.5871 107.756 52.5782 107.758 52.5687C107.759 52.5593 107.759 52.5495 107.757 52.5402C107.755 52.5308 107.751 52.5221 107.745 52.5145V52.5145Z" fill="#464A5F"/>
<path d="M107.432 54.1838L106.975 53.5356C106.965 53.5215 106.949 53.512 106.932 53.509C106.915 53.5061 106.897 53.5099 106.882 53.5197L106.215 53.9663C106.2 53.9763 106.19 53.9916 106.186 54.0089C106.183 54.0262 106.186 54.0442 106.196 54.0591L106.614 54.6986C106.624 54.713 106.639 54.7231 106.656 54.7269C106.673 54.7307 106.691 54.7278 106.706 54.7189L107.411 54.2839C107.42 54.2794 107.428 54.273 107.434 54.2652C107.44 54.2574 107.444 54.2484 107.446 54.2387C107.448 54.2291 107.447 54.2192 107.445 54.2097C107.443 54.2002 107.438 54.1913 107.432 54.1838V54.1838Z" fill="#464A5F"/>
<path d="M106.435 54.8694L105.979 54.2227C105.974 54.2154 105.967 54.2093 105.96 54.2045C105.953 54.1997 105.944 54.1964 105.936 54.1947C105.927 54.1931 105.918 54.1932 105.91 54.195C105.901 54.1968 105.893 54.2003 105.886 54.2053L105.218 54.6534C105.204 54.6631 105.193 54.6781 105.19 54.6952C105.186 54.7123 105.19 54.7301 105.199 54.7447L105.617 55.3842C105.622 55.3917 105.628 55.3982 105.636 55.4032C105.643 55.4083 105.651 55.4119 105.66 55.4138C105.668 55.4157 105.677 55.4158 105.686 55.4142C105.695 55.4127 105.703 55.4094 105.711 55.4045L106.415 54.9695C106.423 54.965 106.431 54.9587 106.437 54.9508C106.443 54.943 106.447 54.934 106.449 54.9244C106.451 54.9147 106.451 54.9048 106.448 54.8953C106.446 54.8858 106.441 54.877 106.435 54.8694V54.8694Z" fill="#464A5F"/>
<path d="M107.999 50.7615L107.569 50.151C107.555 50.1321 107.534 50.1192 107.511 50.1151C107.488 50.1111 107.464 50.1161 107.445 50.1292L106.811 50.5512C106.791 50.5645 106.778 50.5848 106.773 50.6078C106.769 50.6309 106.773 50.6548 106.786 50.6745L107.18 51.2777C107.193 51.2973 107.213 51.3111 107.236 51.316C107.259 51.3208 107.283 51.3165 107.303 51.3038L107.968 50.8876C107.979 50.8817 107.988 50.8736 107.995 50.8639C108.003 50.8542 108.008 50.8431 108.011 50.8312C108.014 50.8194 108.014 50.8071 108.012 50.7951C108.01 50.7831 108.005 50.7716 107.999 50.7615V50.7615Z" fill="#464A5F"/>
<path d="M107.002 51.4473L106.572 50.8383C106.565 50.8287 106.557 50.8204 106.547 50.814C106.537 50.8076 106.526 50.8032 106.515 50.8011C106.503 50.7989 106.492 50.7991 106.48 50.8015C106.469 50.8039 106.458 50.8085 106.448 50.8151L105.819 51.2385C105.799 51.2515 105.786 51.2716 105.781 51.2944C105.776 51.3172 105.781 51.3409 105.794 51.3603L106.187 51.9636C106.2 51.9832 106.221 51.997 106.244 52.0021C106.267 52.0072 106.291 52.0033 106.311 51.9911L106.977 51.575C106.987 51.5682 106.996 51.5596 107.003 51.5495C107.009 51.5395 107.014 51.5282 107.016 51.5163C107.019 51.5044 107.019 51.4922 107.016 51.4804C107.014 51.4686 107.009 51.4573 107.002 51.4473V51.4473Z" fill="#464A5F"/>
<path d="M106.005 52.1347L105.568 51.5242C105.554 51.5053 105.534 51.4925 105.511 51.4884C105.488 51.4844 105.465 51.4894 105.445 51.5024L104.814 51.9244C104.795 51.9376 104.781 51.958 104.777 51.981C104.772 52.004 104.777 52.028 104.79 52.0476L105.183 52.6509C105.196 52.6705 105.216 52.6843 105.24 52.6891C105.263 52.694 105.287 52.6897 105.307 52.677L105.973 52.2608C105.984 52.255 105.993 52.247 106.001 52.2373C106.008 52.2277 106.014 52.2166 106.017 52.2047C106.02 52.1929 106.02 52.1805 106.018 52.1685C106.016 52.1564 106.012 52.1449 106.005 52.1347V52.1347Z" fill="#464A5F"/>
<path d="M105.023 52.8408L104.567 52.1926C104.556 52.1785 104.541 52.169 104.523 52.166C104.506 52.1631 104.488 52.1669 104.473 52.1767L103.806 52.6233C103.792 52.6335 103.782 52.6489 103.779 52.6662C103.775 52.6835 103.779 52.7014 103.789 52.7161L104.207 53.3556C104.216 53.3703 104.231 53.3806 104.249 53.3844C104.266 53.3882 104.284 53.3852 104.299 53.3759L105.004 52.9408C105.012 52.9361 105.02 52.9295 105.025 52.9216C105.031 52.9137 105.035 52.9047 105.037 52.8952C105.039 52.8857 105.038 52.8759 105.036 52.8665C105.033 52.8571 105.029 52.8483 105.023 52.8408V52.8408Z" fill="#464A5F"/>
<path d="M116.819 46.1516L116.43 45.5918C116.407 45.5618 116.374 45.5414 116.337 45.5349C116.301 45.5284 116.263 45.5364 116.231 45.557L114.681 46.6316C114.651 46.6531 114.63 46.6852 114.623 46.7213C114.616 46.7573 114.623 46.7947 114.643 46.8259L115.016 47.3972C115.027 47.413 115.04 47.4266 115.056 47.4371C115.072 47.4477 115.09 47.455 115.109 47.4586C115.128 47.4622 115.147 47.4621 115.166 47.4583C115.185 47.4545 115.203 47.447 115.218 47.4364L116.782 46.3473C116.812 46.3255 116.833 46.2931 116.84 46.2567C116.846 46.2203 116.839 46.1827 116.819 46.1516Z" fill="#464A5F"/>
<path d="M106.746 53.1802L106.262 52.5001C106.257 52.4929 106.25 52.4866 106.243 52.4819C106.236 52.4771 106.227 52.4739 106.218 52.4724C106.21 52.4709 106.201 52.4712 106.192 52.4732C106.184 52.4752 106.176 52.479 106.168 52.4842L104.504 53.6443C104.49 53.6542 104.48 53.6693 104.477 53.6864C104.474 53.7035 104.477 53.7211 104.487 53.7356L104.943 54.4346C104.948 54.4421 104.954 54.4486 104.961 54.4537C104.969 54.4588 104.977 54.4623 104.986 54.464C104.995 54.4658 105.004 54.4658 105.013 54.4639C105.022 54.4621 105.03 54.4585 105.038 54.4534L106.73 53.2745C106.744 53.264 106.754 53.2483 106.757 53.2306C106.76 53.213 106.756 53.1949 106.746 53.1802V53.1802Z" fill="#464A5F"/>
<path d="M112.04 47.9788L111.603 47.3335C111.593 47.3189 111.578 47.3088 111.56 47.3053C111.543 47.3018 111.525 47.3051 111.51 47.3146L107.815 49.7943C107.808 49.799 107.802 49.8051 107.797 49.8123C107.792 49.8194 107.788 49.8275 107.787 49.836C107.785 49.8445 107.785 49.8533 107.786 49.8618C107.788 49.8704 107.791 49.8785 107.796 49.8857L108.251 50.5817C108.256 50.5893 108.262 50.5958 108.27 50.6008C108.277 50.6059 108.286 50.6094 108.294 50.6112C108.303 50.613 108.312 50.6129 108.321 50.6111C108.33 50.6093 108.338 50.6057 108.346 50.6006L112.03 48.0716C112.044 48.0605 112.052 48.0446 112.054 48.0273C112.056 48.0099 112.051 47.9925 112.04 47.9788V47.9788Z" fill="#464A5F"/>
<path opacity="0.1" d="M112.057 45.763L110.093 42.9223C110.039 42.8434 109.955 42.789 109.861 42.7711C109.766 42.7531 109.668 42.7731 109.589 42.8266L104.177 46.4417C104.138 46.4685 104.103 46.5029 104.077 46.5428C104.051 46.5828 104.032 46.6276 104.023 46.6746C104.014 46.7216 104.014 46.7699 104.024 46.8168C104.034 46.8637 104.053 46.9082 104.08 46.9478L106.082 49.8697C106.109 49.9094 106.144 49.9434 106.184 49.9697C106.224 49.996 106.269 50.0142 106.317 50.0231C106.364 50.032 106.412 50.0314 106.46 50.0215C106.507 50.0117 106.551 49.9926 106.591 49.9654L111.964 46.2662C112.004 46.2393 112.037 46.205 112.063 46.1651C112.089 46.1252 112.107 46.0806 112.116 46.0339C112.125 45.9871 112.124 45.9391 112.114 45.8927C112.104 45.8462 112.085 45.8021 112.057 45.763V45.763Z" fill="black"/>
<path d="M112.147 45.7803L110.183 42.9396C110.128 42.8609 110.045 42.8068 109.95 42.7889C109.856 42.771 109.759 42.7907 109.679 42.8439L104.275 46.4619C104.235 46.4884 104.2 46.5226 104.173 46.5626C104.147 46.6025 104.128 46.6472 104.119 46.6943C104.11 46.7414 104.11 46.7898 104.12 46.8368C104.13 46.8837 104.149 46.9283 104.176 46.9679L106.172 49.887C106.199 49.9267 106.234 49.9607 106.274 49.987C106.314 50.0133 106.359 50.0314 106.407 50.0403C106.454 50.0492 106.502 50.0487 106.549 50.0388C106.597 50.0289 106.641 50.0099 106.681 49.9827L112.057 46.2835C112.096 46.2564 112.13 46.2219 112.155 46.1819C112.181 46.1419 112.199 46.0973 112.207 46.0505C112.216 46.0038 112.215 45.9559 112.204 45.9095C112.194 45.8631 112.175 45.8192 112.147 45.7803Z" fill="#939498"/>
<path d="M124.33 50.3714L120.162 48.988L106.793 58.2281L110.931 59.5694C111.042 59.6056 111.161 59.6156 111.277 59.5984C111.393 59.5813 111.504 59.5376 111.6 59.4708L124.368 50.6368C124.393 50.6222 124.413 50.6006 124.425 50.5748C124.438 50.5489 124.442 50.5199 124.438 50.4915C124.434 50.4631 124.422 50.4365 124.402 50.4151C124.383 50.3938 124.358 50.3786 124.33 50.3714V50.3714Z" fill="#EEFAFE"/>
</g>
<defs>
<clipPath id="clip0">
<rect width="158" height="146" fill="white"/>
</clipPath>
</defs>
</svg>
