<svg width="159" height="146" viewBox="0 0 159 146" fill="none" xmlns="http://www.w3.org/2000/svg">
<g clip-path="url(#clip0)">
<path opacity="0.1" d="M15.4956 11.5166C14.506 11.9156 13.4904 12.4279 12.9466 13.3258C12.3706 14.2743 12.4395 15.4522 12.5468 16.5497C13.4812 26.0678 15.943 36.1906 11.692 44.8123C9.62854 48.9952 6.17722 52.3471 3.43209 56.1457C0.686956 59.9444 -1.38568 64.6871 -0.111155 69.1558C1.44524 74.6162 7.25413 77.6435 11.1696 81.8457C13.7325 84.5931 15.5293 87.9316 17.9206 90.8219C20.3119 93.7122 23.5886 96.2585 27.406 96.4282C32.8963 96.6739 37.3632 92.0652 42.7463 90.9976C48.261 89.9046 53.8141 92.6862 58.2857 96.0158C62.7572 99.3454 66.8244 103.379 72.0343 105.458C77.788 107.756 84.274 107.404 90.3311 108.785C95.8458 110.043 100.922 112.719 106.397 114.145C111.872 115.572 118.289 115.485 122.531 111.842C128.06 107.077 127.625 98.5889 131.156 92.2856C134.435 86.4291 140.856 82.9327 145.177 77.7552C152.953 68.4366 152.699 54.1935 146.096 44.0589C139.494 33.9242 127.534 27.7877 115.305 26.1899C109.791 25.4707 104.112 25.569 98.81 23.9325C84.6187 19.5546 76.1734 3.86867 61.6849 0.604607C52.4752 -1.4667 43.5183 2.12049 35.6736 6.5356C28.8644 10.3685 22.5821 8.65903 15.4956 11.5166Z" fill="#2D9CDB"/>
<path d="M79.4545 111.146C110.081 111.146 134.909 87.0125 134.909 57.2418C134.909 27.4711 110.081 3.33716 79.4545 3.33716C48.8281 3.33716 24.0005 27.4711 24.0005 57.2418C24.0005 87.0125 48.8281 111.146 79.4545 111.146Z" fill="url(#paint0_linear)"/>
<path d="M79.4549 110.253C109.574 110.253 133.99 86.5191 133.99 57.2419C133.99 27.9646 109.574 4.23071 79.4549 4.23071C49.3361 4.23071 24.9199 27.9646 24.9199 57.2419C24.9199 86.5191 49.3361 110.253 79.4549 110.253Z" fill="#F2C94C"/>
<path d="M79 104C105.786 104 127.5 82.9574 127.5 57C127.5 31.0426 105.786 10 79 10C52.2142 10 30.5 31.0426 30.5 57C30.5 82.9574 52.2142 104 79 104Z" fill="#EAF5FB"/>
<path d="M80.6802 22.5461H78.2292V59.7731H80.6802V22.5461Z" fill="white"/>
<g opacity="0.1">
<path opacity="0.1" d="M116.68 56.3484H82.0596V59.3265H116.68V56.3484Z" fill="black"/>
<path opacity="0.1" d="M57.6169 45.2062L56.1956 47.8445L77.9791 58.9333L79.4004 56.295L57.6169 45.2062Z" fill="black"/>
<path opacity="0.1" d="M79.455 62.3046C81.9931 62.3046 84.0507 60.3045 84.0507 57.8373C84.0507 55.3702 81.9931 53.3701 79.455 53.3701C76.9169 53.3701 74.8594 55.3702 74.8594 57.8373C74.8594 60.3045 76.9169 62.3046 79.455 62.3046Z" fill="black"/>
</g>
<path d="M116.68 55.7527H82.0591V58.7308H116.68V55.7527Z" fill="#25518C"/>
<path d="M79.4108 55.7026L57.6272 44.6138L56.2059 47.2521L77.9895 58.3409L79.4108 55.7026Z" fill="#25518C"/>
<path d="M79.4553 61.7089C81.9934 61.7089 84.0509 59.7088 84.0509 57.2416C84.0509 54.7745 81.9934 52.7744 79.4553 52.7744C76.9172 52.7744 74.8596 54.7745 74.8596 57.2416C74.8596 59.7088 76.9172 61.7089 79.4553 61.7089Z" fill="#3F3D56"/>
<g opacity="0.1">
<path opacity="0.1" d="M39.4698 62.3046C39.4698 39.0303 58.8787 20.1637 82.822 20.1637C89.5423 20.1579 96.1716 21.6733 102.185 24.5897C108.198 27.5062 113.43 31.7436 117.467 36.9664C110.089 23.934 95.843 15.1008 79.4519 15.1008C55.5086 15.1008 36.0997 33.9674 36.0997 57.2417C36.0856 66.3849 39.1447 75.2823 44.8115 82.5799C41.2972 76.3687 39.4594 69.3932 39.4698 62.3046V62.3046Z" fill="black"/>
</g>
<path d="M119.511 26.2421C118.996 25.7611 114.664 28.9224 114.664 28.9224C114.664 28.9224 113.121 29.1964 113.489 30.2254C113.857 31.2543 111.873 37.0171 111.873 37.0171L111.066 35.9196C111.144 34.6316 110.779 33.7188 110.424 33.1499C110.395 33.1038 110.365 33.0591 110.336 33.0174L110.477 32.9697C110.424 32.2669 109.267 31.1963 108.653 30.6721C108.653 30.5962 108.653 30.5232 108.653 30.4458C108.691 29.6059 109.037 28.7199 108.653 27.959C108.218 27.0909 106.945 26.6546 106.838 25.7016C106.773 25.1327 107.168 24.619 107.343 24.071C107.76 22.7606 106.894 21.4234 106.067 20.2947C105.787 19.8715 105.446 19.4894 105.054 19.16C104.682 18.8951 104.272 18.6825 103.838 18.5287C102.626 18.0522 101.387 17.8124 100.137 17.4863C98.9376 17.1766 97.8316 17.0292 96.6138 17.4178C96.3248 17.4936 96.0609 17.6408 95.8478 17.8452C95.5583 18.1609 95.52 18.6106 95.33 18.9873C95.0237 19.5934 94.3634 19.9552 93.7798 20.3439C93.1961 20.7325 92.611 21.2656 92.6079 21.9357C92.6079 22.8872 93.7262 23.4858 94.0999 24.3718C94.4492 25.1968 94.0999 26.1155 93.9054 26.9851C93.8241 27.2662 93.8162 27.5625 93.8824 27.8473C93.9595 28.0596 94.0758 28.2564 94.2256 28.4281C94.4569 28.7259 94.705 29.0028 94.9517 29.2858L94.8383 29.329C92.7825 29.1235 91.4605 31.6609 91.4605 31.6609C91.5555 31.6802 91.6459 31.7025 91.7347 31.7279L91.6474 31.8381C91.0262 32.6223 90.5185 33.4855 90.1385 34.4037L88.4534 36.5986C88.4534 36.5986 88.0858 31.1099 88.9681 29.8754C89.8505 28.641 88.1608 27.886 88.1608 27.886C88.1608 27.886 84.4843 23.9072 83.9742 24.2497C83.4641 24.5922 85.2227 28.915 86.7653 29.6015C86.7653 29.6015 86.9185 30.9729 86.6121 31.8649C86.4267 32.4292 85.4372 38.3825 85.4372 38.3825C85.4372 38.3825 84.5563 43.3903 88.5959 40.914C91.22 39.3088 92.9158 36.545 93.7798 34.8088C93.84 34.6867 93.8967 34.57 93.9498 34.4588C93.9897 34.643 94.0169 34.8295 94.031 35.0172L94.1842 40.7546C94.223 42.1738 93.9043 43.5806 93.2559 44.8526L91.4559 48.4011L91.6566 48.4606L91.5356 48.6304C90.3499 50.3264 88.3339 54.14 92.4838 56.0832L97.9986 56.7697L97.7045 58.1411C97.7045 58.1411 95.4281 62.3254 94.7663 65.2068C94.3553 66.9713 93.7133 68.6773 92.8561 70.2831L93.0261 70.3709C92.9909 70.4096 92.9541 70.4498 92.9189 70.4915C92.5845 70.8571 92.3635 71.3073 92.2816 71.79L91.534 72.8205C91.534 72.8205 91.2399 77.0733 91.8282 78.1037C92.1499 78.6666 93.2176 79.024 94.126 79.2324C95.474 79.5436 96.5617 78.1901 95.8463 77.0748L95.8371 77.0599H95.8233C95.6701 76.3674 95.2014 74.2187 95.3546 73.4027C95.3974 73.1704 95.4373 72.9396 95.4572 72.7043C95.4941 72.3951 95.5907 72.0955 95.7421 71.8213C95.7666 71.7751 95.7927 71.7305 95.8187 71.6858L95.8984 71.7185C96.145 71.8213 96.3886 71.9181 96.6199 72.003C96.2614 72.3201 96.0071 72.9768 96.3135 74.3274C96.3135 74.3274 96.3426 77.7061 96.6076 78.2377C96.8726 78.7693 99.8384 79.4722 100.353 78.9242C100.868 78.3762 100.022 76.4881 100.022 76.4881L99.9961 76.5059C99.8261 75.4115 99.6162 73.4518 100.132 72.6805C100.341 72.3693 100.543 72.0476 100.724 71.7468L100.836 71.5607C101.795 72.0253 102.809 72.3752 103.363 72.1325C103.363 72.1325 105.787 66.6438 105.64 65.9588C105.493 65.2738 109.385 57.5202 109.385 57.5202C109.385 57.5202 112.689 53.9464 108.651 51.4835C107.369 50.6987 106.435 50.1716 105.756 49.8157L105.188 46.9269C104.895 45.4124 104.948 43.8541 105.341 42.3614L105.954 40.089L106.004 39.8955C106.004 39.8955 107.547 36.8086 107.473 35.3672C107.468 35.2552 107.481 35.1431 107.512 35.0351C107.528 35.1036 107.547 35.1751 107.567 35.2495C107.972 36.7477 108.506 38.2101 109.163 39.6215C110.335 42.1916 112.074 41.9876 113.026 41.6228C113.23 41.5461 113.411 41.4212 113.553 41.2596C113.695 41.0979 113.794 40.9044 113.84 40.6966C114.183 39.0973 115.125 34.6167 115.185 33.3792C115.238 32.4116 115.361 31.4488 115.552 30.4979C117.97 29.1235 120.026 26.7231 119.511 26.2421Z" fill="url(#paint1_linear)"/>
<path d="M101.528 70.2024C101.528 70.2024 101.205 70.8323 100.762 71.5887C100.589 71.8865 100.396 72.2067 100.198 72.5149C99.498 73.6034 100.198 77.0715 100.198 77.0715L98.6662 77.2755L97.1343 76.531L96.854 74.0144V72.1739L98.6003 70.2753L99.3663 69.4534L101.528 70.2024Z" fill="#F8BDC5"/>
<g opacity="0.1">
<path opacity="0.1" d="M101.528 70.2024C101.528 70.2024 101.204 70.8322 100.762 71.5887C100.085 71.2374 99.4316 70.8465 98.804 70.4183L98.6692 70.326L98.5972 70.2753L99.3631 69.4534L101.528 70.2024Z" fill="black"/>
</g>
<path d="M109.017 57.4829C109.017 57.4829 105.308 65.1681 105.449 65.8486C105.59 66.5291 103.28 71.9702 103.28 71.9702C102.753 72.2114 101.785 71.8645 100.872 71.4043C100.184 71.0476 99.5185 70.6498 98.8806 70.2131L98.7458 70.1207L98.6646 70.0642L104.752 53.6724L99.3662 49.8321L98.9679 49.5476L96.5598 47.8203L103.913 49.1128C103.913 49.1128 104.169 49.0816 105.521 49.8172C106.171 50.1701 107.073 50.6987 108.32 51.4939C112.164 53.9464 109.017 57.4829 109.017 57.4829Z" fill="#5999F1"/>
<g opacity="0.03">
<path opacity="0.03" d="M109.017 57.4829C109.017 57.4829 105.308 65.1681 105.449 65.8486C105.59 66.5291 103.28 71.9702 103.28 71.9702C102.753 72.2114 101.785 71.8645 100.872 71.4043C100.184 71.0476 99.5185 70.6498 98.8806 70.2131L98.7458 70.1207L98.6646 70.0642L104.752 53.6724L99.3662 49.8321L98.9679 49.5476L96.5598 47.8203L103.913 49.1128C103.913 49.1128 104.169 49.0816 105.521 49.8172C106.171 50.1701 107.073 50.6987 108.32 51.4939C112.164 53.9464 109.017 57.4829 109.017 57.4829Z" fill="black"/>
</g>
<path d="M97.7502 71.5619C97.7502 71.5619 95.9303 71.2894 96.5615 74.147C96.5615 74.147 96.5891 77.4974 96.8418 78.0186C97.0946 78.5397 99.9209 79.2426 100.41 78.6991C100.898 78.1556 100.094 76.2853 100.094 76.2853C100.094 76.2853 98.0305 77.7476 97.4699 76.1825C96.9092 74.6175 97.7502 71.5619 97.7502 71.5619Z" fill="#5D3E53"/>
<path d="M96.4891 71.0184C96.2905 71.2022 96.129 71.4204 96.0127 71.6617C95.8681 71.9351 95.7762 72.2318 95.7415 72.5373C95.7232 72.7696 95.6849 73.0004 95.645 73.2297C95.4704 74.1991 96.1398 77.0716 96.1398 77.0716L93.4805 77.4796L92.5016 76.4596L92.2917 74.2155C92.553 73.4461 92.6945 72.643 92.7115 71.833C92.7115 71.2478 93.0179 70.7251 93.3242 70.3439C93.5319 70.0895 93.77 69.8601 94.0335 69.6604C94.0335 69.6604 97.0498 70.5419 96.4891 71.0184Z" fill="#F8BDC5"/>
<g opacity="0.1">
<path opacity="0.1" d="M96.4893 71.0187C96.2908 71.2025 96.1292 71.4207 96.0129 71.662C94.9237 71.184 93.7794 70.5809 93.3627 70.3576L93.3306 70.3412C93.5383 70.0868 93.7764 69.8574 94.0398 69.6577C94.0398 69.6577 97.05 70.5422 96.4893 71.0187Z" fill="black"/>
</g>
<path d="M105.097 55.4429C105.097 55.4429 103.349 58.64 102.228 61.292C101.492 63.0342 99.9727 67.1828 99.0106 69.8244L98.8697 70.2146C98.4469 71.3835 98.165 72.1742 98.165 72.1742C97.9787 72.1754 97.7932 72.1488 97.6151 72.0953C97.4497 72.0521 97.2643 71.994 97.0667 71.9225L96.8446 71.8406C96.624 71.7572 96.385 71.6604 96.1568 71.5592C95.0446 71.0767 93.8589 70.4483 93.4285 70.219L93.2661 70.1312C94.0871 68.5322 94.7 66.8399 95.0906 65.0936C95.7202 62.2376 97.8893 58.0949 97.8893 58.0949L98.1696 56.7339L92.9214 56.0534C88.9677 54.1325 90.8886 50.3458 92.0176 48.6646C92.2101 48.3728 92.4182 48.091 92.6411 47.8203L96.84 48.7138C96.84 48.7138 97.5017 48.9193 98.9723 49.5521L99.6479 49.8499C100.472 50.2177 101.486 50.6913 102.712 51.2988C106.845 53.3299 105.097 55.4429 105.097 55.4429Z" fill="#5999F1"/>
<path d="M96.1146 76.8678C96.2644 77.113 96.3361 77.3959 96.3207 77.6806C96.3054 77.9654 96.2037 78.2394 96.0284 78.4681C95.8531 78.6968 95.6121 78.8699 95.3357 78.9656C95.0594 79.0614 94.7601 79.0755 94.4755 79.0061C93.6161 78.7991 92.5974 78.4447 92.291 77.8863C91.7319 76.8663 92.0107 72.6492 92.0107 72.6492L92.746 71.595C92.746 71.595 92.3615 76.2543 93.2714 76.6578C94.1814 77.0614 96.1054 76.8469 96.1054 76.8469L96.1146 76.8678Z" fill="#5D3E53"/>
<path d="M96.8587 17.72C96.5792 17.7956 96.3254 17.9421 96.1234 18.1444C95.8476 18.4571 95.817 18.9038 95.6301 19.2776C95.339 19.8732 94.711 20.238 94.1534 20.6177C93.5958 20.9975 93.0397 21.532 93.0366 22.1962C93.0366 23.1402 94.1089 23.7329 94.4582 24.61C94.7906 25.429 94.4582 26.3388 94.2729 27.201C94.1956 27.4801 94.1882 27.7732 94.2514 28.0557C94.3245 28.2652 94.4355 28.4604 94.5792 28.632C95.2548 29.5254 96.0943 30.3176 96.5462 31.3346C96.8893 32.1075 96.9843 32.9607 97.0747 33.7991C97.2049 35.0052 97.3351 36.2337 97.0992 37.425C97.0762 37.4962 97.0762 37.5726 97.0992 37.6439C97.1394 37.7122 97.2027 37.7648 97.2784 37.7928C97.7242 38.0033 98.2091 38.124 98.7041 38.1477C99.1991 38.1714 99.6939 38.0976 100.159 37.9307C100.624 37.7638 101.049 37.5073 101.409 37.1765C101.77 36.8457 102.058 36.4475 102.255 36.0059C102.562 35.3313 102.68 34.5168 103.286 34.079C103.357 34.0221 103.442 33.9846 103.533 33.9703C103.676 33.9741 103.815 34.0192 103.931 34.0998C104.719 34.5138 105.673 34.5257 106.551 34.356C107.081 34.2532 107.623 34.0701 107.974 33.668C108.665 32.8699 108.28 31.6771 108.326 30.6363C108.363 29.8039 108.692 28.9253 108.326 28.1718C107.913 27.3111 106.698 26.8793 106.597 25.9382C106.536 25.3753 106.912 24.8646 107.079 24.3226C107.476 23.0226 106.652 21.6973 105.865 20.579C105.6 20.1619 105.275 19.7834 104.901 19.4548C104.548 19.1934 104.158 18.9827 103.743 18.8294C102.589 18.3573 101.413 18.1191 100.22 17.7974C99.0768 17.4803 98.0244 17.3328 96.8587 17.72Z" fill="#85555C"/>
<path d="M102.718 37.1467H98.6588V30.7526C98.7794 30.1385 98.8501 29.5161 98.8702 28.8912C98.8702 28.6813 98.8702 28.4668 98.8702 28.2509C98.8319 27.4885 98.6695 26.7276 98.2436 26.263C97.1238 25.039 101.882 25.243 101.882 25.243C102.028 25.805 102.217 26.3556 102.449 26.8899C102.793 27.7236 103.252 28.5085 103.812 29.2233C104.305 29.8593 104.936 30.3816 105.661 30.7526C108.455 32.1136 102.718 37.1467 102.718 37.1467Z" fill="#F8BDC5"/>
<g opacity="0.1">
<path opacity="0.1" d="M102.445 26.8899C102.032 27.4123 101.481 27.8152 100.85 28.0551C100.22 28.295 99.5335 28.3627 98.866 28.2509C98.8277 27.4885 98.6654 26.7276 98.2395 26.263C97.1197 25.039 101.878 25.243 101.878 25.243C102.024 25.805 102.213 26.3556 102.445 26.8899V26.8899Z" fill="black"/>
</g>
<path d="M99.498 28.102C101.546 28.102 103.207 26.4879 103.207 24.4969C103.207 22.5059 101.546 20.8918 99.498 20.8918C97.4497 20.8918 95.7893 22.5059 95.7893 24.4969C95.7893 26.4879 97.4497 28.102 99.498 28.102Z" fill="#F8BDC5"/>
<path d="M114.892 30.6854C114.71 31.6287 114.593 32.5829 114.543 33.5414C114.486 34.7669 113.588 39.2103 113.261 40.7962C113.219 40.9996 113.127 41.1898 112.992 41.3501C112.856 41.5104 112.683 41.6357 112.485 41.715C111.576 42.0768 109.921 42.2793 108.809 39.7315C108.182 38.3296 107.673 36.8804 107.288 35.3983C107.151 34.9001 107.049 34.3937 106.981 33.8824L109.432 32.5899C109.663 32.7997 109.859 33.0434 110.011 33.3121C110.35 33.8765 110.698 34.7818 110.624 36.058L111.39 37.1465C111.39 37.1465 113.279 31.4329 112.922 30.4129C112.565 29.3929 114.042 29.1204 114.042 29.1204C114.042 29.1204 118.17 25.9933 118.66 26.4683C119.151 26.9433 117.201 29.3244 114.892 30.6854Z" fill="#F8BDC5"/>
<path d="M94.8106 33.4059C94.6194 33.9379 94.3995 34.4598 94.1519 34.9694C93.3278 36.6923 91.7132 39.4366 89.2131 41.024C85.3651 43.472 86.2045 38.5075 86.2045 38.5075C86.2045 38.5075 87.1467 32.6048 87.3244 32.0463C87.6047 31.1618 87.4637 29.8023 87.4637 29.8023C85.9947 29.1218 84.3157 24.8377 84.8044 24.4967C85.2931 24.1557 88.7873 28.1018 88.7873 28.1018C88.7873 28.1018 90.3973 28.8463 89.5532 30.0748C88.7092 31.3033 89.063 36.7399 89.063 36.7399L90.6822 34.5674C91.0424 33.6608 91.5262 32.8054 92.1207 32.024C92.427 31.6175 92.6415 31.3718 92.6415 31.3718L94.8106 33.4059Z" fill="#F8BDC5"/>
<g opacity="0.1">
<path opacity="0.1" d="M110.013 33.3121C109.498 33.4967 107.505 34.2785 107.285 35.3968C107.149 34.8986 107.046 34.3922 106.979 33.8809L109.43 32.5884C109.662 32.7983 109.859 33.0425 110.013 33.3121Z" fill="black"/>
</g>
<g opacity="0.1">
<path opacity="0.1" d="M94.8106 33.406C94.6193 33.938 94.3995 34.4599 94.1519 34.9695C94.0569 34.2964 93.6663 32.5751 92.1206 32.0196C92.427 31.6131 92.6414 31.3674 92.6414 31.3674L94.8106 33.406Z" fill="black"/>
</g>
<g opacity="0.1">
<path opacity="0.1" d="M102.718 37.1466H98.6589V30.7525C98.7795 30.1384 98.8502 29.516 98.8703 28.8911C99.7052 29.6744 99.4984 30.888 99.4984 30.888L101.668 35.653L102.718 31.4404L102.369 30.8969L103.809 29.2321C104.302 29.8682 104.933 30.3904 105.658 30.7614C108.455 32.1135 102.718 37.1466 102.718 37.1466Z" fill="black"/>
</g>
<g opacity="0.1">
<path opacity="0.1" d="M105.586 50.2028C105.586 50.2028 102.406 49.9571 99.6466 49.841L99.3694 49.8291C98.9772 49.8142 98.6034 49.8023 98.2373 49.7933C95.5596 49.7308 92.5311 48.821 92.0164 48.6616C92.2095 48.3708 92.4181 48.09 92.6414 47.8203L96.8402 48.7138C96.8402 48.7138 97.502 48.9193 98.9726 49.5521L96.5599 47.8203L103.913 49.1128C103.913 49.1128 104.169 49.0816 105.521 49.8172L105.586 50.2028Z" fill="black"/>
</g>
<path d="M102.718 31.7055L102.369 31.162L103.922 29.3557C103.922 29.3557 107.125 30.882 107.965 30.547C107.965 30.547 109.994 32.185 110.063 33.132C110.063 33.132 107.125 34.0836 107.194 35.5146C107.263 36.9456 105.8 40.0027 105.8 40.0027L105.187 42.4477C104.81 43.9295 104.758 45.4718 105.034 46.9745L105.593 50.0018C105.593 50.0018 101.185 49.6623 98.2402 49.5938C95.296 49.5253 91.9427 48.4383 91.9427 48.4383L93.6599 44.9255C94.2792 43.6579 94.5825 42.2662 94.5454 40.8633L94.3922 35.1765C94.3922 35.1765 94.2528 32.3205 91.9412 31.844C91.9412 31.844 93.2004 29.3274 95.1581 29.5315C95.1581 29.5315 98.0105 28.3744 98.8576 29.1562C99.7047 29.938 99.4964 31.1635 99.4964 31.1635L101.666 35.9285L102.718 31.7055Z" fill="#F9A826"/>
<g opacity="0.1">
<path opacity="0.1" d="M96.8218 23.7537C97.384 23.7537 97.8252 23.1745 98.3874 23.2043C98.6785 23.2192 98.9282 23.3993 99.1687 23.5616C100.077 24.1734 101.089 24.6269 102.157 24.9018C102.573 25.009 103.012 25.0894 103.429 24.9912C103.846 24.8929 104.236 24.5742 104.284 24.1588C104.295 23.9757 104.27 23.7921 104.21 23.6182C103.738 22.0208 102.671 20.6516 101.217 19.7779C100.635 19.4309 99.9239 19.1659 99.279 19.3833C98.6969 19.5784 98.3216 20.1085 97.9003 20.5448C97.5828 20.8715 97.2222 21.1559 96.828 21.3906C96.5216 21.5708 96.062 21.6884 95.8859 22.019C95.5535 22.6354 96.0758 23.7478 96.8218 23.7537Z" fill="black"/>
</g>
<path d="M96.8218 23.6182C97.384 23.6182 97.8252 23.039 98.3874 23.0688C98.6785 23.0837 98.9282 23.2638 99.1687 23.4262C100.077 24.0379 101.089 24.4914 102.157 24.7663C102.573 24.8735 103.012 24.954 103.429 24.8557C103.846 24.7574 104.236 24.4387 104.284 24.0233C104.295 23.8402 104.27 23.6566 104.21 23.4827C103.738 21.8853 102.671 20.5161 101.217 19.6424C100.635 19.2955 99.9239 19.0304 99.279 19.2478C98.6969 19.4429 98.3216 19.973 97.9003 20.4093C97.5828 20.736 97.2222 21.0204 96.828 21.2551C96.5216 21.4353 96.062 21.5529 95.8859 21.8835C95.5535 22.5059 96.0758 23.6108 96.8218 23.6182Z" fill="#85555C"/>
<path opacity="0.05" d="M95.1257 39.1523C95.1257 39.1523 98.5541 40.3764 100.794 39.4248L101.913 39.4933C101.913 39.4933 103.775 40.762 105.743 40.1947" fill="black"/>
<path opacity="0.05" d="M111.36 37.1123C111.36 37.1123 110.801 38.4048 111.079 38.8128Z" fill="black"/>
<path opacity="0.05" d="M89.0381 36.7043C89.0381 36.7043 89.3185 37.9969 89.0381 38.4049Z" fill="black"/>
</g>
<defs>
<linearGradient id="paint0_linear" x1="79.4545" y1="111.146" x2="79.4545" y2="3.33716" gradientUnits="userSpaceOnUse">
<stop stop-color="#808080" stop-opacity="0.25"/>
<stop offset="0.54" stop-color="#808080" stop-opacity="0.12"/>
<stop offset="1" stop-color="#808080" stop-opacity="0.1"/>
</linearGradient>
<linearGradient id="paint1_linear" x1="26807.8" y1="37042.4" x2="26807.8" y2="11148.1" gradientUnits="userSpaceOnUse">
<stop stop-color="#808080" stop-opacity="0.25"/>
<stop offset="0.54" stop-color="#808080" stop-opacity="0.12"/>
<stop offset="1" stop-color="#808080" stop-opacity="0.1"/>
</linearGradient>
<clipPath id="clip0">
<rect width="159" height="146" fill="white"/>
</clipPath>
</defs>
</svg>
