<svg width="203" height="48" viewBox="0 0 203 48" fill="none" xmlns="http://www.w3.org/2000/svg">
<g filter="url(#filter0_b)">
<rect width="203" height="48" rx="8" fill="white"/>
</g>
<path d="M61.5432 30.996V14.28H64.7632V30.996C64.7632 31.276 64.8286 31.5467 64.9592 31.808C65.1086 32.0507 65.3886 32.172 65.7992 32.172H66.2472V35.14H65.4632C64.3992 35.14 63.5872 34.9347 63.0272 34.524C62.4672 34.1133 62.0752 33.5907 61.8512 32.956C61.6459 32.3213 61.5432 31.668 61.5432 30.996ZM85.7455 34.188C84.7749 34.58 83.8602 34.86 83.0015 35.028C82.1429 35.196 81.3309 35.28 80.5655 35.28C78.4562 35.28 76.8602 34.6827 75.7775 33.488C74.6949 32.2933 74.1535 30.7067 74.1535 28.728V27.048C74.1535 25.7227 74.3962 24.5747 74.8815 23.604C75.3669 22.6333 76.0575 21.8773 76.9535 21.336C77.8495 20.7947 78.9042 20.524 80.1175 20.524C81.1069 20.524 82.0309 20.7293 82.8895 21.14C83.7669 21.532 84.4762 22.1573 85.0175 23.016C85.5775 23.856 85.8575 24.9387 85.8575 26.264C85.8575 26.656 85.8295 27.076 85.7735 27.524C85.7175 27.9533 85.6242 28.4107 85.4935 28.896H77.2615C77.2989 30.0533 77.5882 30.9213 78.1295 31.5C78.6709 32.0787 79.5389 32.368 80.7335 32.368C81.3682 32.368 82.0215 32.2933 82.6935 32.144C83.3842 31.9947 84.0935 31.7707 84.8215 31.472L85.7455 34.188ZM80.1175 23.24C79.2589 23.24 78.5869 23.52 78.1015 24.08C77.6349 24.6213 77.3642 25.4053 77.2895 26.432H82.6655C82.6842 26.3387 82.6935 26.2547 82.6935 26.18C82.6935 26.0867 82.6935 26.0027 82.6935 25.928C82.6935 25.032 82.4415 24.36 81.9375 23.912C81.4335 23.464 80.8269 23.24 80.1175 23.24ZM106.955 36.428C106.955 37.94 106.358 39.116 105.163 39.956C103.987 40.8147 102.344 41.244 100.235 41.244C99.2457 41.244 98.2004 41.132 97.0991 40.908C95.9977 40.684 94.9804 40.3107 94.0471 39.788L94.9711 37.24C95.8671 37.688 96.7537 38.0053 97.6311 38.192C98.5084 38.3973 99.3671 38.5 100.207 38.5C101.383 38.5 102.279 38.3413 102.895 38.024C103.511 37.7067 103.819 37.2867 103.819 36.764C103.819 35.9613 103.343 35.56 102.391 35.56H99.0311C98.1164 35.56 97.3791 35.4107 96.8191 35.112C96.2591 34.8133 95.8484 34.4307 95.5871 33.964C95.3257 33.4787 95.1951 32.9747 95.1951 32.452C95.1951 31.9107 95.3071 31.4067 95.5311 30.94C95.7737 30.4547 96.1004 30.0067 96.5111 29.596C95.8391 29.1853 95.2977 28.6347 94.8871 27.944C94.4951 27.2533 94.2991 26.4227 94.2991 25.452C94.2991 24.3507 94.5324 23.436 94.9991 22.708C95.4657 21.98 96.1004 21.4387 96.9031 21.084C97.7244 20.7107 98.6297 20.524 99.6191 20.524H100.095C100.468 20.524 100.832 20.552 101.187 20.608C101.542 20.6453 101.878 20.7107 102.195 20.804H107.263V23.548L104.463 23.1C104.743 23.3987 104.958 23.772 105.107 24.22C105.275 24.6493 105.359 25.1813 105.359 25.816C105.359 26.768 105.116 27.5893 104.631 28.28C104.164 28.952 103.53 29.4747 102.727 29.848C101.943 30.2027 101.066 30.38 100.095 30.38H99.6191C99.2457 30.38 98.8911 30.352 98.5551 30.296C98.3497 30.52 98.2004 30.7533 98.1071 30.996C98.0137 31.22 97.9671 31.4347 97.9671 31.64C97.9671 32.2933 98.3871 32.62 99.2271 32.62H102.643C103.931 32.62 104.967 32.956 105.751 33.628C106.554 34.2813 106.955 35.2147 106.955 36.428ZM100.095 27.748C100.674 27.748 101.178 27.552 101.607 27.16C102.055 26.768 102.279 26.1987 102.279 25.452C102.279 24.7053 102.055 24.136 101.607 23.744C101.178 23.352 100.674 23.156 100.095 23.156H99.6191C99.0217 23.156 98.4991 23.352 98.0511 23.744C97.6217 24.136 97.4071 24.7053 97.4071 25.452C97.4071 26.1987 97.6217 26.768 98.0511 27.16C98.4991 27.552 99.0217 27.748 99.6191 27.748H100.095Z" fill="#2F80ED"/>
<path d="M126.198 35L125.022 31.276H118.498L117.322 35H113.99L120.346 15.96H123.314L129.698 35H126.198ZM120.318 25.452L119.45 28.196H124.042L123.174 25.452L121.774 20.636L120.318 25.452Z" fill="#F2C94C"/>
<path d="M137.974 30.996V14.28H141.194V30.996C141.194 31.276 141.26 31.5467 141.39 31.808C141.54 32.0507 141.82 32.172 142.23 32.172H142.678V35.14H141.894C140.83 35.14 140.018 34.9347 139.458 34.524C138.898 34.1133 138.506 33.5907 138.282 32.956C138.077 32.3213 137.974 31.668 137.974 30.996Z" fill="#F2994A"/>
<defs>
<filter id="filter0_b" x="-10" y="-10" width="223" height="68" filterUnits="userSpaceOnUse" color-interpolation-filters="sRGB">
<feFlood flood-opacity="0" result="BackgroundImageFix"/>
<feGaussianBlur in="BackgroundImage" stdDeviation="5"/>
<feComposite in2="SourceAlpha" operator="in" result="effect1_backgroundBlur"/>
<feBlend mode="normal" in="SourceGraphic" in2="effect1_backgroundBlur" result="shape"/>
</filter>
</defs>
</svg>
